<mxfile host="app.diagrams.net" modified="2021-06-28T05:52:50.483Z" agent="5.0 (Windows NT 10.0; Win64; x64) AppleWebKit/537.36 (KHTML, like Gecko) Chrome/90.0.4430.212 Safari/537.36" etag="EOW6395ImpCaPoU8HdYy" version="14.7.6" type="github" pages="2">
  <diagram id="g7usEjnd5ee0Ly5ZbJtn" name="detailed version">
    <mxGraphModel dx="1990" dy="634" grid="0" gridSize="10" guides="1" tooltips="1" connect="0" arrows="0" fold="1" page="1" pageScale="1" pageWidth="850" pageHeight="1100" math="0" shadow="0">
      <root>
        <mxCell id="0" />
        <mxCell id="1" parent="0" />
        <mxCell id="EPciwlCAxLOxW23dukJo-44" value="" style="rounded=1;fillColor=#ffe6cc;labelBackgroundColor=#ffffff;arcSize=8;strokeColor=#d79b00;dashed=1;" parent="1" vertex="1">
          <mxGeometry x="1781" y="171.1" width="1149.21" height="1008.9" as="geometry" />
        </mxCell>
        <mxCell id="EPciwlCAxLOxW23dukJo-45" value="" style="rounded=1;fillColor=#e1d5e7;labelBackgroundColor=#ffffff;arcSize=8;strokeColor=#9673a6;" parent="1" vertex="1">
          <mxGeometry x="2105.31" y="400" width="694.9" height="410" as="geometry" />
        </mxCell>
        <mxCell id="EPciwlCAxLOxW23dukJo-38" value="" style="rounded=1;fillColor=#dae8fc;labelBackgroundColor=#ffffff;arcSize=8;strokeColor=#6c8ebf;dashed=1;" parent="1" vertex="1">
          <mxGeometry x="634" y="167.1" width="1099" height="1000" as="geometry" />
        </mxCell>
        <mxCell id="EPciwlCAxLOxW23dukJo-34" value="" style="rounded=1;fillColor=#f5f5f5;labelBackgroundColor=#ffffff;arcSize=8;strokeColor=#666666;dashed=1;fontColor=#333333;" parent="1" vertex="1">
          <mxGeometry x="-481" y="167.1" width="1059" height="998.9" as="geometry" />
        </mxCell>
        <mxCell id="sdquQk6Ne_uuqH1AtgiG-55" value="" style="edgeStyle=orthogonalEdgeStyle;rounded=0;orthogonalLoop=1;jettySize=auto;endArrow=classicThin;endFill=1;" parent="1" source="sdquQk6Ne_uuqH1AtgiG-48" target="sdquQk6Ne_uuqH1AtgiG-54" edge="1">
          <mxGeometry relative="1" as="geometry" />
        </mxCell>
        <mxCell id="sdquQk6Ne_uuqH1AtgiG-58" value="" style="edgeStyle=orthogonalEdgeStyle;rounded=0;orthogonalLoop=1;jettySize=auto;fontSize=9;endArrow=classicThin;endFill=1;" parent="1" source="sdquQk6Ne_uuqH1AtgiG-54" target="sdquQk6Ne_uuqH1AtgiG-57" edge="1">
          <mxGeometry relative="1" as="geometry" />
        </mxCell>
        <mxCell id="sdquQk6Ne_uuqH1AtgiG-61" value="" style="edgeStyle=orthogonalEdgeStyle;rounded=0;orthogonalLoop=1;jettySize=auto;fontSize=9;endArrow=none;endFill=0;startArrow=classicThin;startFill=1;dashed=1;exitX=0.5;exitY=0;exitDx=0;exitDy=0;exitPerimeter=0;" parent="1" source="sdquQk6Ne_uuqH1AtgiG-54" edge="1">
          <mxGeometry relative="1" as="geometry">
            <mxPoint x="-217" y="542.38" as="targetPoint" />
            <Array as="points">
              <mxPoint x="-272" y="542.38" />
            </Array>
          </mxGeometry>
        </mxCell>
        <mxCell id="sdquQk6Ne_uuqH1AtgiG-66" value="trip name" style="edgeLabel;align=center;verticalAlign=middle;resizable=0;points=[];fontSize=8;" parent="sdquQk6Ne_uuqH1AtgiG-61" vertex="1" connectable="0">
          <mxGeometry x="0.7102" y="1" relative="1" as="geometry">
            <mxPoint x="-19" y="-9" as="offset" />
          </mxGeometry>
        </mxCell>
        <mxCell id="sdquQk6Ne_uuqH1AtgiG-54" value="Raw-Data &#xa;DB" style="shape=cylinder3;boundedLbl=1;backgroundOutline=1;size=5.040014648437477;labelBackgroundColor=none;fontSize=12;align=center;verticalAlign=middle;fillColor=#FFFFFF;" parent="1" vertex="1">
          <mxGeometry x="-311.22" y="562.3899999999999" width="78.74" height="49.2125" as="geometry" />
        </mxCell>
        <mxCell id="sdquQk6Ne_uuqH1AtgiG-56" value="" style="group;fontSize=13;" parent="1" vertex="1" connectable="0">
          <mxGeometry x="-451" y="560.4300000000001" width="94" height="53.14" as="geometry" />
        </mxCell>
        <mxCell id="sdquQk6Ne_uuqH1AtgiG-48" value="Map Source&#xa;(mapping van,&#xa;OSM, aimsun)&#xa;" style="rounded=1;labelBackgroundColor=none;fontSize=10;fontColor=#000000;align=center;verticalAlign=top;fillColor=#FEF6DF;strokeColor=#FFE8A2;fontStyle=0;" parent="sdquQk6Ne_uuqH1AtgiG-56" vertex="1">
          <mxGeometry width="94" height="53.13999999999999" as="geometry" />
        </mxCell>
        <mxCell id="sdquQk6Ne_uuqH1AtgiG-60" value="" style="edgeStyle=orthogonalEdgeStyle;rounded=0;orthogonalLoop=1;jettySize=auto;fontSize=9;endArrow=classicThin;endFill=1;" parent="1" source="sdquQk6Ne_uuqH1AtgiG-57" target="sdquQk6Ne_uuqH1AtgiG-59" edge="1">
          <mxGeometry relative="1" as="geometry" />
        </mxCell>
        <mxCell id="sdquQk6Ne_uuqH1AtgiG-57" value="Cleaned-Data &#xa;DB" style="shape=cylinder3;boundedLbl=1;backgroundOutline=1;size=5.040014648437477;labelBackgroundColor=none;fontSize=12;align=center;verticalAlign=middle;fillColor=#FFFFFF;" parent="1" vertex="1">
          <mxGeometry x="-201.37" y="562.3899999999999" width="78.74" height="49.2125" as="geometry" />
        </mxCell>
        <mxCell id="sdquQk6Ne_uuqH1AtgiG-59" value="Road Network&#xa;Map DB" style="shape=cylinder3;boundedLbl=1;backgroundOutline=1;size=5.040014648437477;labelBackgroundColor=none;fontSize=12;align=center;verticalAlign=middle;fillColor=#CCFFFF;" parent="1" vertex="1">
          <mxGeometry x="-77" y="562.3799999999999" width="78.74" height="49.2125" as="geometry" />
        </mxCell>
        <mxCell id="sdquQk6Ne_uuqH1AtgiG-63" value="" style="edgeStyle=orthogonalEdgeStyle;rounded=0;orthogonalLoop=1;jettySize=auto;fontSize=9;endArrow=none;endFill=0;startArrow=classicThin;startFill=1;dashed=1;exitX=0.5;exitY=0;exitDx=0;exitDy=0;exitPerimeter=0;" parent="1" source="sdquQk6Ne_uuqH1AtgiG-57" edge="1">
          <mxGeometry relative="1" as="geometry">
            <mxPoint x="-146.79999999999995" y="549.2400000000001" as="sourcePoint" />
            <mxPoint x="-112" y="542.38" as="targetPoint" />
            <Array as="points">
              <mxPoint x="-162" y="542.38" />
            </Array>
          </mxGeometry>
        </mxCell>
        <mxCell id="sdquQk6Ne_uuqH1AtgiG-67" value="trip name" style="edgeLabel;align=center;verticalAlign=middle;resizable=0;points=[];fontSize=8;" parent="sdquQk6Ne_uuqH1AtgiG-63" vertex="1" connectable="0">
          <mxGeometry x="0.6287" y="-1" relative="1" as="geometry">
            <mxPoint x="-18" y="-10" as="offset" />
          </mxGeometry>
        </mxCell>
        <mxCell id="sdquQk6Ne_uuqH1AtgiG-64" value="" style="edgeStyle=orthogonalEdgeStyle;rounded=0;orthogonalLoop=1;jettySize=auto;fontSize=9;endArrow=none;endFill=0;startArrow=classicThin;startFill=1;dashed=1;exitX=0.5;exitY=0;exitDx=0;exitDy=0;exitPerimeter=0;" parent="1" source="sdquQk6Ne_uuqH1AtgiG-59" edge="1">
          <mxGeometry relative="1" as="geometry">
            <mxPoint x="-41.799999999999955" y="562.3799999999999" as="sourcePoint" />
            <mxPoint x="-7" y="542.37" as="targetPoint" />
            <Array as="points">
              <mxPoint x="-38" y="542.38" />
            </Array>
          </mxGeometry>
        </mxCell>
        <mxCell id="sdquQk6Ne_uuqH1AtgiG-69" value="road name" style="edgeLabel;align=center;verticalAlign=middle;resizable=0;points=[];fontSize=8;" parent="sdquQk6Ne_uuqH1AtgiG-64" vertex="1" connectable="0">
          <mxGeometry x="0.6641" y="1" relative="1" as="geometry">
            <mxPoint x="-17" y="-8" as="offset" />
          </mxGeometry>
        </mxCell>
        <mxCell id="sdquQk6Ne_uuqH1AtgiG-65" value="LLA&amp;ENU" style="text;resizable=0;autosize=1;align=center;verticalAlign=middle;points=[];fillColor=none;strokeColor=none;rounded=0;fontSize=8;opacity=10;" parent="1" vertex="1">
          <mxGeometry x="-57.789999999999964" y="610.8699999999999" width="50" height="20" as="geometry" />
        </mxCell>
        <mxCell id="sdquQk6Ne_uuqH1AtgiG-74" value="" style="group;" parent="1" vertex="1" connectable="0">
          <mxGeometry x="215" y="566.0029999999999" width="93" height="42" as="geometry" />
        </mxCell>
        <mxCell id="sdquQk6Ne_uuqH1AtgiG-71" value="Traffic Simulator" style="rounded=1;labelBackgroundColor=none;fontSize=10;fontColor=#000000;align=center;verticalAlign=top;fillColor=#EBF1DF;strokeColor=#A9D18E;" parent="sdquQk6Ne_uuqH1AtgiG-74" vertex="1">
          <mxGeometry width="93" height="42" as="geometry" />
        </mxCell>
        <mxCell id="sdquQk6Ne_uuqH1AtgiG-73" value="" style="shape=image;verticalLabelPosition=bottom;labelBackgroundColor=#ffffff;verticalAlign=top;aspect=fixed;imageAspect=0;image=data:image/png,iVBORw0KGgoAAAANSUhEUgAAAKYAAAAmCAYAAABOOOCvAAAReklEQVR4Ae2cCXhNR/vAJySWWEKDkAiR2NeGECSWkEVkkUjQomiJnVpSaxRFW/71Ibp8tRdFUF+r3xctEUHIglhirQpCSO1kI9vv/8w5udkTS1WTp/c+z3lmzpntnff87jvzzsy9Yu/evSfnzp2L9tLqoKQwIJkUUhjtR6uBkqQByaQWzJL0RrSyKBrQgqkFoURqQAtmiXwtWqH+HJhpiZBwCW79DNe+gct+cH0txP8CCb9B+lOthrUaeCUNvBqY9w7A+Y/gSCM4UAWCdGCfgL1CDYPKQnAVCHsbfpsLj06/knDaQv9cDbwcmI9OwUkvCNJTIdwvIDjrOiBAc2meyfRfZXp1ODMcEq/8czWt7flLaeDFwby2AoKrqkBK8A7ovPgl80trGlIHbm55KQFLbOYHh+CkBxzvDbFrSqyYpVWw54OZCVycqVo+aQFfBsj8eWX5vToQ80Vp1Zcqd1oyhDWDX7JGhH3l4N7e0t2nEib988G8NCNrOP6TUGog1VjPqytLmCpeQpzkeAipCfKLFqIDewTErniJCrRZn6eB4sG8ufbFhu4QAYcEHBEQJuBoVlw+k2kaKDWhhDOoAtwLeZ58JTM9Iw3OT1ItpoQyvB0kxZZMWUupVEWDmXwTDtZRrYIGqMJCCWKkIHm/HtcDqhK1rg6n1htxNaAySfv04FgWrPnLSi8+vAOkJZRO1WVmwO0dcGMVpNwunX0owVIXDeal6aq1VDztfI5OsI5qIY8JLgQYMu2DljRt0wlh0B1haE/5ui5Urd8by849+HhUa85vra4CKi2oLKuBVDpEWsehBOPx94lWOJgpN+CwWeHWUoJ1RPDskC6LJjVH39AOYTyA5rYTsXacjKXdWMqZuyKM7BGm7ghDLwwbuuA3tjVPD+qpw70GzqCsYTD92d+ngXwtJyYm8vTpX7cxIOtOSkrK12rB28yMDJKVfNL7fPGPrD85OfnFC7zmnGr7z+/f85otHMz4HUVby1DBsxA9vPtaI8o7Yec9ix37wjj2+w1Ox/5B5G/XWf9jMN3cP0THqAcVGrsiGrgj3vLiHQ8bEveXh9Cseaeca8r7e2HPk/MvS79//xFbtwUyePQn9HSeQLsuI+jYbRS93D5k/meruX4jPk/bkVFnGTV1CRNmLVOuMVMXs3bTj3ny7PwpmA/GLsDXz5+EhESepTxj09b/0bvfNDrYjsDKZgSOLuOZ5reSmzfz1v9LUBj9h8+jS8/RWHXxwc5xLIN9PuFI2Kk8beS+SUxI4utvAnB2n0qHLj5KOXvncfhM+pyQg8eAHLhTU1NZtHQDQ0fN48vVO3NXUyAeFnmGMVMWM3rKEkKORGWnr/ruP4wYv4hJs1SHLykhCf+vtuLs7ksHWx/ad/HB0XUCc+Z+zbVrcdnlXiZSOJgXpqs7OJohVxNKRyZch8nDrRDlnHEbOoeoq3FEXb3NkfNXCT0Xw9EL1xRAj0Rfpqv7RESdnug3dqV8I1cFzlEDrOFoGTiYBacczmM+fxmZX0vezMxMNm0NpKnVu4jqXRDl2yN02yKqdkZU6IAoZ4UwsMXIwp3AwEPZbX63ZTdCNEXovI2o0RWh3wHPoTOy02XEZ8q/EKI5NRq4ERgYgrOnL6JMO4ReW0QVG4R+R0TFDoiqNli06c+587+TnpqKz7hPEVW7IMq0RVTqiKjcGVGuvZKvglFPPl1ZcA343IUrWHcfrubVa4eobIOoYovQbaf26a3u9PKYzMXfVecsOSmZpm0GIUQTerlNziN3/pv13/+MqGCFqNCer9fuyE7uO3gmQrxNNdPe/Bx4GGuHUWr/ZJuyfdk/qUMDW8ybeXHoyMnssi8aKRzM4z1ADrMaIDVhpCBwmSk61V2o3cSbX46c4kRMnAKkhDL3dep6PBt+DKaSmTN6Fr2p2MiV8g1dEbU82f55fXXOKeuVYJ4f96LyvrZ86enp9BrgixAtETXtsLUfy+RZK/lu23/5+LM19HD9EGHigDDqTrX6TkSfu6y0HR55miHD/HhnkB9Grb0QNboxcPS8PHKNm/0lwsAGg+YeVGvijihrSctOQ5i1cBU7f9rHsq+20slhDMKkJ8KwG93dJtJ/2ByEsKRSPSeGjV7E+u93831AIIM+mE95UyeEsT16NewIPZxjuZ4+S6Wry3gVyrqODB4+jx927ydw72Fmzv037buOUAAxsxzAtdhbiowSTKvOI5QvnteAWXnkzn+zefsepf/CyI41G3NGhcE+8xW5qzbzoKKFC6J8B6WtmQtWsWv3flZ+G4Ct8/js/jVqM4C4+Lv5qy/2viCYGekQ3rIgmAcF6Yf16OXUFVGlF3ZeU4iKucWR83mB1MAZduk6oWcuYe00SlFqxcauyEvU9aCdbQ/SD+iqVlN656f65x5tihX4dSbGxsbh0Xc8Gzb/l5R888r09DRmLl6HnrE9olInJk5alrfpzHQ6Oo5W0gaOmZ8nbbwEs7ot5Sx6Iwy7Mnbq//Hg3oM8eZKSk3Hu50uZ2j0R9Z0QlTvR2vYDwo8WHLI/+2IDwqiHAuCEKUuz6zl/7grlajkqlslnXMFR58mTRL75JoDQ8Jw6XxuYNe3Qa9ALXcNufLp4nTJlyRYMSEl5isu70xCyf/qdWLUmB+zc+YqKFwJmGhxtUhDMMMGpjdXRN3NXHBuPEXM4EXMzewjXAKkJj168TsT5Kzh4TkIY9VSglFazrLkblRq4c2xdHQjPOvRxog9k5MyDihL2TT+Xw2sTy4EKfE59ppCWlpotwuPHT2hvP1IBqlAwDWzQMemJ77yvs8vkj+wODEW81ZWyJva0dxjDnbt54dXkf/TwMQ3aDlCsczfPCcgvjfycjLpIhRoOylRkxJhFmuzFhq8FzJHzFbn1azuwbUtgke2FH41G17AnomZ3Rk9eXGS+whIKgilzRTQvCGakYNvCBoianggTe1p19yHit1hlTqmBMXcYefkG+yKjaWg9EJ16TspQLsGUlxzOl0xrDFFZe+hnfQqT7W9/lpmeTou27ylzvG5uE0hJyfF2Hz16XDyYlTtR2dyZyONFn6wKORqFMLVXgFv4xbpi+puB55CZisXs7DaOtFT1C3Lnj3uYtuiLqNODcsYO+Iz5lDPRvxVTD7w2MA1sqW3uQVJCSpHt3bp9B1OrAQrEHkOLnzbkr6RwME/1KwhmuGD5R60QtT2UOWMlU2e+3hzIuVv3CD2nOj4aMKUjJJ9/vHQjooad4plroFSGc0MvPh7dVAVTnj66OCm/XG/sPiYmlrVrdvHRbH+Gjl/A+xMXKdeoqYtxGOBLBbPeiFp22LlP5OnTnJfwQmBa9ObQEekVF/4JPnwcUddesSjzlxR3ECSDfu/PUSy3bZ/x2WDKWrf/dAC9mj2Uly/ntYYWbjh5+7Jq1Q/E5vP4Zf7XCaaReR/u33lYeOeA2Bu3qNuuvyJb3/dnF5mvsITCwYxZUXC5KFywIgtM/SZulDFxoK7VIDYHHuZc3F2OX4lDWskTMbeIjrvLmu2/YtSqL2Xr57WWGjDnjGoKJ7KG8ti1hcn2lz9bvWYnJo1cEJWtETpWiqcpRCvUq6Xipes1dlHmSa8K5sHQFwNz3uLVxfQ3A+9hfoWCKQsdDjtN7z6TqGzqqHr7BjZKXrMWXny2bCOZ0m/I+rxuMO+9UTAfhMI+uUOTyzOPFGxfZIao6aHMFyWcckiv2cyT8TOX892PwewKPs76nb8yZOLnVGvkRhlTx+y5pcZiVpBDeW1P/Gc1zPLMq0JijEZvbywMOhBO2ZpdkR6nrrEjXoNns2DhOvz9A1jpv52V/gGsXvcjDdq+i6hm+8oW802AqVFaaNhJ5i9cTatOQxFvdVemCKKSNdNn+2uy5LGY3u8Ub8WK9MrlHFMupZn34c2CKY91RdrkXcsME5z93oAqFm7omrspc0X9xm6KRRS1e1Cpfm8MGrijX99ZfdlmvZDpGiA1oXR+Kjdw4/TGWnBYeuRe2Up7k5HhPgsVx0XPxJ5Pl2zIswidW4621sOUfCXZYuaWV8aTEpLZtPF/mLXphzB1QLdmdyIio5VsSYlJtOs0AqFnhfdzlou27tqLqN1deZ+rNuzKbmbw3wamFOHmprzD+UFB5tGyeLvZIIxUq6mBTVpBuTSiZ+6shJrn+UO50C6M+2Bn35XMQ2Vgfzm4fzC7w28ukoHbgOmKU1OnoSfxt+8U2nRiQiKN3h6o5CtNYGo6E7BzrzLHF/qd8fffqjx+9vQpbTt+oCyCW3cfmWe+qimnCZcu3YKo1FlZ7tuyY4/mMa8NzGdPsuvMHyl8jilzZabBiV5ZcGYdvIgQHPm2NhVN+lC2QUFrmB/E/Pd65m6K87R3pbFqLaOH5JfnDd1nMmjYfMUS6ps4ERRU+Jbo8pUB6NXq8aecn796KP/554PcLuKLtXnLHoR0jCp24ttvcyye1xA/ZXqiW8uOtet/KlTnt+Lv0tJmmLL5UL2BC1eu5Bzr+9NgpiWpxwZDLeGkp/qDxnxSFA2mzJhwGQ7WyPHQ5aHYCMHCiS0QNbzQs3BDP2sJKD+Eue+lpSzX0A1R3YsZwy3VvfKwFpCSd584n2x/6e2q1bsQVTqpS18dhhAUFE5yYjIpyc+4fPk6nyxZrzh4QjoUtXuWyDlmwK59SGvYquN7LFu5hQsXr/Dw/mPu3rnPth37qNPCW1lKqmzswOmTl7L1eTTsNOWN5a6WHfpmvZm3cBUXLlzh0cMn3L/7gP/sDqGt3Qh150a/A1Nm5N1c+NNgXv1SPcsqdxfledZTgyAjI1s+GSkeTJnjXjAEG+TAeUgO6QJfn9YIo74I0z6qgyN3dvJD2thV2ScX9eQpI08mvteeDLnfHtYYHp/NI8ibvklOTqGny4fqvq5hV3SN7DFu0g/jlgOoYuyseOh1WvSjapM+yrZeR4dReZaLHj58RIvOQxCiDfmXQnx8lynPRW07gg+GF9m1fSERiGo2iic9a0HRC/GQgcs7Hyl1tnX0IT1NXWCf7rdc9cLl3nTljlSt50odCw/FKRE1uqt1V7Hhk2WbC8iwbksgVSWcVTorX1CD+q7UaeihrE3KJT7lzIB+Z7z7T+PJ47xDrveQ2Yiybalk5MjdPwrfFJANXo+No3ozN2X70/ld3xwZLs5WfxUhnWu5JR3R8xXAlNXJk+aHTNRK5Ikg6bSECzYtsqBhayeEoVzk7YOOmZuys1PW3B0deaLI2ANRoy/1Wjvxbz9zdQsy0hIeX8gR8m+MPXzwmBkzV9C4dX9060nLaKdcRhauvDNkNhcvxDBk2CwsrfoycuwCnqXmHM97kpDAwKFq2pTZeX9WsXjpJiytvLDuOozwY2eK7OGhyGgsOw7GssO7fLlqe5H5Mslk6vSlWFp5MmTkfFKzwExNTWP3nlDcB87ArLkXZeSaqHEP5XrLwgXrbiP5fmfRv0U6EXWevu/5YdbMW11PraOWlUP32x2H4f/VNp6m5PRZI+AMvxVYtvemh70Pcj23qM+t+DvYu03AskN/xvnm+p3X41PqsUq5HR1UDW4UXC58vsXUtJp4CaL6qp66rFBavmOCO4GVWOvXCi93W0xa96KWhSs1zZ0xaemIm0sX/jWtEXG7sk6xnx0ISTc1NZaY8N7dB4SEHmdfSDjBhyK5evVGLtnkVmlx26WZkFlceq6qCo2q9cvTTs//FN1WXFw8IYePERQSQVBIONFnL72wXPLoney3WjaCM9EXSXuWs/1auFzPl1fNUUT/5Kn/+MAi/3PgxcHUSHdrq2p65fxAA2iEUKzhkz26xP9QjrgAwePdcg1UmmkB0S7wR9F7qpqqtaFWAxoNvDyYsmR6KjyIUP9l44QThEmHxgwO14IIM4iygjO94MoieHy8eIOjkUQbajWQSwOvBmauCpRoaqI6RD+5DMm3oQT9VCK/qNr70qGB1wNm6eirVspSpAEtmKXoZf2TRNWC+U9626WorwqYy5cvfygj2kurg5LCgGTy/wGxdgdnHpuUbgAAAABJRU5ErkJggg==;" parent="sdquQk6Ne_uuqH1AtgiG-74" vertex="1">
          <mxGeometry x="12.879999999999995" y="22" width="67.25" height="15.4" as="geometry" />
        </mxCell>
        <mxCell id="sdquQk6Ne_uuqH1AtgiG-77" value="" style="shape=image;verticalLabelPosition=bottom;verticalAlign=top;imageAspect=0;image=https://upload.wikimedia.org/wikipedia/commons/b/bb/Ros_logo.svg;fontSize=8;strokeColor=#000000;fillColor=#CCFFFF;" parent="1" vertex="1">
          <mxGeometry x="343" y="563.9099999999999" width="63" height="17" as="geometry" />
        </mxCell>
        <mxCell id="sdquQk6Ne_uuqH1AtgiG-79" value="Road-Traffic and&#xa;Vehicle Trajectories" style="shape=cylinder3;boundedLbl=1;backgroundOutline=1;size=5.040014648437477;labelBackgroundColor=none;fontSize=12;align=center;verticalAlign=middle;fillColor=#FFFFFF;" parent="1" vertex="1">
          <mxGeometry x="419.19999999999993" y="562.3999999999999" width="118.11" height="49.2125" as="geometry" />
        </mxCell>
        <UserObject label="DATABASE-AS-A-SENSOR" lucidchartObjectId="Ge4s9ggXFkKx" id="NW8IP-rn-EwmyOUBby27-1">
          <mxCell style="overflow=block;blockSpacing=1;strokeColor=none;fillColor=none;fontSize=13;fontColor=#000000;align=left;spacing=0;verticalAlign=middle;strokeWidth=1.5;" parent="1" vertex="1">
            <mxGeometry x="2111.28" y="371.1" width="180" height="30" as="geometry" />
          </mxCell>
        </UserObject>
        <UserObject label="SUPER-MODEL" lucidchartObjectId="_q3sCnzLqKI8" id="NW8IP-rn-EwmyOUBby27-2">
          <mxCell style="overflow=block;blockSpacing=1;;fontSize=13;fontColor=#000000;align=center;spacing=9;strokeColor=#333333;strokeOpacity=100;fillOpacity=100;fillColor=#ffdba9;strokeWidth=0.8;verticalAlign=top;" parent="1" vertex="1">
            <mxGeometry x="2621.28" y="431.1" width="150" height="251" as="geometry" />
          </mxCell>
        </UserObject>
        <UserObject label="Communications&#xa;Interface/Protocol" lucidchartObjectId="_q3sdJaIwXV-" id="NW8IP-rn-EwmyOUBby27-4">
          <mxCell style="overflow=block;blockSpacing=1;;fontSize=13;fontColor=#000000;align=center;spacing=3.8;strokeColor=#333333;strokeOpacity=100;fillOpacity=27;fillColor=#c7e8ac;strokeWidth=0.8;verticalAlign=top;" parent="1" vertex="1">
            <mxGeometry x="1796.2800000000002" y="236.10000000000002" width="120" height="870" as="geometry" />
          </mxCell>
        </UserObject>
        <UserObject label="Context discovery" lucidchartObjectId="_q3slc-uDzYw" id="NW8IP-rn-EwmyOUBby27-5">
          <mxCell style="overflow=block;blockSpacing=1;;fontSize=13;fontColor=#000000;align=center;spacing=9;strokeColor=#333333;strokeOpacity=100;fillOpacity=100;fillColor=#ffffff;strokeWidth=0.8;" parent="1" vertex="1">
            <mxGeometry x="2231.28" y="581.1" width="120" height="90" as="geometry" />
          </mxCell>
        </UserObject>
        <UserObject label="Context-based&#xa; Aggregation" lucidchartObjectId="_q3sv2Nb_xYL" id="NW8IP-rn-EwmyOUBby27-6">
          <mxCell style="overflow=block;blockSpacing=1;;fontSize=13;fontColor=#000000;align=center;spacing=9;strokeColor=#333333;strokeOpacity=100;fillOpacity=100;fillColor=#ffffff;strokeWidth=0.8;" parent="1" vertex="1">
            <mxGeometry x="2321.28" y="446.1" width="120" height="90" as="geometry" />
          </mxCell>
        </UserObject>
        <UserObject label="" lucidchartObjectId="_q3sBJX2jDkm" id="NW8IP-rn-EwmyOUBby27-7">
          <mxCell style="jettySize=18;whiteSpace=wrap;fontSize=13;strokeColor=#666666;strokeOpacity=100;strokeWidth=0.8;rounded=1;arcSize=24;edgeStyle=orthogonalEdgeStyle;startArrow=none;;endArrow=block;endFill=1;;exitX=1.003;exitY=0.5;exitPerimeter=0;entryX=-0.003;entryY=0.593;entryPerimeter=0;" parent="1" source="NW8IP-rn-EwmyOUBby27-5" target="NW8IP-rn-EwmyOUBby27-6" edge="1">
            <mxGeometry width="100" height="100" relative="1" as="geometry">
              <Array as="points" />
            </mxGeometry>
          </mxCell>
        </UserObject>
        <mxCell id="NW8IP-rn-EwmyOUBby27-8" value="Contextscale" style="text;resizable=0;labelBackgroundColor=none;align=center;verticalAlign=middle;fontColor=#000000;;fontSize=13;" parent="NW8IP-rn-EwmyOUBby27-7" vertex="1">
          <mxGeometry x="0.5688167614994502" relative="1" as="geometry">
            <mxPoint x="-37" y="13" as="offset" />
          </mxGeometry>
        </mxCell>
        <UserObject label="Aggregate &#xa;contextualized&#xa;DB 1" lucidchartObjectId="_q3s-cawzxIQ" id="NW8IP-rn-EwmyOUBby27-9">
          <mxCell style="overflow=block;blockSpacing=1;shape=cylinder3;size=4;anchorPointDirection=0;boundedLbl=1;;fontSize=13;fontColor=#000000;align=center;spacing=3.8;strokeColor=#333333;strokeOpacity=100;fillOpacity=100;fillColor=#ffffff;strokeWidth=0.8;" parent="1" vertex="1">
            <mxGeometry x="2486.28" y="416.1" width="90" height="83" as="geometry" />
          </mxCell>
        </UserObject>
        <UserObject label="Aggregate &#xa;DB 2" lucidchartObjectId="_q3skCkZRCh6" id="NW8IP-rn-EwmyOUBby27-10">
          <mxCell style="overflow=block;blockSpacing=1;shape=cylinder3;size=4;anchorPointDirection=0;boundedLbl=1;;fontSize=13;fontColor=#000000;align=center;spacing=3.8;strokeColor=#333333;strokeOpacity=100;fillOpacity=100;fillColor=#ffffff;strokeWidth=0.8;" parent="1" vertex="1">
            <mxGeometry x="2486.28" y="506.1" width="90" height="90" as="geometry" />
          </mxCell>
        </UserObject>
        <UserObject label="Aggregate &#xa;DB M" lucidchartObjectId="_q3s3rW5cQ4M" id="NW8IP-rn-EwmyOUBby27-11">
          <mxCell style="overflow=block;blockSpacing=1;shape=cylinder3;size=4;anchorPointDirection=0;boundedLbl=1;;fontSize=13;fontColor=#000000;align=center;spacing=3.8;strokeColor=#333333;strokeOpacity=100;fillOpacity=100;fillColor=#ffffff;strokeWidth=0.8;" parent="1" vertex="1">
            <mxGeometry x="2486.28" y="656.1" width="90" height="83" as="geometry" />
          </mxCell>
        </UserObject>
        <UserObject label="" lucidchartObjectId="_q3sJoHtJIqs" id="NW8IP-rn-EwmyOUBby27-12">
          <mxCell style="jettySize=18;whiteSpace=wrap;fontSize=13;strokeColor=#666666;strokeOpacity=100;strokeWidth=0.8;rounded=1;arcSize=24;edgeStyle=orthogonalEdgeStyle;startArrow=none;;endArrow=block;endFill=1;;exitX=1.003;exitY=0.5;exitPerimeter=0;entryX=-0.004;entryY=0.5;entryPerimeter=0;" parent="1" source="NW8IP-rn-EwmyOUBby27-6" target="NW8IP-rn-EwmyOUBby27-9" edge="1">
            <mxGeometry width="100" height="100" relative="1" as="geometry">
              <Array as="points" />
            </mxGeometry>
          </mxCell>
        </UserObject>
        <UserObject label="" lucidchartObjectId="_q3sZJtR-lwI" id="NW8IP-rn-EwmyOUBby27-13">
          <mxCell style="jettySize=18;whiteSpace=wrap;fontSize=13;strokeColor=#666666;strokeOpacity=100;strokeWidth=0.8;rounded=1;arcSize=24;edgeStyle=orthogonalEdgeStyle;startArrow=none;;endArrow=block;endFill=1;;exitX=1.003;exitY=0.5;exitPerimeter=0;entryX=-0.004;entryY=0.5;entryPerimeter=0;" parent="1" source="NW8IP-rn-EwmyOUBby27-6" target="NW8IP-rn-EwmyOUBby27-10" edge="1">
            <mxGeometry width="100" height="100" relative="1" as="geometry">
              <Array as="points" />
            </mxGeometry>
          </mxCell>
        </UserObject>
        <UserObject label="" lucidchartObjectId="_q3s.Pf6TlBL" id="NW8IP-rn-EwmyOUBby27-14">
          <mxCell style="jettySize=18;whiteSpace=wrap;fontSize=13;strokeColor=#666666;strokeOpacity=100;strokeWidth=0.8;rounded=1;arcSize=24;edgeStyle=orthogonalEdgeStyle;startArrow=none;;endArrow=block;endFill=1;;exitX=1.003;exitY=0.5;exitPerimeter=0;entryX=-0.004;entryY=0.5;entryPerimeter=0;" parent="1" source="NW8IP-rn-EwmyOUBby27-6" target="NW8IP-rn-EwmyOUBby27-11" edge="1">
            <mxGeometry width="100" height="100" relative="1" as="geometry">
              <Array as="points" />
            </mxGeometry>
          </mxCell>
        </UserObject>
        <UserObject label="Model 1" lucidchartObjectId="_q3sWX4s7R8q" id="NW8IP-rn-EwmyOUBby27-15">
          <mxCell style="overflow=block;blockSpacing=1;;fontSize=13;fontColor=#000000;align=center;spacing=9;strokeColor=#333333;strokeOpacity=100;fillOpacity=100;fillColor=#ffffff;strokeWidth=0.8;" parent="1" vertex="1">
            <mxGeometry x="2650.28" y="472.1" width="105" height="53" as="geometry" />
          </mxCell>
        </UserObject>
        <UserObject label="Model M" lucidchartObjectId="_q3s9HcdBm4A" id="NW8IP-rn-EwmyOUBby27-16">
          <mxCell style="overflow=block;blockSpacing=1;;fontSize=13;fontColor=#000000;align=center;spacing=9;strokeColor=#333333;strokeOpacity=100;fillOpacity=100;fillColor=#ffffff;strokeWidth=0.8;" parent="1" vertex="1">
            <mxGeometry x="2651.28" y="596.1" width="105" height="53" as="geometry" />
          </mxCell>
        </UserObject>
        <UserObject label="" lucidchartObjectId="_q3su-ZKXDfv" id="NW8IP-rn-EwmyOUBby27-17">
          <mxCell style="jettySize=18;whiteSpace=wrap;fontSize=13;strokeColor=#666666;strokeOpacity=100;strokeWidth=0.8;rounded=1;arcSize=24;edgeStyle=orthogonalEdgeStyle;startArrow=none;;endArrow=block;endFill=1;;exitX=1.004;exitY=0.5;exitPerimeter=0;entryX=-0.004;entryY=0.5;entryPerimeter=0;" parent="1" source="NW8IP-rn-EwmyOUBby27-9" target="NW8IP-rn-EwmyOUBby27-15" edge="1">
            <mxGeometry width="100" height="100" relative="1" as="geometry">
              <Array as="points" />
            </mxGeometry>
          </mxCell>
        </UserObject>
        <UserObject label="" lucidchartObjectId="_q3sKgkowAVP" id="NW8IP-rn-EwmyOUBby27-18">
          <mxCell style="jettySize=18;whiteSpace=wrap;fontSize=13;strokeColor=#666666;strokeOpacity=100;strokeWidth=0.8;rounded=1;arcSize=24;edgeStyle=orthogonalEdgeStyle;startArrow=none;;endArrow=block;endFill=1;;exitX=1.004;exitY=0.5;exitPerimeter=0;entryX=-0.004;entryY=0.5;entryPerimeter=0;" parent="1" source="NW8IP-rn-EwmyOUBby27-11" target="NW8IP-rn-EwmyOUBby27-16" edge="1">
            <mxGeometry width="100" height="100" relative="1" as="geometry">
              <Array as="points" />
            </mxGeometry>
          </mxCell>
        </UserObject>
        <UserObject label="Raw &#xa;Road Friction &#xa;Measurement&#xa;DB&#xa;" lucidchartObjectId="vr3sK8uEFy~M" id="NW8IP-rn-EwmyOUBby27-19">
          <mxCell style="overflow=block;blockSpacing=1;shape=cylinder3;size=7.923801522090514;anchorPointDirection=0;boundedLbl=1;;fontSize=13;fontColor=#000000;align=center;spacing=3.8;strokeColor=#333333;strokeOpacity=100;fillOpacity=100;fillColor=#ffffff;strokeWidth=0.8;" parent="1" vertex="1">
            <mxGeometry x="2126.28" y="416.1" width="90" height="135" as="geometry" />
          </mxCell>
        </UserObject>
        <UserObject label="" lucidchartObjectId="Ir3sXwLuY~WR" id="NW8IP-rn-EwmyOUBby27-20">
          <mxCell style="jettySize=18;whiteSpace=wrap;fontSize=13;strokeColor=#666666;strokeOpacity=100;strokeWidth=0.8;rounded=1;arcSize=24;edgeStyle=orthogonalEdgeStyle;startArrow=none;;endArrow=block;endFill=1;;exitX=1.004;exitY=0.5;exitPerimeter=0;entryX=-0.003;entryY=0.417;entryPerimeter=0;" parent="1" source="NW8IP-rn-EwmyOUBby27-19" target="NW8IP-rn-EwmyOUBby27-6" edge="1">
            <mxGeometry width="100" height="100" relative="1" as="geometry">
              <Array as="points" />
            </mxGeometry>
          </mxCell>
        </UserObject>
        <mxCell id="NW8IP-rn-EwmyOUBby27-21" value="Data" style="text;resizable=0;labelBackgroundColor=none;align=center;verticalAlign=middle;fontColor=#000000;;fontSize=13;" parent="NW8IP-rn-EwmyOUBby27-20" vertex="1">
          <mxGeometry x="-0.1463339966318351" relative="1" as="geometry">
            <mxPoint x="1" y="-11" as="offset" />
          </mxGeometry>
        </mxCell>
        <UserObject label="" lucidchartObjectId="Lr3sU9ZXQC45" id="NW8IP-rn-EwmyOUBby27-22">
          <mxCell style="jettySize=18;whiteSpace=wrap;fontSize=13;strokeColor=#666666;strokeOpacity=100;strokeWidth=0.8;rounded=1;arcSize=24;edgeStyle=orthogonalEdgeStyle;startArrow=none;;endArrow=block;endFill=1;;exitX=0.5;exitY=1.003;exitPerimeter=0;entryX=-0.003;entryY=0.5;entryPerimeter=0;" parent="1" source="NW8IP-rn-EwmyOUBby27-19" target="NW8IP-rn-EwmyOUBby27-5" edge="1">
            <mxGeometry width="100" height="100" relative="1" as="geometry">
              <Array as="points" />
            </mxGeometry>
          </mxCell>
        </UserObject>
        <UserObject label="Server Interface" lucidchartObjectId="qs3s3aPJvgVE" id="NW8IP-rn-EwmyOUBby27-23">
          <mxCell style="overflow=block;blockSpacing=1;;fontSize=13;fontColor=#000000;align=center;spacing=3.8;strokeColor=#333333;strokeOpacity=100;fillOpacity=34;strokeWidth=0.8;verticalAlign=top;fillColor=#C1E4F7;" parent="1" vertex="1">
            <mxGeometry x="1961.2800000000002" y="701.1" width="120" height="405" as="geometry" />
          </mxCell>
        </UserObject>
        <UserObject label="Data Insertion &#xa;Protocol Layer&#xa;(Populate DB)" lucidchartObjectId="At3sJHafZNwY" id="NW8IP-rn-EwmyOUBby27-24">
          <mxCell style="overflow=block;blockSpacing=1;;fontSize=13;fontColor=#000000;align=center;spacing=3.8;strokeColor=#333333;strokeOpacity=100;fillOpacity=100;strokeWidth=0.8;verticalAlign=top;fillColor=#E6E6E6;" parent="1" vertex="1">
            <mxGeometry x="1961.2800000000002" y="236.10000000000002" width="120" height="380" as="geometry" />
          </mxCell>
        </UserObject>
        <UserObject label="" lucidchartObjectId="rx3sOJRHICS-" id="NW8IP-rn-EwmyOUBby27-25">
          <mxCell style="jettySize=18;whiteSpace=wrap;fontSize=13;strokeOpacity=100;strokeWidth=0.8;rounded=1;arcSize=24;edgeStyle=orthogonalEdgeStyle;startArrow=none;;endArrow=block;endFill=1;;" parent="1" edge="1">
            <mxGeometry width="100" height="100" relative="1" as="geometry">
              <Array as="points" />
              <mxPoint x="1916.21" y="311" as="sourcePoint" />
              <mxPoint x="1961.21" y="311" as="targetPoint" />
            </mxGeometry>
          </mxCell>
        </UserObject>
        <mxCell id="EPciwlCAxLOxW23dukJo-55" value="1" style="edgeLabel;align=center;verticalAlign=middle;resizable=0;points=[];fontSize=28;labelBackgroundColor=none;" parent="NW8IP-rn-EwmyOUBby27-25" vertex="1" connectable="0">
          <mxGeometry x="0.2571" y="-1" relative="1" as="geometry">
            <mxPoint x="-10" y="-22" as="offset" />
          </mxGeometry>
        </mxCell>
        <UserObject label="" lucidchartObjectId="Dx3s6l~ndJbO" id="NW8IP-rn-EwmyOUBby27-27">
          <mxCell style="jettySize=18;whiteSpace=wrap;fontSize=13;strokeColor=#666666;strokeOpacity=100;strokeWidth=0.8;rounded=1;arcSize=24;edgeStyle=orthogonalEdgeStyle;startArrow=none;;endArrow=block;endFill=1;;exitX=1.003;exitY=0.616;exitPerimeter=0;entryX=-0.004;entryY=0.403;entryPerimeter=0;" parent="1" source="NW8IP-rn-EwmyOUBby27-24" target="NW8IP-rn-EwmyOUBby27-19" edge="1">
            <mxGeometry width="100" height="100" relative="1" as="geometry">
              <Array as="points" />
            </mxGeometry>
          </mxCell>
        </UserObject>
        <UserObject label="" lucidchartObjectId="pE3sSuoxfeZe" id="NW8IP-rn-EwmyOUBby27-32">
          <mxCell style="jettySize=18;whiteSpace=wrap;fontSize=13;strokeColor=#0c7cba;strokeOpacity=100;strokeWidth=2;rounded=1;arcSize=24;edgeStyle=orthogonalEdgeStyle;startArrow=openThin;;endArrow=none;endFill=0;;exitX=1.003;exitY=0.612;exitPerimeter=0;entryX=-0.003;entryY=0.167;entryPerimeter=0;startFill=0;" parent="1" source="NW8IP-rn-EwmyOUBby27-4" target="NW8IP-rn-EwmyOUBby27-23" edge="1">
            <mxGeometry width="100" height="100" relative="1" as="geometry">
              <Array as="points" />
            </mxGeometry>
          </mxCell>
        </UserObject>
        <UserObject label="" lucidchartObjectId="sE3sgkFL4puL" id="NW8IP-rn-EwmyOUBby27-33">
          <mxCell style="jettySize=18;whiteSpace=wrap;fontSize=13;strokeOpacity=100;strokeWidth=1;rounded=1;arcSize=24;edgeStyle=orthogonalEdgeStyle;startArrow=blockThin;;endArrow=none;endFill=0;;exitX=-0.003;exitY=0.113;exitPerimeter=0;strokeColor=#0C7CBA;startFill=1;entryX=1.001;entryY=0.587;entryDx=0;entryDy=0;entryPerimeter=0;" parent="1" source="NW8IP-rn-EwmyOUBby27-23" target="NW8IP-rn-EwmyOUBby27-4" edge="1">
            <mxGeometry width="100" height="100" relative="1" as="geometry">
              <Array as="points" />
            </mxGeometry>
          </mxCell>
        </UserObject>
        <UserObject label="" lucidchartObjectId="DF3sjtqLHW5A" id="NW8IP-rn-EwmyOUBby27-34">
          <mxCell style="jettySize=18;whiteSpace=wrap;fontSize=13;strokeColor=#0c7cba;strokeOpacity=100;strokeWidth=3;rounded=1;arcSize=24;edgeStyle=orthogonalEdgeStyle;startArrow=classicThin;;endArrow=none;endFill=0;;entryX=1.003;entryY=0.463;entryPerimeter=0;startFill=1;endSize=6;" parent="1" target="NW8IP-rn-EwmyOUBby27-2" edge="1">
            <mxGeometry width="100" height="100" relative="1" as="geometry">
              <Array as="points">
                <mxPoint x="2081.21" y="949" />
                <mxPoint x="2910.21" y="949" />
                <mxPoint x="2910.21" y="547" />
              </Array>
              <mxPoint x="2081.21" y="949" as="sourcePoint" />
            </mxGeometry>
          </mxCell>
        </UserObject>
        <mxCell id="mbGC3ksJfDoY1-nT-V7R-103" value="friction preview" style="edgeLabel;align=center;verticalAlign=middle;resizable=0;points=[];fontSize=10;labelBackgroundColor=none;" parent="NW8IP-rn-EwmyOUBby27-34" vertex="1" connectable="0">
          <mxGeometry x="-0.3792" y="-3" relative="1" as="geometry">
            <mxPoint x="-38" y="-12" as="offset" />
          </mxGeometry>
        </mxCell>
        <UserObject label="" lucidchartObjectId="WF3scWvZ1a10" id="NW8IP-rn-EwmyOUBby27-35">
          <mxCell style="jettySize=18;whiteSpace=wrap;fontSize=13;strokeColor=#0c7cba;strokeOpacity=100;strokeWidth=1;rounded=1;arcSize=24;edgeStyle=orthogonalEdgeStyle;startArrow=classicThin;;endArrow=none;endFill=0;;exitX=1.003;exitY=0.59;exitPerimeter=0;entryX=1.003;entryY=0.5;entryPerimeter=0;startFill=1;" parent="1" source="NW8IP-rn-EwmyOUBby27-2" target="NW8IP-rn-EwmyOUBby27-23" edge="1">
            <mxGeometry width="100" height="100" relative="1" as="geometry">
              <Array as="points">
                <mxPoint x="2869.28" y="579.1" />
                <mxPoint x="2869.28" y="904.1" />
              </Array>
            </mxGeometry>
          </mxCell>
        </UserObject>
        <mxCell id="mbGC3ksJfDoY1-nT-V7R-101" value="preview request" style="edgeLabel;align=center;verticalAlign=middle;resizable=0;points=[];fontSize=10;labelBackgroundColor=none;" parent="NW8IP-rn-EwmyOUBby27-35" vertex="1" connectable="0">
          <mxGeometry x="0.585" y="5" relative="1" as="geometry">
            <mxPoint x="136" y="-15" as="offset" />
          </mxGeometry>
        </mxCell>
        <UserObject label="Tools available: Allan variance;&#xa;Multiple R-trees;&#xa;Clustering&#xa;" lucidchartObjectId="i03s2qZDI968" id="NW8IP-rn-EwmyOUBby27-37">
          <mxCell style="overflow=block;blockSpacing=1;strokeColor=none;fillColor=none;fontSize=13;spacing=0;verticalAlign=top;strokeWidth=1.5;" parent="1" vertex="1">
            <mxGeometry x="2231.28" y="676.1" width="120" height="90" as="geometry" />
          </mxCell>
        </UserObject>
        <UserObject label="" lucidchartObjectId="4fct.LJcRFPf" id="NW8IP-rn-EwmyOUBby27-38">
          <mxCell style="jettySize=18;whiteSpace=wrap;fontSize=13;strokeColor=#666666;strokeOpacity=100;dashed=1;fixDash=1;dashPattern=1 4;strokeWidth=1.5;rounded=1;arcSize=24;edgeStyle=orthogonalEdgeStyle;startArrow=none;;endArrow=block;endFill=1;;exitX=0.5;exitY=1.001;exitPerimeter=0;entryX=-0.003;entryY=0.749;entryPerimeter=0;" parent="1" source="NW8IP-rn-EwmyOUBby27-2" target="NW8IP-rn-EwmyOUBby27-5" edge="1">
            <mxGeometry width="100" height="100" relative="1" as="geometry">
              <Array as="points">
                <mxPoint x="2704.28" y="769.1" />
                <mxPoint x="2179.28" y="769.1" />
                <mxPoint x="2179.28" y="648.1" />
              </Array>
            </mxGeometry>
          </mxCell>
        </UserObject>
        <mxCell id="NW8IP-rn-EwmyOUBby27-39" value="Maybe?" style="text;resizable=0;labelBackgroundColor=#ffffff;align=center;verticalAlign=middle;fontColor=#000000;;fontSize=13;" parent="NW8IP-rn-EwmyOUBby27-38" vertex="1">
          <mxGeometry x="-0.05657230656643575" relative="1" as="geometry">
            <mxPoint x="5" y="-9" as="offset" />
          </mxGeometry>
        </mxCell>
        <mxCell id="GBbAQe1-XjNDRKQaChQB-22" value="" style="rounded=1;fillColor=#f9f7ed;labelBackgroundColor=#ffffff;arcSize=8;strokeColor=#36393d;" parent="1" vertex="1">
          <mxGeometry x="834" y="341.07" width="779" height="272.93" as="geometry" />
        </mxCell>
        <mxCell id="GBbAQe1-XjNDRKQaChQB-86" value="" style="edgeStyle=orthogonalEdgeStyle;rounded=0;orthogonalLoop=1;jettySize=auto;fontSize=12;startArrow=none;startFill=0;endArrow=blockThin;endFill=1;" parent="1" source="GBbAQe1-XjNDRKQaChQB-51" target="GBbAQe1-XjNDRKQaChQB-52" edge="1">
          <mxGeometry relative="1" as="geometry" />
        </mxCell>
        <mxCell id="GBbAQe1-XjNDRKQaChQB-88" value="control&#xa;command" style="edgeLabel;align=center;verticalAlign=middle;resizable=0;points=[];fontSize=10;labelBackgroundColor=none;" parent="GBbAQe1-XjNDRKQaChQB-86" vertex="1" connectable="0">
          <mxGeometry x="-0.2159" y="1" relative="1" as="geometry">
            <mxPoint x="4" y="-15" as="offset" />
          </mxGeometry>
        </mxCell>
        <mxCell id="GBbAQe1-XjNDRKQaChQB-51" value="Vehicle&#xa;Controller" style="rounded=1;align=center;verticalAlign=middle;fontSize=12;fontStyle=0;fillColor=#d5e8d4;strokeColor=#82b366;arcSize=10;" parent="1" vertex="1">
          <mxGeometry x="861.6700000000001" y="363.13" width="82.33" height="177.98" as="geometry" />
        </mxCell>
        <mxCell id="GBbAQe1-XjNDRKQaChQB-90" value="" style="edgeStyle=orthogonalEdgeStyle;rounded=0;orthogonalLoop=1;jettySize=auto;fontSize=12;fontColor=#000000;startArrow=none;startFill=0;endArrow=blockThin;endFill=1;" parent="1" source="GBbAQe1-XjNDRKQaChQB-52" target="GBbAQe1-XjNDRKQaChQB-89" edge="1">
          <mxGeometry relative="1" as="geometry">
            <Array as="points">
              <mxPoint x="1144" y="452" />
              <mxPoint x="1144" y="452" />
            </Array>
          </mxGeometry>
        </mxCell>
        <mxCell id="_u7RzBxuJXRDmLX1nk55-8" value="vehicle&#xa;states" style="edgeLabel;align=center;verticalAlign=middle;resizable=0;points=[];fontSize=10;fontColor=#000000;labelBackgroundColor=none;" parent="GBbAQe1-XjNDRKQaChQB-90" vertex="1" connectable="0">
          <mxGeometry x="0.6539" y="-1" relative="1" as="geometry">
            <mxPoint x="-42" y="-16" as="offset" />
          </mxGeometry>
        </mxCell>
        <mxCell id="GBbAQe1-XjNDRKQaChQB-52" value="Chassis Dynamics" style="rounded=1;align=center;verticalAlign=top;fontSize=12;fontStyle=0;" parent="1" vertex="1">
          <mxGeometry x="994.6500000000001" y="413.23999999999995" width="119.91" height="77.6" as="geometry" />
        </mxCell>
        <mxCell id="GBbAQe1-XjNDRKQaChQB-53" value="Friction &#xa;Estimator" style="rounded=1;align=center;verticalAlign=middle;fontSize=12;fontStyle=0;" parent="1" vertex="1">
          <mxGeometry x="1301" y="418.24" width="92.76" height="67.6" as="geometry" />
        </mxCell>
        <mxCell id="GBbAQe1-XjNDRKQaChQB-54" value="Road True Friction&#xa;and Geometry" style="shape=cylinder3;boundedLbl=1;backgroundOutline=1;size=5.040014648437477;labelBackgroundColor=none;fontSize=12;align=center;verticalAlign=middle;fillColor=#FFFFFF;" parent="1" vertex="1">
          <mxGeometry x="438.20000000000005" y="226" width="118.11" height="49.21" as="geometry" />
        </mxCell>
        <mxCell id="GBbAQe1-XjNDRKQaChQB-58" value="" style="edgeStyle=orthogonalEdgeStyle;rounded=0;orthogonalLoop=1;jettySize=auto;fontSize=9;endArrow=classicThin;endFill=1;exitX=1;exitY=0.5;exitDx=0;exitDy=0;" parent="1" source="sdquQk6Ne_uuqH1AtgiG-71" target="sdquQk6Ne_uuqH1AtgiG-79" edge="1">
          <mxGeometry relative="1" as="geometry">
            <mxPoint x="86.74000000000001" y="596.9862499999999" as="sourcePoint" />
            <mxPoint x="138" y="597.0029999999999" as="targetPoint" />
          </mxGeometry>
        </mxCell>
        <mxCell id="GBbAQe1-XjNDRKQaChQB-60" value="ENU" style="text;resizable=0;autosize=1;align=center;verticalAlign=middle;points=[];fillColor=none;strokeColor=none;rounded=0;fontSize=8;opacity=10;" parent="1" vertex="1">
          <mxGeometry x="243" y="608" width="30" height="20" as="geometry" />
        </mxCell>
        <mxCell id="GBbAQe1-XjNDRKQaChQB-61" value="Road Grid and &#xa;Friction Generator " style="rounded=1;labelBackgroundColor=none;fontSize=14;fontColor=#000000;align=center;fontStyle=0;fillColor=#E2E1E1;strokeColor=#517DA4;" parent="1" vertex="1">
          <mxGeometry x="119" y="214.66000000000003" width="137" height="71.9" as="geometry" />
        </mxCell>
        <mxCell id="GBbAQe1-XjNDRKQaChQB-66" value="" style="edgeStyle=orthogonalEdgeStyle;rounded=0;orthogonalLoop=1;jettySize=auto;fontSize=9;endArrow=classicThin;endFill=1;exitX=1;exitY=0.5;exitDx=0;exitDy=0;entryX=0;entryY=0.5;entryDx=0;entryDy=0;entryPerimeter=0;" parent="1" source="GBbAQe1-XjNDRKQaChQB-61" target="GBbAQe1-XjNDRKQaChQB-54" edge="1">
          <mxGeometry relative="1" as="geometry">
            <mxPoint x="-85.36999999999989" y="126.54624999999993" as="sourcePoint" />
            <mxPoint x="-39.74000000000001" y="126.54624999999993" as="targetPoint" />
          </mxGeometry>
        </mxCell>
        <mxCell id="GBbAQe1-XjNDRKQaChQB-67" value="" style="edgeStyle=orthogonalEdgeStyle;rounded=0;orthogonalLoop=1;jettySize=auto;fontSize=9;endArrow=classicThin;endFill=1;entryX=0.002;entryY=0.701;entryDx=0;entryDy=0;exitX=1;exitY=0.5;exitDx=0;exitDy=0;exitPerimeter=0;entryPerimeter=0;" parent="1" source="sdquQk6Ne_uuqH1AtgiG-59" target="GBbAQe1-XjNDRKQaChQB-61" edge="1">
          <mxGeometry relative="1" as="geometry">
            <mxPoint x="-18" y="496" as="sourcePoint" />
            <mxPoint x="290.98" y="524.095" as="targetPoint" />
            <Array as="points">
              <mxPoint x="42" y="587" />
              <mxPoint x="42" y="265" />
            </Array>
          </mxGeometry>
        </mxCell>
        <mxCell id="GBbAQe1-XjNDRKQaChQB-70" value="" style="edgeStyle=orthogonalEdgeStyle;rounded=0;orthogonalLoop=1;jettySize=auto;fontSize=9;endArrow=classicThin;endFill=1;entryX=0.003;entryY=0.101;entryDx=0;entryDy=0;entryPerimeter=0;" parent="1" source="sdquQk6Ne_uuqH1AtgiG-79" target="GBbAQe1-XjNDRKQaChQB-51" edge="1">
          <mxGeometry relative="1" as="geometry">
            <mxPoint x="729.22" y="402.2000000000001" as="sourcePoint" />
            <mxPoint x="805.2" y="402.205" as="targetPoint" />
            <Array as="points">
              <mxPoint x="656" y="587" />
              <mxPoint x="656" y="381" />
            </Array>
          </mxGeometry>
        </mxCell>
        <mxCell id="_u7RzBxuJXRDmLX1nk55-20" value="desired&#xa;trajectory 1" style="edgeLabel;align=left;verticalAlign=middle;resizable=0;points=[];fontSize=30;fontColor=#0000FF;labelBackgroundColor=none;" parent="GBbAQe1-XjNDRKQaChQB-70" vertex="1" connectable="0">
          <mxGeometry x="-0.2891" y="-1" relative="1" as="geometry">
            <mxPoint x="1" y="-172" as="offset" />
          </mxGeometry>
        </mxCell>
        <mxCell id="GBbAQe1-XjNDRKQaChQB-71" value="" style="edgeStyle=orthogonalEdgeStyle;rounded=0;orthogonalLoop=1;jettySize=auto;fontSize=9;endArrow=none;endFill=0;startArrow=classicThin;startFill=1;dashed=1;exitX=0.535;exitY=0.007;exitDx=0;exitDy=0;exitPerimeter=0;" parent="1" source="sdquQk6Ne_uuqH1AtgiG-79" edge="1">
          <mxGeometry relative="1" as="geometry">
            <mxPoint x="480" y="561.01" as="sourcePoint" />
            <mxPoint x="510.6300000000001" y="541.0000000000001" as="targetPoint" />
            <Array as="points">
              <mxPoint x="482" y="541.38" />
            </Array>
          </mxGeometry>
        </mxCell>
        <mxCell id="GBbAQe1-XjNDRKQaChQB-72" value="trajectory id" style="edgeLabel;align=center;verticalAlign=middle;resizable=0;points=[];fontSize=8;" parent="GBbAQe1-XjNDRKQaChQB-71" vertex="1" connectable="0">
          <mxGeometry x="0.6641" y="1" relative="1" as="geometry">
            <mxPoint x="-9" y="-8" as="offset" />
          </mxGeometry>
        </mxCell>
        <mxCell id="GBbAQe1-XjNDRKQaChQB-81" value="" style="edgeStyle=orthogonalEdgeStyle;rounded=0;orthogonalLoop=1;jettySize=auto;fontSize=9;endArrow=classicThin;endFill=1;exitX=1;exitY=0.5;exitDx=0;exitDy=0;" parent="1" source="GBbAQe1-XjNDRKQaChQB-83" target="sdquQk6Ne_uuqH1AtgiG-71" edge="1">
          <mxGeometry relative="1" as="geometry">
            <mxPoint x="185.35000000000002" y="502.3762499999999" as="sourcePoint" />
            <mxPoint x="163" y="587.3799999999999" as="targetPoint" />
          </mxGeometry>
        </mxCell>
        <mxCell id="GBbAQe1-XjNDRKQaChQB-82" value="RoadXML" style="edgeLabel;align=center;verticalAlign=middle;resizable=0;points=[];fontSize=10;" parent="GBbAQe1-XjNDRKQaChQB-81" vertex="1" connectable="0">
          <mxGeometry x="-0.1006" y="-2" relative="1" as="geometry">
            <mxPoint y="-17" as="offset" />
          </mxGeometry>
        </mxCell>
        <mxCell id="GBbAQe1-XjNDRKQaChQB-83" value="MATLAB" style="rounded=1;align=center;verticalAlign=middle;fontSize=12;fontStyle=0;strokeColor=#578EC0;fillColor=none;" parent="1" vertex="1">
          <mxGeometry x="67.34999999999991" y="569.3799999999999" width="74.14" height="35" as="geometry" />
        </mxCell>
        <mxCell id="GBbAQe1-XjNDRKQaChQB-84" value="" style="edgeStyle=orthogonalEdgeStyle;rounded=0;orthogonalLoop=1;jettySize=auto;fontSize=9;endArrow=classicThin;endFill=1;entryX=0;entryY=0.5;entryDx=0;entryDy=0;exitX=1;exitY=0.5;exitDx=0;exitDy=0;exitPerimeter=0;" parent="1" source="sdquQk6Ne_uuqH1AtgiG-59" target="GBbAQe1-XjNDRKQaChQB-83" edge="1">
          <mxGeometry relative="1" as="geometry">
            <mxPoint x="11.740000000000009" y="596.9862499999999" as="sourcePoint" />
            <mxPoint x="176" y="673.97" as="targetPoint" />
          </mxGeometry>
        </mxCell>
        <mxCell id="GBbAQe1-XjNDRKQaChQB-85" value="" style="edgeStyle=orthogonalEdgeStyle;rounded=0;orthogonalLoop=1;jettySize=auto;fontSize=9;endArrow=classicThin;endFill=1;exitX=1;exitY=0.5;exitDx=0;exitDy=0;exitPerimeter=0;entryX=0.499;entryY=-0.005;entryDx=0;entryDy=0;entryPerimeter=0;" parent="1" source="GBbAQe1-XjNDRKQaChQB-54" target="GBbAQe1-XjNDRKQaChQB-52" edge="1">
          <mxGeometry relative="1" as="geometry">
            <mxPoint x="664.74" y="660.4300000000001" as="sourcePoint" />
            <mxPoint x="1069" y="416" as="targetPoint" />
            <Array as="points">
              <mxPoint x="1054" y="251" />
              <mxPoint x="1054" y="413" />
            </Array>
          </mxGeometry>
        </mxCell>
        <mxCell id="_u7RzBxuJXRDmLX1nk55-7" value="texture true friction and road geometry" style="edgeLabel;align=center;verticalAlign=middle;resizable=0;points=[];fontSize=22;fontColor=#000000;labelBackgroundColor=none;" parent="GBbAQe1-XjNDRKQaChQB-85" vertex="1" connectable="0">
          <mxGeometry x="0.0179" y="1" relative="1" as="geometry">
            <mxPoint x="-60" y="-15" as="offset" />
          </mxGeometry>
        </mxCell>
        <mxCell id="GBbAQe1-XjNDRKQaChQB-91" value="" style="edgeStyle=orthogonalEdgeStyle;rounded=0;orthogonalLoop=1;jettySize=auto;fontSize=12;fontColor=#000000;startArrow=none;startFill=0;endArrow=blockThin;endFill=1;" parent="1" source="GBbAQe1-XjNDRKQaChQB-89" target="GBbAQe1-XjNDRKQaChQB-53" edge="1">
          <mxGeometry relative="1" as="geometry" />
        </mxCell>
        <mxCell id="GBbAQe1-XjNDRKQaChQB-89" value="Sensor" style="rounded=1;labelBackgroundColor=none;fontSize=12;fontColor=#000000;align=center;fontStyle=0;fillColor=#E2E1E1;strokeColor=#517DA4;" parent="1" vertex="1">
          <mxGeometry x="1194" y="435.62" width="71" height="33" as="geometry" />
        </mxCell>
        <mxCell id="GBbAQe1-XjNDRKQaChQB-94" value="" style="edgeStyle=orthogonalEdgeStyle;rounded=0;orthogonalLoop=1;jettySize=auto;fontSize=9;endArrow=blockThin;endFill=1;exitX=1.004;exitY=0.497;exitDx=0;exitDy=0;exitPerimeter=0;entryX=-0.013;entryY=0.325;entryDx=0;entryDy=0;entryPerimeter=0;" parent="1" source="GBbAQe1-XjNDRKQaChQB-53" target="mbGC3ksJfDoY1-nT-V7R-11" edge="1">
          <mxGeometry relative="1" as="geometry">
            <mxPoint x="1074.0000000000005" y="637.0850000000002" as="sourcePoint" />
            <mxPoint x="1404.585" y="664.7600000000001" as="targetPoint" />
          </mxGeometry>
        </mxCell>
        <mxCell id="_u7RzBxuJXRDmLX1nk55-2" value="" style="edgeStyle=orthogonalEdgeStyle;rounded=1;orthogonalLoop=1;jettySize=auto;fontSize=9;endArrow=none;endFill=0;exitX=-0.026;exitY=0.198;exitDx=0;exitDy=0;exitPerimeter=0;entryX=1.013;entryY=0.614;entryDx=0;entryDy=0;entryPerimeter=0;dashed=1;" parent="1" source="NW8IP-rn-EwmyOUBby27-24" target="NW8IP-rn-EwmyOUBby27-24" edge="1">
          <mxGeometry relative="1" as="geometry">
            <mxPoint x="1482.1351600000003" y="465.6808" as="sourcePoint" />
            <mxPoint x="1807.4800000000005" y="466.21000000000015" as="targetPoint" />
            <Array as="points">
              <mxPoint x="2070.21" y="311.1" />
              <mxPoint x="2070.21" y="469.1" />
            </Array>
          </mxGeometry>
        </mxCell>
        <mxCell id="_u7RzBxuJXRDmLX1nk55-4" value="" style="edgeStyle=orthogonalEdgeStyle;rounded=1;orthogonalLoop=1;jettySize=auto;fontSize=9;endArrow=none;endFill=0;entryX=1.005;entryY=0.086;entryDx=0;entryDy=0;entryPerimeter=0;dashed=1;exitX=-0.001;exitY=0.246;exitDx=0;exitDy=0;exitPerimeter=0;" parent="1" source="NW8IP-rn-EwmyOUBby27-4" target="NW8IP-rn-EwmyOUBby27-4" edge="1">
          <mxGeometry relative="1" as="geometry">
            <mxPoint x="1796" y="449" as="sourcePoint" />
            <mxPoint x="2092.8400000000006" y="479.41999999999996" as="targetPoint" />
            <Array as="points">
              <mxPoint x="1900" y="450" />
              <mxPoint x="1900" y="311" />
            </Array>
          </mxGeometry>
        </mxCell>
        <mxCell id="_u7RzBxuJXRDmLX1nk55-5" value="" style="edgeStyle=orthogonalEdgeStyle;rounded=1;orthogonalLoop=1;jettySize=auto;fontSize=9;endArrow=blockThin;endFill=1;entryX=0.198;entryY=1.006;entryDx=0;entryDy=0;entryPerimeter=0;strokeWidth=2;strokeColor=#0C7CBA;endSize=6;exitX=0;exitY=0.503;exitDx=0;exitDy=0;exitPerimeter=0;" parent="1" source="mbGC3ksJfDoY1-nT-V7R-10" target="GBbAQe1-XjNDRKQaChQB-51" edge="1">
          <mxGeometry relative="1" as="geometry">
            <mxPoint x="1699" y="745" as="sourcePoint" />
            <mxPoint x="1501.55" y="718.0100000000001" as="targetPoint" />
            <Array as="points">
              <mxPoint x="1460" y="519" />
              <mxPoint x="1460" y="606" />
              <mxPoint x="878" y="606" />
            </Array>
          </mxGeometry>
        </mxCell>
        <mxCell id="EPciwlCAxLOxW23dukJo-64" value="friction preview" style="edgeLabel;align=center;verticalAlign=middle;resizable=0;points=[];fontSize=10;labelBackgroundColor=none;" parent="_u7RzBxuJXRDmLX1nk55-5" vertex="1" connectable="0">
          <mxGeometry x="-0.7154" y="2" relative="1" as="geometry">
            <mxPoint x="-211" y="-2" as="offset" />
          </mxGeometry>
        </mxCell>
        <mxCell id="_u7RzBxuJXRDmLX1nk55-9" value="" style="edgeStyle=orthogonalEdgeStyle;rounded=0;orthogonalLoop=1;jettySize=auto;fontSize=9;endArrow=none;endFill=0;startArrow=classicThin;startFill=1;dashed=1;exitX=0.523;exitY=0;exitDx=0;exitDy=0;exitPerimeter=0;entryX=1.006;entryY=0.499;entryDx=0;entryDy=0;entryPerimeter=0;" parent="1" source="GBbAQe1-XjNDRKQaChQB-54" target="GBbAQe1-XjNDRKQaChQB-52" edge="1">
          <mxGeometry relative="1" as="geometry">
            <mxPoint x="688.0259" y="226.0044874999998" as="sourcePoint" />
            <mxPoint x="1134" y="456" as="targetPoint" />
            <Array as="points">
              <mxPoint x="500" y="204" />
              <mxPoint x="1164" y="204" />
              <mxPoint x="1164" y="452" />
            </Array>
          </mxGeometry>
        </mxCell>
        <mxCell id="_u7RzBxuJXRDmLX1nk55-12" value="road information query" style="edgeLabel;align=center;verticalAlign=middle;resizable=0;points=[];fontSize=10;fontColor=#000000;labelBackgroundColor=none;" parent="_u7RzBxuJXRDmLX1nk55-9" vertex="1" connectable="0">
          <mxGeometry x="-0.7749" y="-2" relative="1" as="geometry">
            <mxPoint x="166" y="-10" as="offset" />
          </mxGeometry>
        </mxCell>
        <mxCell id="_u7RzBxuJXRDmLX1nk55-13" value="" style="edgeStyle=orthogonalEdgeStyle;rounded=1;orthogonalLoop=1;jettySize=auto;fontSize=12;fontColor=#000000;startArrow=none;startFill=0;endArrow=blockThin;endFill=1;entryX=0.593;entryY=1.003;entryDx=0;entryDy=0;entryPerimeter=0;exitX=1;exitY=0.503;exitDx=0;exitDy=0;exitPerimeter=0;" parent="1" source="GBbAQe1-XjNDRKQaChQB-53" target="GBbAQe1-XjNDRKQaChQB-51" edge="1">
          <mxGeometry relative="1" as="geometry">
            <mxPoint x="1395" y="450" as="sourcePoint" />
            <mxPoint x="1311" y="462" as="targetPoint" />
            <Array as="points">
              <mxPoint x="1414" y="452" />
              <mxPoint x="1414" y="576" />
              <mxPoint x="910" y="576" />
              <mxPoint x="910" y="542" />
            </Array>
          </mxGeometry>
        </mxCell>
        <mxCell id="mbGC3ksJfDoY1-nT-V7R-14" value="local friction estimation" style="edgeLabel;align=center;verticalAlign=middle;resizable=0;points=[];fontSize=10;labelBackgroundColor=none;" parent="_u7RzBxuJXRDmLX1nk55-13" vertex="1" connectable="0">
          <mxGeometry x="-0.1761" relative="1" as="geometry">
            <mxPoint x="-9" y="-8" as="offset" />
          </mxGeometry>
        </mxCell>
        <mxCell id="_u7RzBxuJXRDmLX1nk55-16" value="" style="edgeStyle=orthogonalEdgeStyle;rounded=1;orthogonalLoop=1;jettySize=auto;fontSize=9;endArrow=none;endFill=0;exitX=-0.002;exitY=0.324;exitDx=0;exitDy=0;exitPerimeter=0;entryX=1.011;entryY=0.612;entryDx=0;entryDy=0;entryPerimeter=0;dashed=1;strokeColor=#0C7CBA;strokeWidth=2;" parent="1" source="NW8IP-rn-EwmyOUBby27-4" target="NW8IP-rn-EwmyOUBby27-4" edge="1">
          <mxGeometry relative="1" as="geometry">
            <mxPoint x="1569.8500000000004" y="966.2800000000001" as="sourcePoint" />
            <mxPoint x="1690.5700000000002" y="820.12" as="targetPoint" />
            <Array as="points">
              <mxPoint x="1856" y="518" />
              <mxPoint x="1856" y="769" />
              <mxPoint x="1918" y="769" />
            </Array>
          </mxGeometry>
        </mxCell>
        <mxCell id="_u7RzBxuJXRDmLX1nk55-17" value="Vehicle 1" style="text;resizable=0;autosize=1;align=center;verticalAlign=middle;points=[];fillColor=none;strokeColor=none;rounded=0;labelBackgroundColor=none;fontSize=20;fontColor=#0000FF;fontStyle=1" parent="1" vertex="1">
          <mxGeometry x="832.6800000000001" y="306.00000000000006" width="100" height="30" as="geometry" />
        </mxCell>
        <mxCell id="_u7RzBxuJXRDmLX1nk55-18" value="" style="edgeStyle=orthogonalEdgeStyle;rounded=1;orthogonalLoop=1;jettySize=auto;fontSize=12;fontColor=#000000;startArrow=none;startFill=0;endArrow=blockThin;endFill=1;entryX=0.799;entryY=0.999;entryDx=0;entryDy=0;entryPerimeter=0;exitX=1.005;exitY=0.499;exitDx=0;exitDy=0;exitPerimeter=0;" parent="1" source="GBbAQe1-XjNDRKQaChQB-52" target="GBbAQe1-XjNDRKQaChQB-51" edge="1">
          <mxGeometry relative="1" as="geometry">
            <mxPoint x="1124" y="446" as="sourcePoint" />
            <mxPoint x="912.5880099999999" y="551.6439399999999" as="targetPoint" />
            <Array as="points">
              <mxPoint x="1144" y="452" />
              <mxPoint x="1144" y="566" />
              <mxPoint x="928" y="566" />
            </Array>
          </mxGeometry>
        </mxCell>
        <mxCell id="vq3_1TxmgYI9ATCKg7qW-173" value="" style="edgeStyle=orthogonalEdgeStyle;rounded=1;orthogonalLoop=1;jettySize=auto;fontSize=9;endArrow=none;endFill=0;exitX=-0.001;exitY=0.113;exitDx=0;exitDy=0;exitPerimeter=0;entryX=1.01;entryY=0.504;entryDx=0;entryDy=0;entryPerimeter=0;dashed=1;strokeColor=#0C7CBA;" parent="1" source="NW8IP-rn-EwmyOUBby27-23" target="NW8IP-rn-EwmyOUBby27-23" edge="1">
          <mxGeometry relative="1" as="geometry">
            <mxPoint x="1804.2400000000002" y="620.2" as="sourcePoint" />
            <mxPoint x="1925.44" y="755.05" as="targetPoint" />
            <Array as="points">
              <mxPoint x="2050.21" y="747" />
              <mxPoint x="2050.21" y="905" />
            </Array>
          </mxGeometry>
        </mxCell>
        <mxCell id="vq3_1TxmgYI9ATCKg7qW-174" value="" style="edgeStyle=orthogonalEdgeStyle;rounded=1;orthogonalLoop=1;jettySize=auto;fontSize=9;endArrow=none;endFill=0;entryX=0.991;entryY=0.612;entryDx=0;entryDy=0;entryPerimeter=0;dashed=1;strokeColor=#0C7CBA;strokeWidth=2;" parent="1" target="NW8IP-rn-EwmyOUBby27-23" edge="1">
          <mxGeometry relative="1" as="geometry">
            <mxPoint x="1959.21" y="769" as="sourcePoint" />
            <mxPoint x="2092.48" y="915.2199999999998" as="targetPoint" />
            <Array as="points">
              <mxPoint x="1959.21" y="769" />
              <mxPoint x="2021.21" y="769" />
              <mxPoint x="2021.21" y="949" />
            </Array>
          </mxGeometry>
        </mxCell>
        <mxCell id="EPciwlCAxLOxW23dukJo-4" value="" style="edgeStyle=orthogonalEdgeStyle;rounded=1;orthogonalLoop=1;jettySize=auto;fontSize=9;endArrow=blockThin;endFill=1;entryX=0.004;entryY=0.698;entryDx=0;entryDy=0;entryPerimeter=0;strokeWidth=1;exitX=0.397;exitY=1;exitDx=0;exitDy=0;exitPerimeter=0;strokeColor=#0C7CBA;" parent="1" source="GBbAQe1-XjNDRKQaChQB-51" target="mbGC3ksJfDoY1-nT-V7R-11" edge="1">
          <mxGeometry relative="1" as="geometry">
            <mxPoint x="1600.0700000000002" y="616.0000000000002" as="sourcePoint" />
            <mxPoint x="887.97134" y="552.1778800000002" as="targetPoint" />
            <Array as="points">
              <mxPoint x="894" y="591" />
              <mxPoint x="1440" y="591" />
              <mxPoint x="1440" y="466" />
            </Array>
          </mxGeometry>
        </mxCell>
        <mxCell id="EPciwlCAxLOxW23dukJo-63" value="preview request" style="edgeLabel;align=center;verticalAlign=middle;resizable=0;points=[];fontSize=10;labelBackgroundColor=none;" parent="EPciwlCAxLOxW23dukJo-4" vertex="1" connectable="0">
          <mxGeometry x="-0.2364" y="4" relative="1" as="geometry">
            <mxPoint x="116" y="-3" as="offset" />
          </mxGeometry>
        </mxCell>
        <mxCell id="EPciwlCAxLOxW23dukJo-6" value="" style="edgeStyle=orthogonalEdgeStyle;rounded=1;orthogonalLoop=1;jettySize=auto;fontSize=9;endArrow=none;endFill=0;exitX=0.001;exitY=0.29;exitDx=0;exitDy=0;exitPerimeter=0;entryX=0.997;entryY=0.588;entryDx=0;entryDy=0;entryPerimeter=0;dashed=1;strokeColor=#0C7CBA;" parent="1" source="NW8IP-rn-EwmyOUBby27-4" target="NW8IP-rn-EwmyOUBby27-4" edge="1">
          <mxGeometry relative="1" as="geometry">
            <mxPoint x="1804.2400000000002" y="620.1999999999998" as="sourcePoint" />
            <mxPoint x="1925.44" y="755.05" as="targetPoint" />
            <Array as="points">
              <mxPoint x="1890" y="488" />
              <mxPoint x="1890" y="748" />
            </Array>
          </mxGeometry>
        </mxCell>
        <mxCell id="EPciwlCAxLOxW23dukJo-21" value="" style="shape=image;verticalAlign=top;verticalLabelPosition=bottom;labelBackgroundColor=#ffffff;imageAspect=0;aspect=fixed;image=https://cdn1.iconfinder.com/data/icons/jumpicon-basic-ui-glyph-1/32/-_Dot-More-Vertical-Menu-128.png;" parent="1" vertex="1">
          <mxGeometry x="1188.8500000000001" y="682.0999999999999" width="69.93" height="69.93" as="geometry" />
        </mxCell>
        <mxCell id="EPciwlCAxLOxW23dukJo-37" value="Traffic scenarios and road contexts (Physical systems: environment)" style="text;resizable=0;autosize=1;align=center;verticalAlign=middle;points=[];fillColor=none;strokeColor=none;rounded=0;labelBackgroundColor=none;fontSize=28;fontColor=#0000FF;fontStyle=1" parent="1" vertex="1">
          <mxGeometry x="-413.5" y="113.00000000000006" width="926" height="37" as="geometry" />
        </mxCell>
        <mxCell id="EPciwlCAxLOxW23dukJo-39" value="Vehicle i moving on road context j (Physical systems: vehicle)" style="text;resizable=0;autosize=1;align=center;verticalAlign=middle;points=[];fillColor=none;strokeColor=none;rounded=0;labelBackgroundColor=none;fontSize=28;fontColor=#0000FF;fontStyle=1" parent="1" vertex="1">
          <mxGeometry x="766.5" y="115.00000000000006" width="835" height="37" as="geometry" />
        </mxCell>
        <mxCell id="EPciwlCAxLOxW23dukJo-46" value="Database as a sensor (Cyber systems)" style="text;fontSize=28;align=center;" parent="1" vertex="1">
          <mxGeometry x="2126.28" y="113" width="510" height="50" as="geometry" />
        </mxCell>
        <mxCell id="EPciwlCAxLOxW23dukJo-52" value="" style="shape=image;verticalAlign=top;verticalLabelPosition=bottom;labelBackgroundColor=#ffffff;imageAspect=0;aspect=fixed;image=https://cdn4.iconfinder.com/data/icons/the-weather-is-nice-today/64/weather_3-128.png;dashed=1;fontSize=28;" parent="1" vertex="1">
          <mxGeometry x="736" y="441.1" width="84" height="84" as="geometry" />
        </mxCell>
        <mxCell id="EPciwlCAxLOxW23dukJo-54" value="" style="shape=image;verticalAlign=top;verticalLabelPosition=bottom;labelBackgroundColor=#ffffff;imageAspect=0;aspect=fixed;image=https://cdn1.iconfinder.com/data/icons/jumpicon-basic-ui-glyph-1/32/-_Dot-More-Vertical-Menu-128.png;" parent="1" vertex="1">
          <mxGeometry x="1916.2799999999997" y="400" width="50" height="50" as="geometry" />
        </mxCell>
        <UserObject label="" lucidchartObjectId="rx3sOJRHICS-" id="EPciwlCAxLOxW23dukJo-56">
          <mxCell style="jettySize=18;whiteSpace=wrap;fontSize=13;strokeOpacity=100;strokeWidth=0.8;rounded=1;arcSize=24;edgeStyle=orthogonalEdgeStyle;startArrow=none;;endArrow=block;endFill=1;;" parent="1" edge="1">
            <mxGeometry width="100" height="100" relative="1" as="geometry">
              <Array as="points" />
              <mxPoint x="1915.7799999999997" y="562" as="sourcePoint" />
              <mxPoint x="1960.7800000000002" y="562" as="targetPoint" />
            </mxGeometry>
          </mxCell>
        </UserObject>
        <mxCell id="EPciwlCAxLOxW23dukJo-57" value="N" style="edgeLabel;align=center;verticalAlign=middle;resizable=0;points=[];fontSize=28;labelBackgroundColor=none;" parent="EPciwlCAxLOxW23dukJo-56" vertex="1" connectable="0">
          <mxGeometry x="0.2571" y="-1" relative="1" as="geometry">
            <mxPoint x="-10" y="-22" as="offset" />
          </mxGeometry>
        </mxCell>
        <mxCell id="EPciwlCAxLOxW23dukJo-60" value="" style="shape=image;verticalAlign=top;verticalLabelPosition=bottom;labelBackgroundColor=#ffffff;imageAspect=0;aspect=fixed;image=https://cdn1.iconfinder.com/data/icons/jumpicon-basic-ui-glyph-1/32/-_Dot-More-Vertical-Menu-128.png;" parent="1" vertex="1">
          <mxGeometry x="1911.2799999999997" y="860" width="50" height="50" as="geometry" />
        </mxCell>
        <mxCell id="EPciwlCAxLOxW23dukJo-61" value="1" style="edgeLabel;align=center;verticalAlign=middle;resizable=0;points=[];fontSize=28;labelBackgroundColor=none;" parent="1" vertex="1" connectable="0">
          <mxGeometry x="1936.2752941176468" y="721.1000000000003" as="geometry" />
        </mxCell>
        <mxCell id="EPciwlCAxLOxW23dukJo-62" value="N" style="edgeLabel;align=center;verticalAlign=middle;resizable=0;points=[];fontSize=28;labelBackgroundColor=none;" parent="1" vertex="1" connectable="0">
          <mxGeometry x="1934.2752941176464" y="536.1" as="geometry">
            <mxPoint x="4" y="451" as="offset" />
          </mxGeometry>
        </mxCell>
        <UserObject label="" lucidchartObjectId="pE3sSuoxfeZe" id="EPciwlCAxLOxW23dukJo-69">
          <mxCell style="jettySize=18;whiteSpace=wrap;fontSize=13;strokeColor=#0c7cba;strokeOpacity=100;strokeWidth=2;rounded=1;arcSize=24;startArrow=openThin;;endArrow=none;endFill=0;;exitX=1.003;exitY=0.612;exitPerimeter=0;entryX=-0.003;entryY=0.167;entryPerimeter=0;startFill=0;" parent="1" edge="1">
            <mxGeometry width="100" height="100" relative="1" as="geometry">
              <mxPoint x="1916.9599999999996" y="1051.75" as="sourcePoint" />
              <mxPoint x="1961.2400000000002" y="1051.9450000000002" as="targetPoint" />
            </mxGeometry>
          </mxCell>
        </UserObject>
        <UserObject label="" lucidchartObjectId="sE3sgkFL4puL" id="EPciwlCAxLOxW23dukJo-70">
          <mxCell style="jettySize=18;whiteSpace=wrap;fontSize=13;strokeOpacity=100;strokeWidth=1;rounded=1;arcSize=24;startArrow=blockThin;;endArrow=none;endFill=0;;exitX=-0.003;exitY=0.113;exitPerimeter=0;strokeColor=#0C7CBA;startFill=1;entryX=1.001;entryY=0.587;entryDx=0;entryDy=0;entryPerimeter=0;" parent="1" edge="1">
            <mxGeometry width="100" height="100" relative="1" as="geometry">
              <mxPoint x="1961.2400000000002" y="1030.075" as="sourcePoint" />
              <mxPoint x="1916.7199999999998" y="1030" as="targetPoint" />
            </mxGeometry>
          </mxCell>
        </UserObject>
        <mxCell id="EPciwlCAxLOxW23dukJo-71" value="" style="edgeStyle=orthogonalEdgeStyle;rounded=1;orthogonalLoop=1;jettySize=auto;fontSize=9;endArrow=none;endFill=0;exitX=-0.005;exitY=0.857;exitDx=0;exitDy=0;exitPerimeter=0;entryX=0.994;entryY=0.913;entryDx=0;entryDy=0;entryPerimeter=0;dashed=1;strokeColor=#0C7CBA;" parent="1" source="NW8IP-rn-EwmyOUBby27-4" target="NW8IP-rn-EwmyOUBby27-4" edge="1">
          <mxGeometry relative="1" as="geometry">
            <mxPoint x="1804.0000000000005" y="542.7700000000002" as="sourcePoint" />
            <mxPoint x="1925.920000000001" y="757.6600000000001" as="targetPoint" />
            <Array as="points">
              <mxPoint x="1856" y="982" />
              <mxPoint x="1856" y="1030" />
            </Array>
          </mxGeometry>
        </mxCell>
        <mxCell id="EPciwlCAxLOxW23dukJo-72" value="" style="edgeStyle=orthogonalEdgeStyle;rounded=1;orthogonalLoop=1;jettySize=auto;fontSize=9;endArrow=none;endFill=0;entryX=1;entryY=0.938;entryDx=0;entryDy=0;entryPerimeter=0;dashed=1;strokeColor=#0C7CBA;strokeWidth=2;exitX=-0.002;exitY=0.893;exitDx=0;exitDy=0;exitPerimeter=0;" parent="1" source="NW8IP-rn-EwmyOUBby27-4" target="NW8IP-rn-EwmyOUBby27-4" edge="1">
          <mxGeometry relative="1" as="geometry">
            <mxPoint x="1800.21" y="1090" as="sourcePoint" />
            <mxPoint x="2087.2700000000004" y="1157.3200000000002" as="targetPoint" />
            <Array as="points">
              <mxPoint x="1833" y="1013" />
              <mxPoint x="1833" y="1052" />
            </Array>
          </mxGeometry>
        </mxCell>
        <mxCell id="EPciwlCAxLOxW23dukJo-73" value="" style="edgeStyle=orthogonalEdgeStyle;rounded=1;orthogonalLoop=1;jettySize=auto;fontSize=9;endArrow=none;endFill=0;exitX=-0.008;exitY=0.816;exitDx=0;exitDy=0;exitPerimeter=0;entryX=0.998;entryY=0.375;entryDx=0;entryDy=0;entryPerimeter=0;dashed=1;" parent="1" source="NW8IP-rn-EwmyOUBby27-4" target="NW8IP-rn-EwmyOUBby27-4" edge="1">
          <mxGeometry relative="1" as="geometry">
            <mxPoint x="1806.1599999999999" y="467.0799999999999" as="sourcePoint" />
            <mxPoint x="1926.88" y="320.91999999999985" as="targetPoint" />
            <Array as="points">
              <mxPoint x="1830" y="946" />
              <mxPoint x="1830" y="562" />
            </Array>
          </mxGeometry>
        </mxCell>
        <UserObject label="" lucidchartObjectId="4fct.LJcRFPf" id="EPciwlCAxLOxW23dukJo-118">
          <mxCell style="html=1;jettySize=18;whiteSpace=wrap;fontSize=13;strokeColor=#666666;strokeOpacity=100;dashed=1;fixDash=1;dashPattern=1 4;strokeWidth=1.5;rounded=1;arcSize=24;edgeStyle=orthogonalEdgeStyle;startArrow=none;;endArrow=block;endFill=1;;exitX=0.5;exitY=1.001;exitPerimeter=0;entryX=-0.003;entryY=0.749;entryPerimeter=0;" parent="1" edge="1">
            <mxGeometry width="100" height="100" relative="1" as="geometry">
              <Array as="points">
                <mxPoint x="2096.33" y="1958" />
                <mxPoint x="1571.3300000000002" y="1958" />
                <mxPoint x="1571.3300000000002" y="1837" />
              </Array>
              <mxPoint x="2088.33" y="1871.2510000000002" as="sourcePoint" />
            </mxGeometry>
          </mxCell>
        </UserObject>
        <mxCell id="EPciwlCAxLOxW23dukJo-119" value="Maybe?" style="text;html=1;resizable=0;labelBackgroundColor=#ffffff;align=center;verticalAlign=middle;fontColor=#000000;;fontSize=13;" parent="EPciwlCAxLOxW23dukJo-118" vertex="1">
          <mxGeometry x="-0.05657230656643575" relative="1" as="geometry">
            <mxPoint y="-45.34100000000001" as="offset" />
          </mxGeometry>
        </mxCell>
        <mxCell id="mbGC3ksJfDoY1-nT-V7R-4" value="" style="shape=image;verticalAlign=top;verticalLabelPosition=bottom;labelBackgroundColor=#ffffff;imageAspect=0;aspect=fixed;image=https://cdn3.iconfinder.com/data/icons/tiny-weather-1/512/snow-cloud-128.png;" parent="1" vertex="1">
          <mxGeometry x="731" y="932" width="99" height="99" as="geometry" />
        </mxCell>
        <UserObject label="DB &#xa;Communication&#xa; Interface" lucidchartObjectId="_q3sdJaIwXV-" id="mbGC3ksJfDoY1-nT-V7R-9">
          <mxCell style="overflow=block;blockSpacing=1;;fontSize=12;align=center;spacing=3.8;strokeOpacity=100;fillOpacity=27;strokeWidth=0.8;verticalAlign=top;rounded=1;fillColor=#bac8d3;strokeColor=#23445d;" parent="1" vertex="1">
            <mxGeometry x="1470" y="389" width="99" height="166" as="geometry" />
          </mxCell>
        </UserObject>
        <mxCell id="mbGC3ksJfDoY1-nT-V7R-10" value="Receive" style="rounded=1;align=center;verticalAlign=top;fontSize=10;fontStyle=0;fillColor=#dae8fc;strokeColor=#6c8ebf;" parent="1" vertex="1">
          <mxGeometry x="1484.07" y="499" width="70.87" height="39.37" as="geometry" />
        </mxCell>
        <mxCell id="mbGC3ksJfDoY1-nT-V7R-11" value="Transmit" style="rounded=1;align=center;verticalAlign=top;fontSize=10;fontStyle=0;fillColor=#dae8fc;strokeColor=#6c8ebf;" parent="1" vertex="1">
          <mxGeometry x="1484.07" y="438.62" width="70.87" height="39.37" as="geometry" />
        </mxCell>
        <mxCell id="mbGC3ksJfDoY1-nT-V7R-12" value="" style="edgeStyle=orthogonalEdgeStyle;rounded=1;orthogonalLoop=1;jettySize=auto;fontSize=9;endArrow=blockThin;endFill=1;entryX=0;entryY=0.29;entryDx=0;entryDy=0;entryPerimeter=0;strokeWidth=1;exitX=1;exitY=0.735;exitDx=0;exitDy=0;exitPerimeter=0;strokeColor=#0C7CBA;" parent="1" source="mbGC3ksJfDoY1-nT-V7R-11" target="NW8IP-rn-EwmyOUBby27-4" edge="1">
          <mxGeometry relative="1" as="geometry">
            <mxPoint x="1239.5530099999999" y="588.1495800000001" as="sourcePoint" />
            <mxPoint x="1781.0039199999997" y="530.2911999999998" as="targetPoint" />
            <Array as="points">
              <mxPoint x="1636" y="468" />
              <mxPoint x="1636" y="488" />
            </Array>
          </mxGeometry>
        </mxCell>
        <mxCell id="mbGC3ksJfDoY1-nT-V7R-13" value="preview request" style="edgeLabel;align=center;verticalAlign=middle;resizable=0;points=[];fontSize=10;labelBackgroundColor=none;" parent="mbGC3ksJfDoY1-nT-V7R-12" vertex="1" connectable="0">
          <mxGeometry x="-0.2364" y="4" relative="1" as="geometry">
            <mxPoint x="44" y="-6" as="offset" />
          </mxGeometry>
        </mxCell>
        <mxCell id="mbGC3ksJfDoY1-nT-V7R-18" value="" style="edgeStyle=orthogonalEdgeStyle;rounded=1;orthogonalLoop=1;jettySize=auto;fontSize=9;endArrow=blockThin;endFill=1;entryX=1;entryY=0.505;entryDx=0;entryDy=0;entryPerimeter=0;strokeWidth=2;strokeColor=#0C7CBA;endSize=6;exitX=0.007;exitY=0.324;exitDx=0;exitDy=0;exitPerimeter=0;" parent="1" source="NW8IP-rn-EwmyOUBby27-4" target="mbGC3ksJfDoY1-nT-V7R-10" edge="1">
          <mxGeometry relative="1" as="geometry">
            <mxPoint x="1663.0999999999997" y="585.00183" as="sourcePoint" />
            <mxPoint x="1057.0013400000005" y="615.26788" as="targetPoint" />
            <Array as="points">
              <mxPoint x="1676" y="518" />
            </Array>
          </mxGeometry>
        </mxCell>
        <mxCell id="mbGC3ksJfDoY1-nT-V7R-19" value="friction preview" style="edgeLabel;align=center;verticalAlign=middle;resizable=0;points=[];fontSize=10;labelBackgroundColor=none;" parent="mbGC3ksJfDoY1-nT-V7R-18" vertex="1" connectable="0">
          <mxGeometry x="-0.7154" y="2" relative="1" as="geometry">
            <mxPoint x="-79" y="-9" as="offset" />
          </mxGeometry>
        </mxCell>
        <mxCell id="mbGC3ksJfDoY1-nT-V7R-20" value="" style="edgeStyle=orthogonalEdgeStyle;rounded=0;orthogonalLoop=1;jettySize=auto;fontSize=9;endArrow=blockThin;endFill=1;exitX=0.996;exitY=0.282;exitDx=0;exitDy=0;exitPerimeter=0;entryX=-0.001;entryY=0.246;entryDx=0;entryDy=0;entryPerimeter=0;" parent="1" source="mbGC3ksJfDoY1-nT-V7R-11" target="NW8IP-rn-EwmyOUBby27-4" edge="1">
          <mxGeometry relative="1" as="geometry">
            <mxPoint x="1643.9810400000001" y="446.44720000000007" as="sourcePoint" />
            <mxPoint x="1732.9986899999994" y="446.1" as="targetPoint" />
          </mxGeometry>
        </mxCell>
        <mxCell id="mbGC3ksJfDoY1-nT-V7R-93" value="local friction estimation" style="edgeLabel;align=center;verticalAlign=middle;resizable=0;points=[];fontSize=10;labelBackgroundColor=none;" parent="mbGC3ksJfDoY1-nT-V7R-20" vertex="1" connectable="0">
          <mxGeometry x="-0.1933" y="-3" relative="1" as="geometry">
            <mxPoint x="22" y="-12" as="offset" />
          </mxGeometry>
        </mxCell>
        <mxCell id="mbGC3ksJfDoY1-nT-V7R-67" value="" style="rounded=1;fillColor=#f9f7ed;labelBackgroundColor=#ffffff;arcSize=8;strokeColor=#36393d;" parent="1" vertex="1">
          <mxGeometry x="834.3199999999997" y="836.0700000000002" width="779" height="272.93" as="geometry" />
        </mxCell>
        <mxCell id="mbGC3ksJfDoY1-nT-V7R-68" value="" style="edgeStyle=orthogonalEdgeStyle;rounded=0;orthogonalLoop=1;jettySize=auto;fontSize=12;startArrow=none;startFill=0;endArrow=blockThin;endFill=1;" parent="1" source="mbGC3ksJfDoY1-nT-V7R-70" target="mbGC3ksJfDoY1-nT-V7R-73" edge="1">
          <mxGeometry relative="1" as="geometry" />
        </mxCell>
        <mxCell id="mbGC3ksJfDoY1-nT-V7R-69" value="control&#xa;command" style="edgeLabel;align=center;verticalAlign=middle;resizable=0;points=[];fontSize=10;labelBackgroundColor=none;" parent="mbGC3ksJfDoY1-nT-V7R-68" vertex="1" connectable="0">
          <mxGeometry x="-0.2159" y="1" relative="1" as="geometry">
            <mxPoint x="4" y="-15" as="offset" />
          </mxGeometry>
        </mxCell>
        <mxCell id="mbGC3ksJfDoY1-nT-V7R-70" value="Vehicle&#xa;Controller" style="rounded=1;align=center;verticalAlign=middle;fontSize=12;fontStyle=0;fillColor=#d5e8d4;strokeColor=#82b366;arcSize=10;" parent="1" vertex="1">
          <mxGeometry x="861.9899999999998" y="858.1300000000001" width="82.33" height="177.98" as="geometry" />
        </mxCell>
        <mxCell id="mbGC3ksJfDoY1-nT-V7R-71" value="" style="edgeStyle=orthogonalEdgeStyle;rounded=0;orthogonalLoop=1;jettySize=auto;fontSize=12;fontColor=#000000;startArrow=none;startFill=0;endArrow=blockThin;endFill=1;" parent="1" source="mbGC3ksJfDoY1-nT-V7R-73" target="mbGC3ksJfDoY1-nT-V7R-76" edge="1">
          <mxGeometry relative="1" as="geometry">
            <Array as="points">
              <mxPoint x="1144.3199999999997" y="947" />
              <mxPoint x="1144.3199999999997" y="947" />
            </Array>
          </mxGeometry>
        </mxCell>
        <mxCell id="mbGC3ksJfDoY1-nT-V7R-72" value="vehicle&#xa;states" style="edgeLabel;align=center;verticalAlign=middle;resizable=0;points=[];fontSize=10;fontColor=#000000;labelBackgroundColor=none;" parent="mbGC3ksJfDoY1-nT-V7R-71" vertex="1" connectable="0">
          <mxGeometry x="0.6539" y="-1" relative="1" as="geometry">
            <mxPoint x="-42" y="-16" as="offset" />
          </mxGeometry>
        </mxCell>
        <mxCell id="mbGC3ksJfDoY1-nT-V7R-73" value="Chassis Dynamics" style="rounded=1;align=center;verticalAlign=top;fontSize=12;fontStyle=0;" parent="1" vertex="1">
          <mxGeometry x="994.9700000000003" y="908.2400000000002" width="119.91" height="77.6" as="geometry" />
        </mxCell>
        <mxCell id="mbGC3ksJfDoY1-nT-V7R-74" value="Friction &#xa;Estimator" style="rounded=1;align=center;verticalAlign=middle;fontSize=12;fontStyle=0;" parent="1" vertex="1">
          <mxGeometry x="1301.3199999999997" y="913.2400000000002" width="92.76" height="67.6" as="geometry" />
        </mxCell>
        <mxCell id="mbGC3ksJfDoY1-nT-V7R-75" value="" style="edgeStyle=orthogonalEdgeStyle;rounded=0;orthogonalLoop=1;jettySize=auto;fontSize=12;fontColor=#000000;startArrow=none;startFill=0;endArrow=blockThin;endFill=1;" parent="1" source="mbGC3ksJfDoY1-nT-V7R-76" target="mbGC3ksJfDoY1-nT-V7R-74" edge="1">
          <mxGeometry relative="1" as="geometry" />
        </mxCell>
        <mxCell id="mbGC3ksJfDoY1-nT-V7R-76" value="Sensor" style="rounded=1;labelBackgroundColor=none;fontSize=12;fontColor=#000000;align=center;fontStyle=0;fillColor=#E2E1E1;strokeColor=#517DA4;" parent="1" vertex="1">
          <mxGeometry x="1194.3199999999997" y="930.6200000000001" width="71" height="33" as="geometry" />
        </mxCell>
        <mxCell id="mbGC3ksJfDoY1-nT-V7R-77" value="" style="edgeStyle=orthogonalEdgeStyle;rounded=0;orthogonalLoop=1;jettySize=auto;fontSize=9;endArrow=blockThin;endFill=1;exitX=1.004;exitY=0.497;exitDx=0;exitDy=0;exitPerimeter=0;entryX=-0.013;entryY=0.325;entryDx=0;entryDy=0;entryPerimeter=0;" parent="1" source="mbGC3ksJfDoY1-nT-V7R-74" target="mbGC3ksJfDoY1-nT-V7R-89" edge="1">
          <mxGeometry relative="1" as="geometry">
            <mxPoint x="1074.3200000000006" y="1132.085" as="sourcePoint" />
            <mxPoint x="1404.9049999999997" y="1159.7600000000002" as="targetPoint" />
          </mxGeometry>
        </mxCell>
        <mxCell id="mbGC3ksJfDoY1-nT-V7R-78" value="" style="edgeStyle=orthogonalEdgeStyle;rounded=1;orthogonalLoop=1;jettySize=auto;fontSize=9;endArrow=blockThin;endFill=1;entryX=0.198;entryY=1.006;entryDx=0;entryDy=0;entryPerimeter=0;strokeWidth=2;strokeColor=#0C7CBA;endSize=6;exitX=0;exitY=0.503;exitDx=0;exitDy=0;exitPerimeter=0;" parent="1" source="mbGC3ksJfDoY1-nT-V7R-88" target="mbGC3ksJfDoY1-nT-V7R-70" edge="1">
          <mxGeometry relative="1" as="geometry">
            <mxPoint x="1699.3199999999997" y="1240" as="sourcePoint" />
            <mxPoint x="1501.87" y="1213.0100000000002" as="targetPoint" />
            <Array as="points">
              <mxPoint x="1460.3199999999997" y="1014" />
              <mxPoint x="1460.3199999999997" y="1101" />
              <mxPoint x="878.3199999999997" y="1101" />
            </Array>
          </mxGeometry>
        </mxCell>
        <mxCell id="mbGC3ksJfDoY1-nT-V7R-79" value="friction preview" style="edgeLabel;align=center;verticalAlign=middle;resizable=0;points=[];fontSize=10;labelBackgroundColor=none;" parent="mbGC3ksJfDoY1-nT-V7R-78" vertex="1" connectable="0">
          <mxGeometry x="-0.7154" y="2" relative="1" as="geometry">
            <mxPoint x="-211" y="-2" as="offset" />
          </mxGeometry>
        </mxCell>
        <mxCell id="mbGC3ksJfDoY1-nT-V7R-80" value="" style="edgeStyle=orthogonalEdgeStyle;rounded=1;orthogonalLoop=1;jettySize=auto;fontSize=12;fontColor=#000000;startArrow=none;startFill=0;endArrow=blockThin;endFill=1;entryX=0.593;entryY=1.003;entryDx=0;entryDy=0;entryPerimeter=0;exitX=1;exitY=0.503;exitDx=0;exitDy=0;exitPerimeter=0;" parent="1" source="mbGC3ksJfDoY1-nT-V7R-74" target="mbGC3ksJfDoY1-nT-V7R-70" edge="1">
          <mxGeometry relative="1" as="geometry">
            <mxPoint x="1395.3199999999997" y="945" as="sourcePoint" />
            <mxPoint x="1311.3199999999997" y="957" as="targetPoint" />
            <Array as="points">
              <mxPoint x="1414.3199999999997" y="947" />
              <mxPoint x="1414.3199999999997" y="1071" />
              <mxPoint x="910.3199999999997" y="1071" />
              <mxPoint x="910.3199999999997" y="1037" />
            </Array>
          </mxGeometry>
        </mxCell>
        <mxCell id="mbGC3ksJfDoY1-nT-V7R-81" value="friction real time estimation" style="edgeLabel;align=center;verticalAlign=middle;resizable=0;points=[];fontSize=10;labelBackgroundColor=none;" parent="mbGC3ksJfDoY1-nT-V7R-80" vertex="1" connectable="0">
          <mxGeometry x="-0.1761" relative="1" as="geometry">
            <mxPoint y="-8" as="offset" />
          </mxGeometry>
        </mxCell>
        <mxCell id="mbGC3ksJfDoY1-nT-V7R-82" value="Vehicle N" style="text;resizable=0;autosize=1;align=center;verticalAlign=middle;points=[];fillColor=none;strokeColor=none;rounded=0;labelBackgroundColor=none;fontSize=20;fontColor=#0000FF;fontStyle=1" parent="1" vertex="1">
          <mxGeometry x="834" y="802" width="99" height="28" as="geometry" />
        </mxCell>
        <mxCell id="mbGC3ksJfDoY1-nT-V7R-83" value="" style="edgeStyle=orthogonalEdgeStyle;rounded=1;orthogonalLoop=1;jettySize=auto;fontSize=12;fontColor=#000000;startArrow=none;startFill=0;endArrow=blockThin;endFill=1;entryX=0.799;entryY=0.999;entryDx=0;entryDy=0;entryPerimeter=0;exitX=1.005;exitY=0.499;exitDx=0;exitDy=0;exitPerimeter=0;" parent="1" source="mbGC3ksJfDoY1-nT-V7R-73" target="mbGC3ksJfDoY1-nT-V7R-70" edge="1">
          <mxGeometry relative="1" as="geometry">
            <mxPoint x="1124.3199999999997" y="941" as="sourcePoint" />
            <mxPoint x="912.9080100000001" y="1046.64394" as="targetPoint" />
            <Array as="points">
              <mxPoint x="1144.3199999999997" y="947" />
              <mxPoint x="1144.3199999999997" y="1061" />
              <mxPoint x="928.3199999999997" y="1061" />
            </Array>
          </mxGeometry>
        </mxCell>
        <mxCell id="mbGC3ksJfDoY1-nT-V7R-85" value="" style="edgeStyle=orthogonalEdgeStyle;rounded=1;orthogonalLoop=1;jettySize=auto;fontSize=9;endArrow=blockThin;endFill=1;entryX=0.004;entryY=0.698;entryDx=0;entryDy=0;entryPerimeter=0;strokeWidth=1;exitX=0.397;exitY=1;exitDx=0;exitDy=0;exitPerimeter=0;strokeColor=#0C7CBA;" parent="1" source="mbGC3ksJfDoY1-nT-V7R-70" target="mbGC3ksJfDoY1-nT-V7R-89" edge="1">
          <mxGeometry relative="1" as="geometry">
            <mxPoint x="1600.3900000000003" y="1111.0000000000005" as="sourcePoint" />
            <mxPoint x="888.2913399999998" y="1047.1778800000002" as="targetPoint" />
            <Array as="points">
              <mxPoint x="894.3199999999997" y="1086" />
              <mxPoint x="1440.3199999999997" y="1086" />
              <mxPoint x="1440.3199999999997" y="961" />
            </Array>
          </mxGeometry>
        </mxCell>
        <mxCell id="mbGC3ksJfDoY1-nT-V7R-86" value="preview request" style="edgeLabel;align=center;verticalAlign=middle;resizable=0;points=[];fontSize=10;labelBackgroundColor=none;" parent="mbGC3ksJfDoY1-nT-V7R-85" vertex="1" connectable="0">
          <mxGeometry x="-0.2364" y="4" relative="1" as="geometry">
            <mxPoint x="116" y="-3" as="offset" />
          </mxGeometry>
        </mxCell>
        <UserObject label="DB Communication Interface" lucidchartObjectId="_q3sdJaIwXV-" id="mbGC3ksJfDoY1-nT-V7R-87">
          <mxCell style="overflow=block;blockSpacing=1;;fontSize=12;align=center;spacing=3.8;strokeOpacity=100;fillOpacity=27;strokeWidth=0.8;verticalAlign=top;rounded=1;fillColor=#bac8d3;strokeColor=#23445d;" parent="1" vertex="1">
            <mxGeometry x="1470.3199999999997" y="884" width="99" height="166" as="geometry" />
          </mxCell>
        </UserObject>
        <mxCell id="mbGC3ksJfDoY1-nT-V7R-88" value="Receive" style="rounded=1;align=center;verticalAlign=top;fontSize=10;fontStyle=0;fillColor=#dae8fc;strokeColor=#6c8ebf;" parent="1" vertex="1">
          <mxGeometry x="1484.3899999999999" y="994" width="70.87" height="39.37" as="geometry" />
        </mxCell>
        <mxCell id="mbGC3ksJfDoY1-nT-V7R-89" value="Transmit" style="rounded=1;align=center;verticalAlign=top;fontSize=10;fontStyle=0;fillColor=#dae8fc;strokeColor=#6c8ebf;" parent="1" vertex="1">
          <mxGeometry x="1484.3899999999999" y="933.6200000000001" width="70.87" height="39.37" as="geometry" />
        </mxCell>
        <mxCell id="EPciwlCAxLOxW23dukJo-27" value="" style="edgeStyle=orthogonalEdgeStyle;rounded=0;orthogonalLoop=1;jettySize=auto;fontSize=9;endArrow=classicThin;endFill=1;entryX=-0.003;entryY=0.211;entryDx=0;entryDy=0;entryPerimeter=0;exitX=0.995;exitY=0.504;exitDx=0;exitDy=0;exitPerimeter=0;" parent="1" source="sdquQk6Ne_uuqH1AtgiG-79" edge="1">
          <mxGeometry relative="1" as="geometry">
            <mxPoint x="684.0000000000005" y="644.5614285714287" as="sourcePoint" />
            <mxPoint x="861.6130100000009" y="883.2037799999998" as="targetPoint" />
            <Array as="points">
              <mxPoint x="656" y="587" />
              <mxPoint x="656" y="883" />
            </Array>
          </mxGeometry>
        </mxCell>
        <mxCell id="EPciwlCAxLOxW23dukJo-28" value="desired&#xa;trajectory N" style="edgeLabel;align=left;verticalAlign=middle;resizable=0;points=[];fontSize=30;fontColor=#0000FF;labelBackgroundColor=none;" parent="EPciwlCAxLOxW23dukJo-27" vertex="1" connectable="0">
          <mxGeometry x="-0.2891" y="-1" relative="1" as="geometry">
            <mxPoint x="10" y="156" as="offset" />
          </mxGeometry>
        </mxCell>
        <mxCell id="mbGC3ksJfDoY1-nT-V7R-92" value="" style="edgeStyle=orthogonalEdgeStyle;rounded=0;orthogonalLoop=1;jettySize=auto;fontSize=9;endArrow=blockThin;endFill=1;exitX=0.997;exitY=0.304;exitDx=0;exitDy=0;exitPerimeter=0;entryX=-0.008;entryY=0.816;entryDx=0;entryDy=0;entryPerimeter=0;" parent="1" source="mbGC3ksJfDoY1-nT-V7R-89" target="NW8IP-rn-EwmyOUBby27-4" edge="1">
          <mxGeometry relative="1" as="geometry">
            <mxPoint x="1563.9965199999995" y="846.60234" as="sourcePoint" />
            <mxPoint x="1805.500000000001" y="846.9999999999999" as="targetPoint" />
          </mxGeometry>
        </mxCell>
        <mxCell id="mbGC3ksJfDoY1-nT-V7R-94" value="local friction estimation" style="edgeLabel;align=center;verticalAlign=middle;resizable=0;points=[];fontSize=10;labelBackgroundColor=none;" parent="mbGC3ksJfDoY1-nT-V7R-92" vertex="1" connectable="0">
          <mxGeometry x="-0.1748" y="-1" relative="1" as="geometry">
            <mxPoint x="14" y="-11" as="offset" />
          </mxGeometry>
        </mxCell>
        <mxCell id="mbGC3ksJfDoY1-nT-V7R-95" value="" style="edgeStyle=orthogonalEdgeStyle;rounded=1;orthogonalLoop=1;jettySize=auto;fontSize=9;endArrow=blockThin;endFill=1;entryX=0;entryY=0.29;entryDx=0;entryDy=0;entryPerimeter=0;strokeWidth=1;exitX=1;exitY=0.735;exitDx=0;exitDy=0;exitPerimeter=0;strokeColor=#0C7CBA;" parent="1" edge="1">
          <mxGeometry relative="1" as="geometry">
            <mxPoint x="1555.3" y="960.99695" as="sourcePoint" />
            <mxPoint x="1796.6400000000003" y="981.8399999999999" as="targetPoint" />
            <Array as="points">
              <mxPoint x="1636.36" y="961.44" />
              <mxPoint x="1636.36" y="981.44" />
            </Array>
          </mxGeometry>
        </mxCell>
        <mxCell id="mbGC3ksJfDoY1-nT-V7R-96" value="preview request" style="edgeLabel;align=center;verticalAlign=middle;resizable=0;points=[];fontSize=10;labelBackgroundColor=none;" parent="mbGC3ksJfDoY1-nT-V7R-95" vertex="1" connectable="0">
          <mxGeometry x="-0.2364" y="4" relative="1" as="geometry">
            <mxPoint x="44" y="-6" as="offset" />
          </mxGeometry>
        </mxCell>
        <mxCell id="mbGC3ksJfDoY1-nT-V7R-97" value="" style="edgeStyle=orthogonalEdgeStyle;rounded=1;orthogonalLoop=1;jettySize=auto;fontSize=9;endArrow=blockThin;endFill=1;strokeWidth=2;strokeColor=#0C7CBA;endSize=6;exitX=0.006;exitY=0.893;exitDx=0;exitDy=0;exitPerimeter=0;" parent="1" source="NW8IP-rn-EwmyOUBby27-4" target="mbGC3ksJfDoY1-nT-V7R-88" edge="1">
          <mxGeometry relative="1" as="geometry">
            <mxPoint x="1797.4800000000005" y="1011.4199999999998" as="sourcePoint" />
            <mxPoint x="1555.3" y="1012.32185" as="targetPoint" />
          </mxGeometry>
        </mxCell>
        <mxCell id="mbGC3ksJfDoY1-nT-V7R-98" value="friction preview" style="edgeLabel;align=center;verticalAlign=middle;resizable=0;points=[];fontSize=10;labelBackgroundColor=none;" parent="mbGC3ksJfDoY1-nT-V7R-97" vertex="1" connectable="0">
          <mxGeometry x="-0.7154" y="2" relative="1" as="geometry">
            <mxPoint x="-79" y="-9" as="offset" />
          </mxGeometry>
        </mxCell>
        <mxCell id="mbGC3ksJfDoY1-nT-V7R-105" value="" style="shape=image;verticalAlign=top;verticalLabelPosition=bottom;labelBackgroundColor=#ffffff;imageAspect=0;aspect=fixed;image=https://cdn1.iconfinder.com/data/icons/jumpicon-basic-ui-glyph-1/32/-_Dot-More-Vertical-Menu-128.png;" parent="1" vertex="1">
          <mxGeometry x="2692.42" y="551.1" width="22.73" height="22.73" as="geometry" />
        </mxCell>
        <mxCell id="mbGC3ksJfDoY1-nT-V7R-106" value="" style="rounded=1;labelBackgroundColor=none;fontSize=10;align=left;fillColor=#d5e8d4;strokeColor=#82b366;" parent="1" vertex="1">
          <mxGeometry x="-455" y="259.62" width="338" height="179" as="geometry" />
        </mxCell>
        <mxCell id="mbGC3ksJfDoY1-nT-V7R-108" value="" style="group;" parent="1" vertex="1" connectable="0">
          <mxGeometry x="-435" y="271.1" width="293" height="161.20999999999992" as="geometry" />
        </mxCell>
        <mxCell id="EPciwlCAxLOxW23dukJo-48" value="" style="shape=image;verticalAlign=top;verticalLabelPosition=bottom;labelBackgroundColor=#ffffff;imageAspect=0;aspect=fixed;image=https://cdn4.iconfinder.com/data/icons/the-weather-is-nice-today/64/weather_2-128.png;dashed=1;fontSize=28;" parent="mbGC3ksJfDoY1-nT-V7R-108" vertex="1">
          <mxGeometry x="119" width="70" height="70" as="geometry" />
        </mxCell>
        <mxCell id="EPciwlCAxLOxW23dukJo-49" value="" style="shape=image;verticalAlign=top;verticalLabelPosition=bottom;labelBackgroundColor=#ffffff;imageAspect=0;aspect=fixed;image=https://cdn3.iconfinder.com/data/icons/spring-2-1/30/Rain-128.png;dashed=1;fontSize=28;" parent="mbGC3ksJfDoY1-nT-V7R-108" vertex="1">
          <mxGeometry x="121.59" y="83.89999999999995" width="67.41" height="67.41" as="geometry" />
        </mxCell>
        <mxCell id="mbGC3ksJfDoY1-nT-V7R-1" value="" style="shape=image;verticalAlign=top;verticalLabelPosition=bottom;labelBackgroundColor=#ffffff;imageAspect=0;aspect=fixed;image=https://cdn4.iconfinder.com/data/icons/the-weather-is-nice-today/64/weather_7-128.png;" parent="mbGC3ksJfDoY1-nT-V7R-108" vertex="1">
          <mxGeometry x="-3.6899999999999977" y="76.9" width="71" height="71" as="geometry" />
        </mxCell>
        <mxCell id="mbGC3ksJfDoY1-nT-V7R-5" value="" style="shape=image;verticalAlign=top;verticalLabelPosition=bottom;labelBackgroundColor=#ffffff;imageAspect=0;aspect=fixed;image=https://cdn4.iconfinder.com/data/icons/the-weather-is-nice-today/64/weather_3-128.png;dashed=1;fontSize=28;" parent="mbGC3ksJfDoY1-nT-V7R-108" vertex="1">
          <mxGeometry y="2.6899999999999977" width="67.31" height="67.31" as="geometry" />
        </mxCell>
        <mxCell id="mbGC3ksJfDoY1-nT-V7R-109" value="Road condition" style="text;resizable=0;autosize=1;align=center;verticalAlign=middle;points=[];fillColor=none;strokeColor=none;rounded=0;labelBackgroundColor=none;fontSize=20;fontColor=#0000FF;fontStyle=1" parent="1" vertex="1">
          <mxGeometry x="-451" y="226.00000000000006" width="155" height="28" as="geometry" />
        </mxCell>
        <mxCell id="mbGC3ksJfDoY1-nT-V7R-110" value="" style="edgeStyle=orthogonalEdgeStyle;rounded=0;orthogonalLoop=1;jettySize=auto;fontSize=9;endArrow=classicThin;endFill=1;entryX=-0.002;entryY=0.302;entryDx=0;entryDy=0;exitX=1.001;exitY=0.498;exitDx=0;exitDy=0;exitPerimeter=0;entryPerimeter=0;" parent="1" source="mbGC3ksJfDoY1-nT-V7R-106" target="GBbAQe1-XjNDRKQaChQB-61" edge="1">
          <mxGeometry relative="1" as="geometry">
            <mxPoint x="11.739999999999782" y="596.9862499999999" as="sourcePoint" />
            <mxPoint x="244" y="260.60000000000014" as="targetPoint" />
            <Array as="points">
              <mxPoint x="-34" y="349" />
              <mxPoint x="-34" y="236" />
              <mxPoint x="119" y="236" />
            </Array>
          </mxGeometry>
        </mxCell>
        <mxCell id="mbGC3ksJfDoY1-nT-V7R-111" value="Traffic simulation" style="text;resizable=0;autosize=1;align=center;verticalAlign=middle;points=[];fillColor=none;strokeColor=none;rounded=0;labelBackgroundColor=none;fontSize=20;fontColor=#0000FF;fontStyle=1" parent="1" vertex="1">
          <mxGeometry x="179" y="535.9100000000001" width="176" height="28" as="geometry" />
        </mxCell>
        <mxCell id="mbGC3ksJfDoY1-nT-V7R-112" value="Road map" style="text;resizable=0;autosize=1;align=center;verticalAlign=middle;points=[];fillColor=none;strokeColor=none;rounded=0;labelBackgroundColor=none;fontSize=20;fontColor=#0000FF;fontStyle=1" parent="1" vertex="1">
          <mxGeometry x="-451" y="532.4300000000001" width="107" height="28" as="geometry" />
        </mxCell>
        <mxCell id="92C-RyjMTjrQaWhyBfma-4" value="" style="rounded=1;orthogonalLoop=1;jettySize=auto;fontSize=9;endArrow=classicThin;endFill=1;exitX=1;exitY=0.271;exitDx=0;exitDy=0;exitPerimeter=0;entryX=0.017;entryY=0.562;entryDx=0;entryDy=0;entryPerimeter=0;strokeColor=#FF8000;" parent="1" source="NW8IP-rn-EwmyOUBby27-19" target="92C-RyjMTjrQaWhyBfma-6" edge="1">
          <mxGeometry relative="1" as="geometry">
            <mxPoint x="2221.9976399999996" y="416.1469999999998" as="sourcePoint" />
            <mxPoint x="2265" y="432.2000000000003" as="targetPoint" />
          </mxGeometry>
        </mxCell>
        <mxCell id="92C-RyjMTjrQaWhyBfma-5" value="Forgetting&#xa;expired data" style="edgeLabel;align=center;verticalAlign=middle;resizable=0;points=[];fontSize=8;labelBackgroundColor=none;" parent="92C-RyjMTjrQaWhyBfma-4" vertex="1" connectable="0">
          <mxGeometry x="0.0098" relative="1" as="geometry">
            <mxPoint x="-1" y="-17" as="offset" />
          </mxGeometry>
        </mxCell>
        <mxCell id="92C-RyjMTjrQaWhyBfma-6" value="" style="verticalLabelPosition=bottom;verticalAlign=top;align=center;strokeColor=none;fillColor=#00BEF2;shape=mxgraph.azure.sql_datasync;labelBackgroundColor=none;fontSize=10;" parent="1" vertex="1">
          <mxGeometry x="2275" y="440.54000000000025" width="18.75" height="23" as="geometry" />
        </mxCell>
        <mxCell id="_AR8f_d6GlFVkw_kQrnz-1" value="" style="group;" parent="1" vertex="1" connectable="0">
          <mxGeometry x="1011" y="437" width="85" height="45" as="geometry" />
        </mxCell>
        <mxCell id="34l7z13zgLDxpLi6N4YC-1" value="" style="shape=image;verticalLabelPosition=bottom;verticalAlign=top;imageAspect=0;image=data:image/svg+xml,PHN2ZyB4bWxucz0iaHR0cDovL3d3dy53My5vcmcvMjAwMC9zdmciIHhtbG5zOnhsaW5rPSJodHRwOi8vd3d3LnczLm9yZy8xOTk5L3hsaW5rIiB2aWV3Qm94PSI0IDI2IDg4IDQ0IiBpZD0iSWNvbnNfQ2FyIiBvdmVyZmxvdz0iaGlkZGVuIiB3aWR0aD0iODgiIGhlaWdodD0iNDQiPjxjaXJjbGUgY3g9IjI0IiBjeT0iNjIiIHI9IjgiLz48Y2lyY2xlIGN4PSI3MiIgY3k9IjYyIiByPSI4Ii8+PHBhdGggZD0iTTM5IDQyIDM5IDMwIDUyLjcgMzBDNTMuOCAzMCA1NC44IDMwLjQgNTUuNSAzMS4yTDY2LjMgNDIgMzkgNDJaTTM1IDQyIDkuNyA0MiAyMC41IDMxLjJDMjEuMyAzMC40IDIyLjMgMzAgMjMuMyAzMEwzNSAzMCAzNSA0MlpNODIgNDIgNzMuNyA0MkM3Mi42IDQyIDcxLjYgNDEuNiA3MC45IDQwLjhMNTguMyAyOC4zQzU2LjggMjYuOCA1NC44IDI2IDUyLjYgMjZMMjMuMyAyNkMyMS4yIDI2IDE5LjEgMjYuOCAxNy42IDI4LjNMNS4yIDQwLjhDNC40IDQxLjYgNCA0Mi42IDQgNDMuN0w0IDU0QzQgNTguNCA3LjYgNjIgMTIgNjJMMTMgNjJDMTMgNTUuOSAxNy45IDUxIDI0IDUxIDMwLjEgNTEgMzUgNTUuOSAzNSA2Mkw2MSA2MkM2MSA1NS45IDY1LjkgNTEgNzIgNTEgNzguMSA1MSA4MyA1NS45IDgzIDYyTDg4IDYyQzkwLjIgNjIgOTIgNjAuMiA5MiA1OEw5MiA1MkM5MiA0Ni41IDg3LjUgNDIgODIgNDJaIi8+PC9zdmc+;labelBackgroundColor=none;fontSize=8;strokeColor=#3333FF;fillColor=none;" parent="_AR8f_d6GlFVkw_kQrnz-1" vertex="1">
          <mxGeometry width="84.99999999999999" height="35.131578947368176" as="geometry" />
        </mxCell>
        <mxCell id="34l7z13zgLDxpLi6N4YC-4" value="" style="rounded=0;labelBackgroundColor=none;fontSize=8;strokeColor=none;fillColor=#1BA1E2;" parent="_AR8f_d6GlFVkw_kQrnz-1" vertex="1">
          <mxGeometry y="35.52631578947382" width="83.52831071595693" height="9.473684210526251" as="geometry" />
        </mxCell>
        <mxCell id="_AR8f_d6GlFVkw_kQrnz-2" value="Context 1" style="text;resizable=0;autosize=1;align=center;verticalAlign=middle;points=[];fillColor=none;strokeColor=none;rounded=0;labelBackgroundColor=none;fontSize=20;fontColor=#0000FF;fontStyle=1" parent="1" vertex="1">
          <mxGeometry x="1000" y="496.1" width="101" height="28" as="geometry" />
        </mxCell>
        <mxCell id="_AR8f_d6GlFVkw_kQrnz-3" value="Context M" style="text;resizable=0;autosize=1;align=center;verticalAlign=middle;points=[];fillColor=none;strokeColor=none;rounded=0;labelBackgroundColor=none;fontSize=20;fontColor=#0000FF;fontStyle=1" parent="1" vertex="1">
          <mxGeometry x="997" y="985.8399999999999" width="107" height="28" as="geometry" />
        </mxCell>
        <mxCell id="_AR8f_d6GlFVkw_kQrnz-5" value="" style="group;" parent="1" vertex="1" connectable="0">
          <mxGeometry x="1010.1099999999999" y="933.62" width="89" height="46" as="geometry" />
        </mxCell>
        <mxCell id="34l7z13zgLDxpLi6N4YC-2" value="" style="rounded=0;labelBackgroundColor=none;fontSize=8;strokeColor=none;fillColor=#808080;" parent="_AR8f_d6GlFVkw_kQrnz-5" vertex="1">
          <mxGeometry y="36.3683756063238" width="87.45905474964901" height="9.63162439367627" as="geometry" />
        </mxCell>
        <mxCell id="34l7z13zgLDxpLi6N4YC-3" value="" style="shape=image;verticalLabelPosition=bottom;verticalAlign=top;imageAspect=0;image=data:image/svg+xml,PHN2ZyB4bWxucz0iaHR0cDovL3d3dy53My5vcmcvMjAwMC9zdmciIHhtbG5zOnhsaW5rPSJodHRwOi8vd3d3LnczLm9yZy8xOTk5L3hsaW5rIiB2aWV3Qm94PSI0IDI2IDg4IDQ0IiBpZD0iSWNvbnNfQ2FyIiBvdmVyZmxvdz0iaGlkZGVuIiB3aWR0aD0iODgiIGhlaWdodD0iNDQiPjxjaXJjbGUgY3g9IjI0IiBjeT0iNjIiIHI9IjgiLz48Y2lyY2xlIGN4PSI3MiIgY3k9IjYyIiByPSI4Ii8+PHBhdGggZD0iTTM5IDQyIDM5IDMwIDUyLjcgMzBDNTMuOCAzMCA1NC44IDMwLjQgNTUuNSAzMS4yTDY2LjMgNDIgMzkgNDJaTTM1IDQyIDkuNyA0MiAyMC41IDMxLjJDMjEuMyAzMC40IDIyLjMgMzAgMjMuMyAzMEwzNSAzMCAzNSA0MlpNODIgNDIgNzMuNyA0MkM3Mi42IDQyIDcxLjYgNDEuNiA3MC45IDQwLjhMNTguMyAyOC4zQzU2LjggMjYuOCA1NC44IDI2IDUyLjYgMjZMMjMuMyAyNkMyMS4yIDI2IDE5LjEgMjYuOCAxNy42IDI4LjNMNS4yIDQwLjhDNC40IDQxLjYgNCA0Mi42IDQgNDMuN0w0IDU0QzQgNTguNCA3LjYgNjIgMTIgNjJMMTMgNjJDMTMgNTUuOSAxNy45IDUxIDI0IDUxIDMwLjEgNTEgMzUgNTUuOSAzNSA2Mkw2MSA2MkM2MSA1NS45IDY1LjkgNTEgNzIgNTEgNzguMSA1MSA4MyA1NS45IDgzIDYyTDg4IDYyQzkwLjIgNjIgOTIgNjAuMiA5MiA1OEw5MiA1MkM5MiA0Ni41IDg3LjUgNDIgODIgNDJaIi8+PC9zdmc+;labelBackgroundColor=none;fontSize=8;strokeColor=#3333FF;fillColor=none;" parent="_AR8f_d6GlFVkw_kQrnz-5" vertex="1">
          <mxGeometry width="88.99999999999997" height="36.36043587594355" as="geometry" />
        </mxCell>
        <mxCell id="mbGC3ksJfDoY1-nT-V7R-6" value="" style="shape=image;verticalAlign=top;verticalLabelPosition=bottom;labelBackgroundColor=#ffffff;imageAspect=0;aspect=fixed;image=https://cdn3.iconfinder.com/data/icons/tiny-weather-1/512/snow-cloud-128.png;" parent="1" vertex="1">
          <mxGeometry x="-219" y="336" width="89" height="89" as="geometry" />
        </mxCell>
      </root>
    </mxGraphModel>
  </diagram>
  <diagram id="c7A6WJLZWwoneThvYRMO" name="uml">
    <mxGraphModel dx="2280" dy="1268" grid="1" gridSize="10" guides="1" tooltips="1" connect="1" arrows="1" fold="1" page="1" pageScale="1" pageWidth="850" pageHeight="1100" math="0" shadow="0">
      <root>
        <mxCell id="R4NwN_F0OL4F4nNE0J32-0" />
        <mxCell id="R4NwN_F0OL4F4nNE0J32-1" parent="R4NwN_F0OL4F4nNE0J32-0" />
        <UserObject label="DATABASE-AS-A-SENSOR" lucidchartObjectId="Ge4s9ggXFkKx" id="R4NwN_F0OL4F4nNE0J32-2">
          <mxCell style="html=1;overflow=block;blockSpacing=1;whiteSpace=wrap;strokeColor=none;fillColor=none;whiteSpace=wrap;fontSize=13;fontColor=#000000;align=left;spacing=0;verticalAlign=middle;strokeWidth=1.5;" parent="R4NwN_F0OL4F4nNE0J32-1" vertex="1">
            <mxGeometry x="1045" y="266" width="180" height="30" as="geometry" />
          </mxCell>
        </UserObject>
        <UserObject label="VEHICLE 1" lucidchartObjectId="2Y3s7OzlvnEn" id="R4NwN_F0OL4F4nNE0J32-3">
          <mxCell style="html=1;overflow=block;blockSpacing=1;whiteSpace=wrap;strokeColor=none;fillColor=none;whiteSpace=wrap;fontSize=13;fontColor=#000000;align=center;spacing=0;strokeWidth=1.5;" parent="R4NwN_F0OL4F4nNE0J32-1" vertex="1">
            <mxGeometry x="160" y="110" width="78" height="21" as="geometry" />
          </mxCell>
        </UserObject>
        <UserObject label="SUPER-MODEL&#xa;&#xa;&#xa;&#xa;&#xa;&#xa;&#xa;&#xa;&#xa;&#xa;&#xa;&#xa;&#xa;" lucidchartObjectId="_q3sCnzLqKI8" id="R4NwN_F0OL4F4nNE0J32-4">
          <mxCell style="html=1;overflow=block;blockSpacing=1;whiteSpace=wrap;;whiteSpace=wrap;fontSize=13;fontColor=#000000;align=center;spacing=9;strokeColor=#333333;strokeOpacity=100;fillOpacity=100;fillColor=#ffdba9;strokeWidth=0.8;" parent="R4NwN_F0OL4F4nNE0J32-1" vertex="1">
            <mxGeometry x="1555" y="326" width="150" height="251" as="geometry" />
          </mxCell>
        </UserObject>
        <UserObject label="" lucidchartObjectId="_q3s2LA6I3hS" id="R4NwN_F0OL4F4nNE0J32-5">
          <mxCell style="html=1;overflow=block;blockSpacing=1;whiteSpace=wrap;container=1;collapsible=0;whiteSpace=wrap;fontSize=13;spacing=0;strokeColor=#333333;strokeOpacity=100;fillOpacity=100;fillColor=#e5e5e5;strokeWidth=0.8;" parent="R4NwN_F0OL4F4nNE0J32-1" vertex="1">
            <mxGeometry x="160" y="131" width="480" height="195" as="geometry" />
          </mxCell>
        </UserObject>
        <UserObject label="MPC controller" lucidchartObjectId="_q3sgbvPz0Vs" id="R4NwN_F0OL4F4nNE0J32-6">
          <mxCell style="html=1;overflow=block;blockSpacing=1;whiteSpace=wrap;;whiteSpace=wrap;fontSize=13;fontColor=#000000;align=center;spacing=9;strokeColor=#333333;strokeOpacity=100;fillOpacity=100;fillColor=#ffffff;strokeWidth=0.8;" parent="R4NwN_F0OL4F4nNE0J32-1" vertex="1">
            <mxGeometry x="295" y="146" width="120" height="45" as="geometry" />
          </mxCell>
        </UserObject>
        <UserObject label="Vehicle dynamics" lucidchartObjectId="_q3s8E30_n4y" id="R4NwN_F0OL4F4nNE0J32-7">
          <mxCell style="html=1;overflow=block;blockSpacing=1;whiteSpace=wrap;;whiteSpace=wrap;fontSize=13;fontColor=#000000;align=center;spacing=9;strokeColor=#333333;strokeOpacity=100;fillOpacity=100;fillColor=#ffffff;strokeWidth=0.8;" parent="R4NwN_F0OL4F4nNE0J32-1" vertex="1">
            <mxGeometry x="448" y="146" width="132" height="45" as="geometry" />
          </mxCell>
        </UserObject>
        <UserObject label="Sensors" lucidchartObjectId="_q3srxT7uCz1" id="R4NwN_F0OL4F4nNE0J32-8">
          <mxCell style="html=1;overflow=block;blockSpacing=1;whiteSpace=wrap;;whiteSpace=wrap;fontSize=13;fontColor=#000000;align=center;spacing=9;strokeColor=#333333;strokeOpacity=100;fillOpacity=100;fillColor=#ffffff;strokeWidth=0.8;" parent="R4NwN_F0OL4F4nNE0J32-1" vertex="1">
            <mxGeometry x="460" y="266" width="105" height="45" as="geometry" />
          </mxCell>
        </UserObject>
        <UserObject label="" lucidchartObjectId="_q3sdrKXwg1k" id="R4NwN_F0OL4F4nNE0J32-9">
          <mxCell style="html=1;jettySize=18;whiteSpace=wrap;fontSize=13;strokeColor=#666666;strokeOpacity=100;strokeWidth=0.8;rounded=1;arcSize=24;edgeStyle=orthogonalEdgeStyle;startArrow=none;;endArrow=block;endFill=1;;exitX=1.003;exitY=0.5;exitPerimeter=0;entryX=-0.003;entryY=0.5;entryPerimeter=0;" parent="R4NwN_F0OL4F4nNE0J32-1" source="R4NwN_F0OL4F4nNE0J32-6" target="R4NwN_F0OL4F4nNE0J32-7" edge="1">
            <mxGeometry width="100" height="100" relative="1" as="geometry">
              <Array as="points" />
            </mxGeometry>
          </mxCell>
        </UserObject>
        <UserObject label="" lucidchartObjectId="_q3sqav.0p_M" id="R4NwN_F0OL4F4nNE0J32-10">
          <mxCell style="html=1;jettySize=18;whiteSpace=wrap;fontSize=13;strokeColor=#666666;strokeOpacity=100;strokeWidth=0.8;rounded=1;arcSize=24;edgeStyle=orthogonalEdgeStyle;startArrow=block;startFill=1;;endArrow=none;;exitX=-0.003;exitY=0.5;exitPerimeter=0;entryX=1.013;entryY=0.5;entryPerimeter=0;" parent="R4NwN_F0OL4F4nNE0J32-1" source="R4NwN_F0OL4F4nNE0J32-6" target="R4NwN_F0OL4F4nNE0J32-14" edge="1">
            <mxGeometry width="100" height="100" relative="1" as="geometry">
              <Array as="points" />
            </mxGeometry>
          </mxCell>
        </UserObject>
        <UserObject label="" lucidchartObjectId="_q3sjb0HFBVA" id="R4NwN_F0OL4F4nNE0J32-11">
          <mxCell style="html=1;jettySize=18;whiteSpace=wrap;fontSize=13;strokeColor=#666666;strokeOpacity=100;strokeWidth=0.8;rounded=1;arcSize=24;edgeStyle=orthogonalEdgeStyle;startArrow=none;;endArrow=block;endFill=1;;exitX=1.003;exitY=0.5;exitPerimeter=0;" parent="R4NwN_F0OL4F4nNE0J32-1" source="R4NwN_F0OL4F4nNE0J32-7" edge="1">
            <mxGeometry width="100" height="100" relative="1" as="geometry">
              <Array as="points" />
              <mxPoint x="625" y="169" as="targetPoint" />
            </mxGeometry>
          </mxCell>
        </UserObject>
        <UserObject label="" lucidchartObjectId="_q3sIt_HCIO7" id="R4NwN_F0OL4F4nNE0J32-12">
          <mxCell style="html=1;jettySize=18;whiteSpace=wrap;fontSize=13;strokeColor=#666666;strokeOpacity=100;strokeWidth=0.8;rounded=1;arcSize=24;edgeStyle=orthogonalEdgeStyle;startArrow=none;;endArrow=block;endFill=1;;exitX=1.003;exitY=0.5;exitPerimeter=0;entryX=1.004;entryY=0.5;entryPerimeter=0;" parent="R4NwN_F0OL4F4nNE0J32-1" source="R4NwN_F0OL4F4nNE0J32-7" target="R4NwN_F0OL4F4nNE0J32-8" edge="1">
            <mxGeometry width="100" height="100" relative="1" as="geometry">
              <Array as="points">
                <mxPoint x="588" y="169" />
                <mxPoint x="588" y="229" />
                <mxPoint x="565" y="229" />
              </Array>
            </mxGeometry>
          </mxCell>
        </UserObject>
        <UserObject label="" lucidchartObjectId="_q3s2n1pBmCx" id="R4NwN_F0OL4F4nNE0J32-13">
          <mxCell style="html=1;jettySize=18;whiteSpace=wrap;fontSize=13;strokeColor=#666666;strokeOpacity=100;strokeWidth=0.8;rounded=1;arcSize=24;edgeStyle=orthogonalEdgeStyle;startArrow=none;;endArrow=block;endFill=1;;exitX=-0.004;exitY=0.5;exitPerimeter=0;entryX=0.5;entryY=1.013;entryPerimeter=0;" parent="R4NwN_F0OL4F4nNE0J32-1" source="R4NwN_F0OL4F4nNE0J32-8" target="R4NwN_F0OL4F4nNE0J32-14" edge="1">
            <mxGeometry width="100" height="100" relative="1" as="geometry">
              <Array as="points" />
            </mxGeometry>
          </mxCell>
        </UserObject>
        <UserObject label="" lucidchartObjectId="_q3s7MLNaARg" id="R4NwN_F0OL4F4nNE0J32-14">
          <mxCell style="html=1;overflow=block;blockSpacing=1;whiteSpace=wrap;ellipse;container=1;collapsible=0;whiteSpace=wrap;fontSize=13;spacing=0;strokeColor=#333333;strokeOpacity=100;fillOpacity=100;fillColor=#ffffff;strokeWidth=0.8;" parent="R4NwN_F0OL4F4nNE0J32-1" vertex="1">
            <mxGeometry x="220" y="154" width="30" height="30" as="geometry" />
          </mxCell>
        </UserObject>
        <UserObject label="Friction estimator" lucidchartObjectId="_q3sOVJ1.UkC" id="R4NwN_F0OL4F4nNE0J32-15">
          <mxCell style="html=1;overflow=block;blockSpacing=1;whiteSpace=wrap;;whiteSpace=wrap;fontSize=13;fontColor=#000000;align=center;spacing=9;strokeColor=#333333;strokeOpacity=100;fillOpacity=100;fillColor=#ffffff;strokeWidth=0.8;" parent="R4NwN_F0OL4F4nNE0J32-1" vertex="1">
            <mxGeometry x="265" y="221" width="150" height="50" as="geometry" />
          </mxCell>
        </UserObject>
        <UserObject label="" lucidchartObjectId="_q3s7hO4m5ir" id="R4NwN_F0OL4F4nNE0J32-16">
          <mxCell style="html=1;jettySize=18;whiteSpace=wrap;fontSize=13;strokeColor=#666666;strokeOpacity=100;strokeWidth=0.8;rounded=1;arcSize=24;edgeStyle=orthogonalEdgeStyle;startArrow=none;;endArrow=block;endFill=1;;exitX=-0.004;exitY=0.5;exitPerimeter=0;entryX=1.003;entryY=0.5;entryPerimeter=0;" parent="R4NwN_F0OL4F4nNE0J32-1" source="R4NwN_F0OL4F4nNE0J32-8" target="R4NwN_F0OL4F4nNE0J32-15" edge="1">
            <mxGeometry width="100" height="100" relative="1" as="geometry">
              <Array as="points" />
            </mxGeometry>
          </mxCell>
        </UserObject>
        <UserObject label="" lucidchartObjectId="_q3sNljl8pzb" id="R4NwN_F0OL4F4nNE0J32-17">
          <mxCell style="html=1;jettySize=18;whiteSpace=wrap;fontSize=13;strokeColor=#666666;strokeOpacity=100;strokeWidth=0.8;rounded=1;arcSize=24;edgeStyle=orthogonalEdgeStyle;startArrow=block;startFill=1;;endArrow=none;;exitX=-0.013;exitY=0.5;exitPerimeter=0;" parent="R4NwN_F0OL4F4nNE0J32-1" source="R4NwN_F0OL4F4nNE0J32-14" edge="1">
            <mxGeometry width="100" height="100" relative="1" as="geometry">
              <Array as="points" />
              <mxPoint x="175" y="169" as="targetPoint" />
            </mxGeometry>
          </mxCell>
        </UserObject>
        <UserObject label="" lucidchartObjectId="_q3ssddd47tN" id="R4NwN_F0OL4F4nNE0J32-18">
          <mxCell style="html=1;jettySize=18;whiteSpace=wrap;fontSize=13;strokeColor=#666666;strokeOpacity=100;strokeWidth=0.8;rounded=1;arcSize=24;edgeStyle=orthogonalEdgeStyle;startArrow=none;;endArrow=block;endFill=1;;exitX=-0.002;exitY=0.5;exitPerimeter=0;entryX=0.5;entryY=1.008;entryPerimeter=0;" parent="R4NwN_F0OL4F4nNE0J32-1" source="R4NwN_F0OL4F4nNE0J32-15" target="R4NwN_F0OL4F4nNE0J32-6" edge="1">
            <mxGeometry width="100" height="100" relative="1" as="geometry">
              <Array as="points">
                <mxPoint x="250" y="246" />
                <mxPoint x="250" y="214" />
                <mxPoint x="355" y="214" />
              </Array>
            </mxGeometry>
          </mxCell>
        </UserObject>
        <UserObject label="" lucidchartObjectId="_q3svVa4Ybr3" id="R4NwN_F0OL4F4nNE0J32-19">
          <mxCell style="html=1;overflow=block;blockSpacing=1;whiteSpace=wrap;container=1;collapsible=0;whiteSpace=wrap;fontSize=13;spacing=0;strokeColor=#333333;strokeOpacity=100;fillOpacity=100;fillColor=#e5e5e5;strokeWidth=0.8;" parent="R4NwN_F0OL4F4nNE0J32-1" vertex="1">
            <mxGeometry x="160" y="371" width="480" height="195" as="geometry" />
          </mxCell>
        </UserObject>
        <UserObject label="MPC controller" lucidchartObjectId="_q3shhoiWzYa" id="R4NwN_F0OL4F4nNE0J32-20">
          <mxCell style="html=1;overflow=block;blockSpacing=1;whiteSpace=wrap;;whiteSpace=wrap;fontSize=13;fontColor=#000000;align=center;spacing=9;strokeColor=#333333;strokeOpacity=100;fillOpacity=100;fillColor=#ffffff;strokeWidth=0.8;" parent="R4NwN_F0OL4F4nNE0J32-1" vertex="1">
            <mxGeometry x="298" y="386" width="117" height="45" as="geometry" />
          </mxCell>
        </UserObject>
        <UserObject label="Vehicle dynamics" lucidchartObjectId="_q3sxtttj225" id="R4NwN_F0OL4F4nNE0J32-21">
          <mxCell style="html=1;overflow=block;blockSpacing=1;whiteSpace=wrap;;whiteSpace=wrap;fontSize=13;fontColor=#000000;align=center;spacing=9;strokeColor=#333333;strokeOpacity=100;fillOpacity=100;fillColor=#ffffff;strokeWidth=0.8;" parent="R4NwN_F0OL4F4nNE0J32-1" vertex="1">
            <mxGeometry x="448" y="386" width="132" height="45" as="geometry" />
          </mxCell>
        </UserObject>
        <UserObject label="Sensors" lucidchartObjectId="_q3sNVu8gTH4" id="R4NwN_F0OL4F4nNE0J32-22">
          <mxCell style="html=1;overflow=block;blockSpacing=1;whiteSpace=wrap;;whiteSpace=wrap;fontSize=13;fontColor=#000000;align=center;spacing=9;strokeColor=#333333;strokeOpacity=100;fillOpacity=100;fillColor=#ffffff;strokeWidth=0.8;" parent="R4NwN_F0OL4F4nNE0J32-1" vertex="1">
            <mxGeometry x="460" y="506" width="105" height="45" as="geometry" />
          </mxCell>
        </UserObject>
        <UserObject label="" lucidchartObjectId="_q3s_zv4mJyy" id="R4NwN_F0OL4F4nNE0J32-23">
          <mxCell style="html=1;jettySize=18;whiteSpace=wrap;fontSize=13;strokeColor=#666666;strokeOpacity=100;strokeWidth=0.8;rounded=1;arcSize=24;edgeStyle=orthogonalEdgeStyle;startArrow=none;;endArrow=block;endFill=1;;exitX=1.003;exitY=0.5;exitPerimeter=0;entryX=-0.003;entryY=0.5;entryPerimeter=0;" parent="R4NwN_F0OL4F4nNE0J32-1" source="R4NwN_F0OL4F4nNE0J32-20" target="R4NwN_F0OL4F4nNE0J32-21" edge="1">
            <mxGeometry width="100" height="100" relative="1" as="geometry">
              <Array as="points" />
            </mxGeometry>
          </mxCell>
        </UserObject>
        <UserObject label="" lucidchartObjectId="_q3ssTthoASi" id="R4NwN_F0OL4F4nNE0J32-24">
          <mxCell style="html=1;jettySize=18;whiteSpace=wrap;fontSize=13;strokeColor=#666666;strokeOpacity=100;strokeWidth=0.8;rounded=1;arcSize=24;edgeStyle=orthogonalEdgeStyle;startArrow=block;startFill=1;;endArrow=none;;exitX=-0.003;exitY=0.5;exitPerimeter=0;entryX=1.013;entryY=0.5;entryPerimeter=0;" parent="R4NwN_F0OL4F4nNE0J32-1" source="R4NwN_F0OL4F4nNE0J32-20" target="R4NwN_F0OL4F4nNE0J32-28" edge="1">
            <mxGeometry width="100" height="100" relative="1" as="geometry">
              <Array as="points" />
            </mxGeometry>
          </mxCell>
        </UserObject>
        <UserObject label="" lucidchartObjectId="_q3sAXXvgl64" id="R4NwN_F0OL4F4nNE0J32-25">
          <mxCell style="html=1;jettySize=18;whiteSpace=wrap;fontSize=13;strokeColor=#666666;strokeOpacity=100;strokeWidth=0.8;rounded=1;arcSize=24;edgeStyle=orthogonalEdgeStyle;startArrow=none;;endArrow=block;endFill=1;;exitX=1.003;exitY=0.5;exitPerimeter=0;" parent="R4NwN_F0OL4F4nNE0J32-1" source="R4NwN_F0OL4F4nNE0J32-21" edge="1">
            <mxGeometry width="100" height="100" relative="1" as="geometry">
              <Array as="points" />
              <mxPoint x="625" y="409" as="targetPoint" />
            </mxGeometry>
          </mxCell>
        </UserObject>
        <UserObject label="" lucidchartObjectId="_q3swwYHlIyR" id="R4NwN_F0OL4F4nNE0J32-26">
          <mxCell style="html=1;jettySize=18;whiteSpace=wrap;fontSize=13;strokeColor=#666666;strokeOpacity=100;strokeWidth=0.8;rounded=1;arcSize=24;edgeStyle=orthogonalEdgeStyle;startArrow=none;;endArrow=block;endFill=1;;exitX=1.003;exitY=0.5;exitPerimeter=0;entryX=1.004;entryY=0.5;entryPerimeter=0;" parent="R4NwN_F0OL4F4nNE0J32-1" source="R4NwN_F0OL4F4nNE0J32-21" target="R4NwN_F0OL4F4nNE0J32-22" edge="1">
            <mxGeometry width="100" height="100" relative="1" as="geometry">
              <Array as="points">
                <mxPoint x="595" y="409" />
                <mxPoint x="595" y="529" />
              </Array>
            </mxGeometry>
          </mxCell>
        </UserObject>
        <UserObject label="" lucidchartObjectId="_q3sgv1UOOT2" id="R4NwN_F0OL4F4nNE0J32-27">
          <mxCell style="html=1;jettySize=18;whiteSpace=wrap;fontSize=13;strokeColor=#666666;strokeOpacity=100;strokeWidth=0.8;rounded=1;arcSize=24;edgeStyle=orthogonalEdgeStyle;startArrow=none;;endArrow=block;endFill=1;;exitX=-0.004;exitY=0.5;exitPerimeter=0;entryX=0.5;entryY=1.013;entryPerimeter=0;" parent="R4NwN_F0OL4F4nNE0J32-1" source="R4NwN_F0OL4F4nNE0J32-22" target="R4NwN_F0OL4F4nNE0J32-28" edge="1">
            <mxGeometry width="100" height="100" relative="1" as="geometry">
              <Array as="points" />
            </mxGeometry>
          </mxCell>
        </UserObject>
        <UserObject label="" lucidchartObjectId="_q3snNt-qUUz" id="R4NwN_F0OL4F4nNE0J32-28">
          <mxCell style="html=1;overflow=block;blockSpacing=1;whiteSpace=wrap;ellipse;container=1;collapsible=0;whiteSpace=wrap;fontSize=13;spacing=0;strokeColor=#333333;strokeOpacity=100;fillOpacity=100;fillColor=#ffffff;strokeWidth=0.8;" parent="R4NwN_F0OL4F4nNE0J32-1" vertex="1">
            <mxGeometry x="220" y="394" width="30" height="30" as="geometry" />
          </mxCell>
        </UserObject>
        <UserObject label="Friction estimator" lucidchartObjectId="_q3sMi27wzMX" id="R4NwN_F0OL4F4nNE0J32-29">
          <mxCell style="html=1;overflow=block;blockSpacing=1;whiteSpace=wrap;;whiteSpace=wrap;fontSize=13;fontColor=#000000;align=center;spacing=9;strokeColor=#333333;strokeOpacity=100;fillOpacity=100;fillColor=#ffffff;strokeWidth=0.8;" parent="R4NwN_F0OL4F4nNE0J32-1" vertex="1">
            <mxGeometry x="265" y="461" width="150" height="50" as="geometry" />
          </mxCell>
        </UserObject>
        <UserObject label="" lucidchartObjectId="_q3s9lEg85fa" id="R4NwN_F0OL4F4nNE0J32-30">
          <mxCell style="html=1;jettySize=18;whiteSpace=wrap;fontSize=13;strokeColor=#666666;strokeOpacity=100;strokeWidth=0.8;rounded=1;arcSize=24;edgeStyle=orthogonalEdgeStyle;startArrow=none;;endArrow=block;endFill=1;;exitX=-0.004;exitY=0.5;exitPerimeter=0;entryX=1.003;entryY=0.5;entryPerimeter=0;" parent="R4NwN_F0OL4F4nNE0J32-1" source="R4NwN_F0OL4F4nNE0J32-22" target="R4NwN_F0OL4F4nNE0J32-29" edge="1">
            <mxGeometry width="100" height="100" relative="1" as="geometry">
              <Array as="points" />
            </mxGeometry>
          </mxCell>
        </UserObject>
        <UserObject label="" lucidchartObjectId="_q3skHQ_JqEK" id="R4NwN_F0OL4F4nNE0J32-31">
          <mxCell style="html=1;jettySize=18;whiteSpace=wrap;fontSize=13;strokeColor=#666666;strokeOpacity=100;strokeWidth=0.8;rounded=1;arcSize=24;edgeStyle=orthogonalEdgeStyle;startArrow=block;startFill=1;;endArrow=none;;exitX=-0.013;exitY=0.5;exitPerimeter=0;" parent="R4NwN_F0OL4F4nNE0J32-1" source="R4NwN_F0OL4F4nNE0J32-28" edge="1">
            <mxGeometry width="100" height="100" relative="1" as="geometry">
              <Array as="points" />
              <mxPoint x="175" y="409" as="targetPoint" />
            </mxGeometry>
          </mxCell>
        </UserObject>
        <UserObject label="" lucidchartObjectId="_q3sj7vKNzp_" id="R4NwN_F0OL4F4nNE0J32-32">
          <mxCell style="html=1;jettySize=18;whiteSpace=wrap;fontSize=13;strokeColor=#666666;strokeOpacity=100;strokeWidth=0.8;rounded=1;arcSize=24;edgeStyle=orthogonalEdgeStyle;startArrow=none;;endArrow=block;endFill=1;;exitX=-0.002;exitY=0.5;exitPerimeter=0;entryX=0.5;entryY=1.008;entryPerimeter=0;" parent="R4NwN_F0OL4F4nNE0J32-1" source="R4NwN_F0OL4F4nNE0J32-29" target="R4NwN_F0OL4F4nNE0J32-20" edge="1">
            <mxGeometry width="100" height="100" relative="1" as="geometry">
              <Array as="points">
                <mxPoint x="250" y="486" />
                <mxPoint x="250" y="454" />
                <mxPoint x="357" y="454" />
              </Array>
            </mxGeometry>
          </mxCell>
        </UserObject>
        <UserObject label="" lucidchartObjectId="_q3sUo2.Qalu" id="R4NwN_F0OL4F4nNE0J32-33">
          <mxCell style="html=1;overflow=block;blockSpacing=1;whiteSpace=wrap;container=1;collapsible=0;whiteSpace=wrap;fontSize=13;spacing=0;strokeColor=#333333;strokeOpacity=100;fillOpacity=100;fillColor=#e5e5e5;strokeWidth=0.8;" parent="R4NwN_F0OL4F4nNE0J32-1" vertex="1">
            <mxGeometry x="160" y="746" width="480" height="195" as="geometry" />
          </mxCell>
        </UserObject>
        <UserObject label="MPC controller" lucidchartObjectId="_q3soC0Q93RU" id="R4NwN_F0OL4F4nNE0J32-34">
          <mxCell style="html=1;overflow=block;blockSpacing=1;whiteSpace=wrap;;whiteSpace=wrap;fontSize=13;fontColor=#000000;align=center;spacing=9;strokeColor=#333333;strokeOpacity=100;fillOpacity=100;fillColor=#ffffff;strokeWidth=0.8;" parent="R4NwN_F0OL4F4nNE0J32-1" vertex="1">
            <mxGeometry x="298" y="761" width="117" height="45" as="geometry" />
          </mxCell>
        </UserObject>
        <UserObject label="Vehicle dynamics" lucidchartObjectId="_q3suL5btw8m" id="R4NwN_F0OL4F4nNE0J32-35">
          <mxCell style="html=1;overflow=block;blockSpacing=1;whiteSpace=wrap;;whiteSpace=wrap;fontSize=13;fontColor=#000000;align=center;spacing=9;strokeColor=#333333;strokeOpacity=100;fillOpacity=100;fillColor=#ffffff;strokeWidth=0.8;" parent="R4NwN_F0OL4F4nNE0J32-1" vertex="1">
            <mxGeometry x="448" y="758" width="132" height="50" as="geometry" />
          </mxCell>
        </UserObject>
        <UserObject label="Sensors" lucidchartObjectId="_q3sZZ4rh0FF" id="R4NwN_F0OL4F4nNE0J32-36">
          <mxCell style="html=1;overflow=block;blockSpacing=1;whiteSpace=wrap;;whiteSpace=wrap;fontSize=13;fontColor=#000000;align=center;spacing=9;strokeColor=#333333;strokeOpacity=100;fillOpacity=100;fillColor=#ffffff;strokeWidth=0.8;" parent="R4NwN_F0OL4F4nNE0J32-1" vertex="1">
            <mxGeometry x="460" y="881" width="105" height="45" as="geometry" />
          </mxCell>
        </UserObject>
        <UserObject label="" lucidchartObjectId="_q3sf9OY4Chg" id="R4NwN_F0OL4F4nNE0J32-37">
          <mxCell style="html=1;jettySize=18;whiteSpace=wrap;fontSize=13;strokeColor=#666666;strokeOpacity=100;strokeWidth=0.8;rounded=1;arcSize=24;edgeStyle=orthogonalEdgeStyle;startArrow=none;;endArrow=block;endFill=1;;exitX=1.003;exitY=0.5;exitPerimeter=0;entryX=-0.003;entryY=0.5;entryPerimeter=0;" parent="R4NwN_F0OL4F4nNE0J32-1" source="R4NwN_F0OL4F4nNE0J32-34" target="R4NwN_F0OL4F4nNE0J32-35" edge="1">
            <mxGeometry width="100" height="100" relative="1" as="geometry">
              <Array as="points" />
            </mxGeometry>
          </mxCell>
        </UserObject>
        <UserObject label="" lucidchartObjectId="_q3spK0NLROU" id="R4NwN_F0OL4F4nNE0J32-38">
          <mxCell style="html=1;jettySize=18;whiteSpace=wrap;fontSize=13;strokeColor=#666666;strokeOpacity=100;strokeWidth=0.8;rounded=1;arcSize=24;edgeStyle=orthogonalEdgeStyle;startArrow=block;startFill=1;;endArrow=none;;exitX=-0.003;exitY=0.5;exitPerimeter=0;entryX=1.013;entryY=0.5;entryPerimeter=0;" parent="R4NwN_F0OL4F4nNE0J32-1" source="R4NwN_F0OL4F4nNE0J32-34" target="R4NwN_F0OL4F4nNE0J32-42" edge="1">
            <mxGeometry width="100" height="100" relative="1" as="geometry">
              <Array as="points" />
            </mxGeometry>
          </mxCell>
        </UserObject>
        <UserObject label="" lucidchartObjectId="_q3sbNF5fh2t" id="R4NwN_F0OL4F4nNE0J32-39">
          <mxCell style="html=1;jettySize=18;whiteSpace=wrap;fontSize=13;strokeColor=#666666;strokeOpacity=100;strokeWidth=0.8;rounded=1;arcSize=24;edgeStyle=orthogonalEdgeStyle;startArrow=none;;endArrow=block;endFill=1;;exitX=1.003;exitY=0.5;exitPerimeter=0;" parent="R4NwN_F0OL4F4nNE0J32-1" source="R4NwN_F0OL4F4nNE0J32-35" edge="1">
            <mxGeometry width="100" height="100" relative="1" as="geometry">
              <Array as="points" />
              <mxPoint x="625" y="784" as="targetPoint" />
            </mxGeometry>
          </mxCell>
        </UserObject>
        <UserObject label="" lucidchartObjectId="_q3slpN78sUo" id="R4NwN_F0OL4F4nNE0J32-40">
          <mxCell style="html=1;jettySize=18;whiteSpace=wrap;fontSize=13;strokeColor=#666666;strokeOpacity=100;strokeWidth=0.8;rounded=1;arcSize=24;edgeStyle=orthogonalEdgeStyle;startArrow=none;;endArrow=block;endFill=1;;exitX=1.003;exitY=0.5;exitPerimeter=0;entryX=1.004;entryY=0.5;entryPerimeter=0;" parent="R4NwN_F0OL4F4nNE0J32-1" source="R4NwN_F0OL4F4nNE0J32-35" target="R4NwN_F0OL4F4nNE0J32-36" edge="1">
            <mxGeometry width="100" height="100" relative="1" as="geometry">
              <Array as="points">
                <mxPoint x="603" y="784" />
                <mxPoint x="603" y="904" />
              </Array>
            </mxGeometry>
          </mxCell>
        </UserObject>
        <UserObject label="" lucidchartObjectId="_q3smmb~wH7z" id="R4NwN_F0OL4F4nNE0J32-41">
          <mxCell style="html=1;jettySize=18;whiteSpace=wrap;fontSize=13;strokeColor=#666666;strokeOpacity=100;strokeWidth=0.8;rounded=1;arcSize=24;edgeStyle=orthogonalEdgeStyle;startArrow=none;;endArrow=block;endFill=1;;exitX=-0.004;exitY=0.5;exitPerimeter=0;entryX=0.5;entryY=1.013;entryPerimeter=0;" parent="R4NwN_F0OL4F4nNE0J32-1" source="R4NwN_F0OL4F4nNE0J32-36" target="R4NwN_F0OL4F4nNE0J32-42" edge="1">
            <mxGeometry width="100" height="100" relative="1" as="geometry">
              <Array as="points" />
            </mxGeometry>
          </mxCell>
        </UserObject>
        <UserObject label="" lucidchartObjectId="_q3sD4NqQt_i" id="R4NwN_F0OL4F4nNE0J32-42">
          <mxCell style="html=1;overflow=block;blockSpacing=1;whiteSpace=wrap;ellipse;container=1;collapsible=0;whiteSpace=wrap;fontSize=13;spacing=0;strokeColor=#333333;strokeOpacity=100;fillOpacity=100;fillColor=#ffffff;strokeWidth=0.8;" parent="R4NwN_F0OL4F4nNE0J32-1" vertex="1">
            <mxGeometry x="220" y="769" width="30" height="30" as="geometry" />
          </mxCell>
        </UserObject>
        <UserObject label="Friction estimator" lucidchartObjectId="_q3spkqldK5g" id="R4NwN_F0OL4F4nNE0J32-43">
          <mxCell style="html=1;overflow=block;blockSpacing=1;whiteSpace=wrap;;whiteSpace=wrap;fontSize=13;fontColor=#000000;align=center;spacing=9;strokeColor=#333333;strokeOpacity=100;fillOpacity=100;fillColor=#ffffff;strokeWidth=0.8;" parent="R4NwN_F0OL4F4nNE0J32-1" vertex="1">
            <mxGeometry x="265" y="836" width="150" height="50" as="geometry" />
          </mxCell>
        </UserObject>
        <UserObject label="" lucidchartObjectId="_q3sl3FD7JEe" id="R4NwN_F0OL4F4nNE0J32-44">
          <mxCell style="html=1;jettySize=18;whiteSpace=wrap;fontSize=13;strokeColor=#666666;strokeOpacity=100;strokeWidth=0.8;rounded=1;arcSize=24;edgeStyle=orthogonalEdgeStyle;startArrow=none;;endArrow=block;endFill=1;;exitX=-0.004;exitY=0.5;exitPerimeter=0;entryX=1.003;entryY=0.5;entryPerimeter=0;" parent="R4NwN_F0OL4F4nNE0J32-1" source="R4NwN_F0OL4F4nNE0J32-36" target="R4NwN_F0OL4F4nNE0J32-43" edge="1">
            <mxGeometry width="100" height="100" relative="1" as="geometry">
              <Array as="points" />
            </mxGeometry>
          </mxCell>
        </UserObject>
        <UserObject label="" lucidchartObjectId="_q3sGt_YEy-a" id="R4NwN_F0OL4F4nNE0J32-45">
          <mxCell style="html=1;jettySize=18;whiteSpace=wrap;fontSize=13;strokeColor=#666666;strokeOpacity=100;strokeWidth=0.8;rounded=1;arcSize=24;edgeStyle=orthogonalEdgeStyle;startArrow=block;startFill=1;;endArrow=none;;exitX=-0.013;exitY=0.5;exitPerimeter=0;" parent="R4NwN_F0OL4F4nNE0J32-1" source="R4NwN_F0OL4F4nNE0J32-42" edge="1">
            <mxGeometry width="100" height="100" relative="1" as="geometry">
              <Array as="points" />
              <mxPoint x="175" y="784" as="targetPoint" />
            </mxGeometry>
          </mxCell>
        </UserObject>
        <UserObject label="" lucidchartObjectId="_q3syH~EdTcs" id="R4NwN_F0OL4F4nNE0J32-46">
          <mxCell style="html=1;jettySize=18;whiteSpace=wrap;fontSize=13;strokeColor=#666666;strokeOpacity=100;strokeWidth=0.8;rounded=1;arcSize=24;edgeStyle=orthogonalEdgeStyle;startArrow=none;;endArrow=block;endFill=1;;exitX=-0.002;exitY=0.5;exitPerimeter=0;entryX=0.5;entryY=1.008;entryPerimeter=0;" parent="R4NwN_F0OL4F4nNE0J32-1" source="R4NwN_F0OL4F4nNE0J32-43" target="R4NwN_F0OL4F4nNE0J32-34" edge="1">
            <mxGeometry width="100" height="100" relative="1" as="geometry">
              <Array as="points">
                <mxPoint x="250" y="861" />
                <mxPoint x="250" y="829" />
                <mxPoint x="357" y="829" />
              </Array>
            </mxGeometry>
          </mxCell>
        </UserObject>
        <UserObject label="" lucidchartObjectId="_q3sPpd2y.PH" id="R4NwN_F0OL4F4nNE0J32-47">
          <mxCell style="html=1;overflow=block;blockSpacing=1;whiteSpace=wrap;container=1;collapsible=0;whiteSpace=wrap;fontSize=13;spacing=0;strokeColor=#333333;strokeOpacity=100;fillOpacity=19;fillColor=#fcc438;dashed=1;fixDash=1;dashPattern=16 6;strokeWidth=0.8;" parent="R4NwN_F0OL4F4nNE0J32-1" vertex="1">
            <mxGeometry x="1045" y="296" width="705" height="480" as="geometry" />
          </mxCell>
        </UserObject>
        <UserObject label="Communications Interface/&#xa;Protocol" lucidchartObjectId="_q3sdJaIwXV-" id="R4NwN_F0OL4F4nNE0J32-48">
          <mxCell style="html=1;overflow=block;blockSpacing=1;whiteSpace=wrap;;whiteSpace=wrap;fontSize=13;fontColor=#000000;align=center;spacing=3.8;strokeColor=#333333;strokeOpacity=100;fillOpacity=27;fillColor=#c7e8ac;strokeWidth=0.8;" parent="R4NwN_F0OL4F4nNE0J32-1" vertex="1">
            <mxGeometry x="730" y="131" width="120" height="870" as="geometry" />
          </mxCell>
        </UserObject>
        <UserObject label="Context discovery" lucidchartObjectId="_q3slc-uDzYw" id="R4NwN_F0OL4F4nNE0J32-49">
          <mxCell style="html=1;overflow=block;blockSpacing=1;whiteSpace=wrap;;whiteSpace=wrap;fontSize=13;fontColor=#000000;align=center;spacing=9;strokeColor=#333333;strokeOpacity=100;fillOpacity=100;fillColor=#ffffff;strokeWidth=0.8;" parent="R4NwN_F0OL4F4nNE0J32-1" vertex="1">
            <mxGeometry x="1165" y="476" width="120" height="90" as="geometry" />
          </mxCell>
        </UserObject>
        <UserObject label="Context-based Aggregation" lucidchartObjectId="_q3sv2Nb_xYL" id="R4NwN_F0OL4F4nNE0J32-50">
          <mxCell style="html=1;overflow=block;blockSpacing=1;whiteSpace=wrap;;whiteSpace=wrap;fontSize=13;fontColor=#000000;align=center;spacing=9;strokeColor=#333333;strokeOpacity=100;fillOpacity=100;fillColor=#ffffff;strokeWidth=0.8;" parent="R4NwN_F0OL4F4nNE0J32-1" vertex="1">
            <mxGeometry x="1255" y="341" width="120" height="90" as="geometry" />
          </mxCell>
        </UserObject>
        <UserObject label="" lucidchartObjectId="_q3sBJX2jDkm" id="R4NwN_F0OL4F4nNE0J32-51">
          <mxCell style="html=1;jettySize=18;whiteSpace=wrap;fontSize=13;strokeColor=#666666;strokeOpacity=100;strokeWidth=0.8;rounded=1;arcSize=24;edgeStyle=orthogonalEdgeStyle;startArrow=none;;endArrow=block;endFill=1;;exitX=1.003;exitY=0.5;exitPerimeter=0;entryX=-0.003;entryY=0.593;entryPerimeter=0;" parent="R4NwN_F0OL4F4nNE0J32-1" source="R4NwN_F0OL4F4nNE0J32-49" target="R4NwN_F0OL4F4nNE0J32-50" edge="1">
            <mxGeometry width="100" height="100" relative="1" as="geometry">
              <Array as="points" />
            </mxGeometry>
          </mxCell>
        </UserObject>
        <mxCell id="R4NwN_F0OL4F4nNE0J32-52" value="Context&#xa;scale" style="text;html=1;resizable=0;labelBackgroundColor=#ffffff;align=center;verticalAlign=middle;fontColor=#000000;;fontSize=13;" parent="R4NwN_F0OL4F4nNE0J32-51" vertex="1">
          <mxGeometry x="0.5688167614994502" relative="1" as="geometry" />
        </mxCell>
        <UserObject label="Aggregate contextualized&#xa;DB 1" lucidchartObjectId="_q3s-cawzxIQ" id="R4NwN_F0OL4F4nNE0J32-53">
          <mxCell style="html=1;overflow=block;blockSpacing=1;whiteSpace=wrap;shape=cylinder3;size=4;anchorPointDirection=0;boundedLbl=1;;whiteSpace=wrap;fontSize=13;fontColor=#000000;align=center;spacing=3.8;strokeColor=#333333;strokeOpacity=100;fillOpacity=100;fillColor=#ffffff;strokeWidth=0.8;" parent="R4NwN_F0OL4F4nNE0J32-1" vertex="1">
            <mxGeometry x="1420" y="311" width="90" height="83" as="geometry" />
          </mxCell>
        </UserObject>
        <UserObject label="Aggregate DB 2" lucidchartObjectId="_q3skCkZRCh6" id="R4NwN_F0OL4F4nNE0J32-54">
          <mxCell style="html=1;overflow=block;blockSpacing=1;whiteSpace=wrap;shape=cylinder3;size=4;anchorPointDirection=0;boundedLbl=1;;whiteSpace=wrap;fontSize=13;fontColor=#000000;align=center;spacing=3.8;strokeColor=#333333;strokeOpacity=100;fillOpacity=100;fillColor=#ffffff;strokeWidth=0.8;" parent="R4NwN_F0OL4F4nNE0J32-1" vertex="1">
            <mxGeometry x="1420" y="401" width="90" height="90" as="geometry" />
          </mxCell>
        </UserObject>
        <UserObject label="Aggregate DB k" lucidchartObjectId="_q3s3rW5cQ4M" id="R4NwN_F0OL4F4nNE0J32-55">
          <mxCell style="html=1;overflow=block;blockSpacing=1;whiteSpace=wrap;shape=cylinder3;size=4;anchorPointDirection=0;boundedLbl=1;;whiteSpace=wrap;fontSize=13;fontColor=#000000;align=center;spacing=3.8;strokeColor=#333333;strokeOpacity=100;fillOpacity=100;fillColor=#ffffff;strokeWidth=0.8;" parent="R4NwN_F0OL4F4nNE0J32-1" vertex="1">
            <mxGeometry x="1420" y="551" width="90" height="83" as="geometry" />
          </mxCell>
        </UserObject>
        <UserObject label="" lucidchartObjectId="_q3sJoHtJIqs" id="R4NwN_F0OL4F4nNE0J32-56">
          <mxCell style="html=1;jettySize=18;whiteSpace=wrap;fontSize=13;strokeColor=#666666;strokeOpacity=100;strokeWidth=0.8;rounded=1;arcSize=24;edgeStyle=orthogonalEdgeStyle;startArrow=none;;endArrow=block;endFill=1;;exitX=1.003;exitY=0.5;exitPerimeter=0;entryX=-0.004;entryY=0.5;entryPerimeter=0;" parent="R4NwN_F0OL4F4nNE0J32-1" source="R4NwN_F0OL4F4nNE0J32-50" target="R4NwN_F0OL4F4nNE0J32-53" edge="1">
            <mxGeometry width="100" height="100" relative="1" as="geometry">
              <Array as="points" />
            </mxGeometry>
          </mxCell>
        </UserObject>
        <UserObject label="" lucidchartObjectId="_q3sZJtR-lwI" id="R4NwN_F0OL4F4nNE0J32-57">
          <mxCell style="html=1;jettySize=18;whiteSpace=wrap;fontSize=13;strokeColor=#666666;strokeOpacity=100;strokeWidth=0.8;rounded=1;arcSize=24;edgeStyle=orthogonalEdgeStyle;startArrow=none;;endArrow=block;endFill=1;;exitX=1.003;exitY=0.5;exitPerimeter=0;entryX=-0.004;entryY=0.5;entryPerimeter=0;" parent="R4NwN_F0OL4F4nNE0J32-1" source="R4NwN_F0OL4F4nNE0J32-50" target="R4NwN_F0OL4F4nNE0J32-54" edge="1">
            <mxGeometry width="100" height="100" relative="1" as="geometry">
              <Array as="points" />
            </mxGeometry>
          </mxCell>
        </UserObject>
        <UserObject label="" lucidchartObjectId="_q3s.Pf6TlBL" id="R4NwN_F0OL4F4nNE0J32-58">
          <mxCell style="html=1;jettySize=18;whiteSpace=wrap;fontSize=13;strokeColor=#666666;strokeOpacity=100;strokeWidth=0.8;rounded=1;arcSize=24;edgeStyle=orthogonalEdgeStyle;startArrow=none;;endArrow=block;endFill=1;;exitX=1.003;exitY=0.5;exitPerimeter=0;entryX=-0.004;entryY=0.5;entryPerimeter=0;" parent="R4NwN_F0OL4F4nNE0J32-1" source="R4NwN_F0OL4F4nNE0J32-50" target="R4NwN_F0OL4F4nNE0J32-55" edge="1">
            <mxGeometry width="100" height="100" relative="1" as="geometry">
              <Array as="points" />
            </mxGeometry>
          </mxCell>
        </UserObject>
        <UserObject label="Model 1" lucidchartObjectId="_q3sWX4s7R8q" id="R4NwN_F0OL4F4nNE0J32-59">
          <mxCell style="html=1;overflow=block;blockSpacing=1;whiteSpace=wrap;;whiteSpace=wrap;fontSize=13;fontColor=#000000;align=center;spacing=9;strokeColor=#333333;strokeOpacity=100;fillOpacity=100;fillColor=#ffffff;strokeWidth=0.8;" parent="R4NwN_F0OL4F4nNE0J32-1" vertex="1">
            <mxGeometry x="1585" y="360" width="105" height="53" as="geometry" />
          </mxCell>
        </UserObject>
        <UserObject label="Model M" lucidchartObjectId="_q3s9HcdBm4A" id="R4NwN_F0OL4F4nNE0J32-60">
          <mxCell style="html=1;overflow=block;blockSpacing=1;whiteSpace=wrap;;whiteSpace=wrap;fontSize=13;fontColor=#000000;align=center;spacing=9;strokeColor=#333333;strokeOpacity=100;fillOpacity=100;fillColor=#ffffff;strokeWidth=0.8;" parent="R4NwN_F0OL4F4nNE0J32-1" vertex="1">
            <mxGeometry x="1585" y="491" width="105" height="53" as="geometry" />
          </mxCell>
        </UserObject>
        <UserObject label="" lucidchartObjectId="_q3su-ZKXDfv" id="R4NwN_F0OL4F4nNE0J32-61">
          <mxCell style="html=1;jettySize=18;whiteSpace=wrap;fontSize=13;strokeColor=#666666;strokeOpacity=100;strokeWidth=0.8;rounded=1;arcSize=24;edgeStyle=orthogonalEdgeStyle;startArrow=none;;endArrow=block;endFill=1;;exitX=1.004;exitY=0.5;exitPerimeter=0;entryX=-0.004;entryY=0.5;entryPerimeter=0;" parent="R4NwN_F0OL4F4nNE0J32-1" source="R4NwN_F0OL4F4nNE0J32-53" target="R4NwN_F0OL4F4nNE0J32-59" edge="1">
            <mxGeometry width="100" height="100" relative="1" as="geometry">
              <Array as="points" />
            </mxGeometry>
          </mxCell>
        </UserObject>
        <UserObject label="" lucidchartObjectId="_q3sKgkowAVP" id="R4NwN_F0OL4F4nNE0J32-62">
          <mxCell style="html=1;jettySize=18;whiteSpace=wrap;fontSize=13;strokeColor=#666666;strokeOpacity=100;strokeWidth=0.8;rounded=1;arcSize=24;edgeStyle=orthogonalEdgeStyle;startArrow=none;;endArrow=block;endFill=1;;exitX=1.004;exitY=0.5;exitPerimeter=0;entryX=-0.004;entryY=0.5;entryPerimeter=0;" parent="R4NwN_F0OL4F4nNE0J32-1" source="R4NwN_F0OL4F4nNE0J32-55" target="R4NwN_F0OL4F4nNE0J32-60" edge="1">
            <mxGeometry width="100" height="100" relative="1" as="geometry">
              <Array as="points" />
            </mxGeometry>
          </mxCell>
        </UserObject>
        <UserObject label="" lucidchartObjectId="_q3slKf9TOII" id="R4NwN_F0OL4F4nNE0J32-63">
          <mxCell style="html=1;jettySize=18;whiteSpace=wrap;fontSize=13;strokeColor=#666666;strokeOpacity=100;strokeWidth=0.8;rounded=1;arcSize=24;edgeStyle=orthogonalEdgeStyle;startArrow=none;;endArrow=block;endFill=1;;exitX=-0.002;exitY=0.5;exitPerimeter=0;entryX=-0.003;entryY=0.951;entryPerimeter=0;" parent="R4NwN_F0OL4F4nNE0J32-1" source="R4NwN_F0OL4F4nNE0J32-43" target="R4NwN_F0OL4F4nNE0J32-48" edge="1">
            <mxGeometry width="100" height="100" relative="1" as="geometry">
              <Array as="points">
                <mxPoint x="250" y="861" />
                <mxPoint x="250" y="956" />
              </Array>
            </mxGeometry>
          </mxCell>
        </UserObject>
        <mxCell id="R4NwN_F0OL4F4nNE0J32-64" value="Friction estimate to populate Raw DB" style="text;html=1;resizable=0;labelBackgroundColor=#ffffff;align=center;verticalAlign=middle;fontColor=#000000;;fontSize=13;" parent="R4NwN_F0OL4F4nNE0J32-63" vertex="1">
          <mxGeometry x="0.38336748212380956" relative="1" as="geometry" />
        </mxCell>
        <UserObject label="Raw DB" lucidchartObjectId="vr3sK8uEFy~M" id="R4NwN_F0OL4F4nNE0J32-65">
          <mxCell style="html=1;overflow=block;blockSpacing=1;whiteSpace=wrap;shape=cylinder3;size=4;anchorPointDirection=0;boundedLbl=1;;whiteSpace=wrap;fontSize=13;fontColor=#000000;align=center;spacing=3.8;strokeColor=#333333;strokeOpacity=100;fillOpacity=100;fillColor=#ffffff;strokeWidth=0.8;" parent="R4NwN_F0OL4F4nNE0J32-1" vertex="1">
            <mxGeometry x="1060" y="311" width="90" height="135" as="geometry" />
          </mxCell>
        </UserObject>
        <UserObject label="" lucidchartObjectId="Ir3sXwLuY~WR" id="R4NwN_F0OL4F4nNE0J32-66">
          <mxCell style="html=1;jettySize=18;whiteSpace=wrap;fontSize=13;strokeColor=#666666;strokeOpacity=100;strokeWidth=0.8;rounded=1;arcSize=24;edgeStyle=orthogonalEdgeStyle;startArrow=none;;endArrow=block;endFill=1;;exitX=1.004;exitY=0.5;exitPerimeter=0;entryX=-0.003;entryY=0.417;entryPerimeter=0;" parent="R4NwN_F0OL4F4nNE0J32-1" source="R4NwN_F0OL4F4nNE0J32-65" target="R4NwN_F0OL4F4nNE0J32-50" edge="1">
            <mxGeometry width="100" height="100" relative="1" as="geometry">
              <Array as="points" />
            </mxGeometry>
          </mxCell>
        </UserObject>
        <mxCell id="R4NwN_F0OL4F4nNE0J32-67" value="Data" style="text;html=1;resizable=0;labelBackgroundColor=#ffffff;align=center;verticalAlign=middle;fontColor=#000000;;fontSize=13;" parent="R4NwN_F0OL4F4nNE0J32-66" vertex="1">
          <mxGeometry x="-0.1463339966318351" relative="1" as="geometry" />
        </mxCell>
        <UserObject label="" lucidchartObjectId="Lr3sU9ZXQC45" id="R4NwN_F0OL4F4nNE0J32-68">
          <mxCell style="html=1;jettySize=18;whiteSpace=wrap;fontSize=13;strokeColor=#666666;strokeOpacity=100;strokeWidth=0.8;rounded=1;arcSize=24;edgeStyle=orthogonalEdgeStyle;startArrow=none;;endArrow=block;endFill=1;;exitX=0.5;exitY=1.003;exitPerimeter=0;entryX=-0.003;entryY=0.5;entryPerimeter=0;" parent="R4NwN_F0OL4F4nNE0J32-1" source="R4NwN_F0OL4F4nNE0J32-65" target="R4NwN_F0OL4F4nNE0J32-49" edge="1">
            <mxGeometry width="100" height="100" relative="1" as="geometry">
              <Array as="points" />
            </mxGeometry>
          </mxCell>
        </UserObject>
        <UserObject label="Server &#xa;Interface&#xa;&#xa;&#xa;&#xa;" lucidchartObjectId="qs3s3aPJvgVE" id="R4NwN_F0OL4F4nNE0J32-69">
          <mxCell style="html=1;overflow=block;blockSpacing=1;whiteSpace=wrap;;whiteSpace=wrap;fontSize=13;fontColor=#000000;align=center;spacing=3.8;strokeColor=#333333;strokeOpacity=100;fillOpacity=34;fillColor=#c1e4f7;strokeWidth=0.8;" parent="R4NwN_F0OL4F4nNE0J32-1" vertex="1">
            <mxGeometry x="895" y="596" width="120" height="405" as="geometry" />
          </mxCell>
        </UserObject>
        <UserObject label="Data Insertion Protocol Layer&#xa;(Populate DB)" lucidchartObjectId="At3sJHafZNwY" id="R4NwN_F0OL4F4nNE0J32-70">
          <mxCell style="html=1;overflow=block;blockSpacing=1;whiteSpace=wrap;;whiteSpace=wrap;fontSize=13;fontColor=#000000;align=center;spacing=3.8;strokeColor=#333333;strokeOpacity=100;fillOpacity=100;fillColor=#ffffff;strokeWidth=0.8;" parent="R4NwN_F0OL4F4nNE0J32-1" vertex="1">
            <mxGeometry x="895" y="131" width="120" height="380" as="geometry" />
          </mxCell>
        </UserObject>
        <UserObject label="" lucidchartObjectId="rx3sOJRHICS-" id="R4NwN_F0OL4F4nNE0J32-71">
          <mxCell style="html=1;jettySize=18;whiteSpace=wrap;fontSize=13;strokeColor=#666666;strokeOpacity=100;strokeWidth=0.8;rounded=1;arcSize=24;edgeStyle=orthogonalEdgeStyle;startArrow=none;;endArrow=block;endFill=1;;exitX=1.003;exitY=0.056;exitPerimeter=0;entryX=-0.003;entryY=0.128;entryPerimeter=0;" parent="R4NwN_F0OL4F4nNE0J32-1" source="R4NwN_F0OL4F4nNE0J32-48" target="R4NwN_F0OL4F4nNE0J32-70" edge="1">
            <mxGeometry width="100" height="100" relative="1" as="geometry">
              <Array as="points" />
            </mxGeometry>
          </mxCell>
        </UserObject>
        <UserObject label="" lucidchartObjectId="tx3sliadHNiQ" id="R4NwN_F0OL4F4nNE0J32-72">
          <mxCell style="html=1;jettySize=18;whiteSpace=wrap;fontSize=13;strokeColor=#666666;strokeOpacity=100;strokeWidth=2.3;rounded=1;arcSize=24;edgeStyle=orthogonalEdgeStyle;startArrow=none;;endArrow=block;endFill=1;;entryX=-0.003;entryY=0.198;entryPerimeter=0;" parent="R4NwN_F0OL4F4nNE0J32-1" target="R4NwN_F0OL4F4nNE0J32-70" edge="1">
            <mxGeometry width="100" height="100" relative="1" as="geometry">
              <Array as="points" />
              <mxPoint x="851" y="206" as="sourcePoint" />
            </mxGeometry>
          </mxCell>
        </UserObject>
        <UserObject label="" lucidchartObjectId="Dx3s6l~ndJbO" id="R4NwN_F0OL4F4nNE0J32-73">
          <mxCell style="html=1;jettySize=18;whiteSpace=wrap;fontSize=13;strokeColor=#666666;strokeOpacity=100;strokeWidth=0.8;rounded=1;arcSize=24;edgeStyle=orthogonalEdgeStyle;startArrow=none;;endArrow=block;endFill=1;;exitX=1.003;exitY=0.616;exitPerimeter=0;entryX=-0.004;entryY=0.403;entryPerimeter=0;" parent="R4NwN_F0OL4F4nNE0J32-1" source="R4NwN_F0OL4F4nNE0J32-70" target="R4NwN_F0OL4F4nNE0J32-65" edge="1">
            <mxGeometry width="100" height="100" relative="1" as="geometry">
              <Array as="points" />
            </mxGeometry>
          </mxCell>
        </UserObject>
        <UserObject label="" lucidchartObjectId="Ny3shK8Z5Pxl" id="R4NwN_F0OL4F4nNE0J32-74">
          <mxCell style="html=1;jettySize=18;whiteSpace=wrap;fontSize=13;strokeColor=#0c7cba;strokeOpacity=100;strokeWidth=2.3;rounded=1;arcSize=24;edgeStyle=orthogonalEdgeStyle;startArrow=none;;endArrow=block;endFill=1;;exitX=1.001;exitY=0.5;exitPerimeter=0;entryX=-0.003;entryY=0.819;entryPerimeter=0;" parent="R4NwN_F0OL4F4nNE0J32-1" source="R4NwN_F0OL4F4nNE0J32-33" target="R4NwN_F0OL4F4nNE0J32-48" edge="1">
            <mxGeometry width="100" height="100" relative="1" as="geometry">
              <Array as="points" />
            </mxGeometry>
          </mxCell>
        </UserObject>
        <mxCell id="R4NwN_F0OL4F4nNE0J32-75" value="Request" style="text;html=1;resizable=0;labelBackgroundColor=#ffffff;align=center;verticalAlign=middle;fontColor=#000000;;fontSize=13;" parent="R4NwN_F0OL4F4nNE0J32-74" vertex="1">
          <mxGeometry x="-0.12417996815138621" relative="1" as="geometry">
            <mxPoint y="-11.529999999999973" as="offset" />
          </mxGeometry>
        </mxCell>
        <UserObject label="" lucidchartObjectId="9y3sRUxmVAXH" id="R4NwN_F0OL4F4nNE0J32-76">
          <mxCell style="html=1;jettySize=18;whiteSpace=wrap;fontSize=13;strokeColor=#666666;strokeOpacity=100;strokeWidth=1.5;rounded=1;arcSize=24;edgeStyle=orthogonalEdgeStyle;startArrow=none;;endArrow=block;endFill=1;;exitX=-0.002;exitY=0.5;exitPerimeter=0;entryX=-0.003;entryY=0.551;entryPerimeter=0;" parent="R4NwN_F0OL4F4nNE0J32-1" source="R4NwN_F0OL4F4nNE0J32-29" target="R4NwN_F0OL4F4nNE0J32-48" edge="1">
            <mxGeometry width="100" height="100" relative="1" as="geometry">
              <Array as="points">
                <mxPoint x="250" y="486" />
                <mxPoint x="250" y="598" />
              </Array>
            </mxGeometry>
          </mxCell>
        </UserObject>
        <mxCell id="R4NwN_F0OL4F4nNE0J32-77" value="Friction estimate to populate Raw DB" style="text;html=1;resizable=0;labelBackgroundColor=#ffffff;align=center;verticalAlign=middle;fontColor=#000000;;fontSize=13;" parent="R4NwN_F0OL4F4nNE0J32-76" vertex="1">
          <mxGeometry x="0.295366958625215" relative="1" as="geometry" />
        </mxCell>
        <UserObject label="" lucidchartObjectId="jz3sC62z-A-5" id="R4NwN_F0OL4F4nNE0J32-78">
          <mxCell style="html=1;jettySize=18;whiteSpace=wrap;fontSize=13;strokeColor=#666666;strokeOpacity=100;strokeWidth=0.8;rounded=1;arcSize=24;edgeStyle=orthogonalEdgeStyle;startArrow=none;;endArrow=block;endFill=1;;exitX=-0.002;exitY=0.5;exitPerimeter=0;entryX=-0.003;entryY=0.241;entryPerimeter=0;" parent="R4NwN_F0OL4F4nNE0J32-1" source="R4NwN_F0OL4F4nNE0J32-15" target="R4NwN_F0OL4F4nNE0J32-48" edge="1">
            <mxGeometry width="100" height="100" relative="1" as="geometry">
              <Array as="points">
                <mxPoint x="250" y="246" />
                <mxPoint x="250" y="340" />
              </Array>
            </mxGeometry>
          </mxCell>
        </UserObject>
        <mxCell id="R4NwN_F0OL4F4nNE0J32-79" value="Friction estimate to populate Raw DB" style="text;html=1;resizable=0;labelBackgroundColor=#ffffff;align=center;verticalAlign=middle;fontColor=#000000;;fontSize=13;" parent="R4NwN_F0OL4F4nNE0J32-78" vertex="1">
          <mxGeometry x="0.2744305070672799" relative="1" as="geometry" />
        </mxCell>
        <UserObject label="" lucidchartObjectId="UA3siT7EHxbO" id="R4NwN_F0OL4F4nNE0J32-80">
          <mxCell style="html=1;jettySize=18;whiteSpace=wrap;fontSize=13;strokeColor=#0c7cba;strokeOpacity=100;strokeWidth=2.3;rounded=1;arcSize=24;edgeStyle=orthogonalEdgeStyle;startArrow=none;;endArrow=block;endFill=1;;exitX=1.001;exitY=0.5;exitPerimeter=0;entryX=-0.003;entryY=0.112;entryPerimeter=0;" parent="R4NwN_F0OL4F4nNE0J32-1" source="R4NwN_F0OL4F4nNE0J32-5" target="R4NwN_F0OL4F4nNE0J32-48" edge="1">
            <mxGeometry width="100" height="100" relative="1" as="geometry">
              <Array as="points" />
            </mxGeometry>
          </mxCell>
        </UserObject>
        <mxCell id="R4NwN_F0OL4F4nNE0J32-81" value="Request" style="text;html=1;resizable=0;labelBackgroundColor=#ffffff;align=center;verticalAlign=middle;fontColor=#000000;;fontSize=13;" parent="R4NwN_F0OL4F4nNE0J32-80" vertex="1">
          <mxGeometry x="-0.10481776148989064" relative="1" as="geometry">
            <mxPoint y="-11.560000000000002" as="offset" />
          </mxGeometry>
        </mxCell>
        <UserObject label="" lucidchartObjectId="pB3sRLeH2fGO" id="R4NwN_F0OL4F4nNE0J32-82">
          <mxCell style="html=1;jettySize=18;whiteSpace=wrap;fontSize=13;strokeColor=#0c7cba;strokeOpacity=100;strokeWidth=2.3;rounded=1;arcSize=24;edgeStyle=orthogonalEdgeStyle;startArrow=none;;endArrow=block;endFill=1;;exitX=-0.003;exitY=0.084;exitPerimeter=0;entryX=0.5;entryY=-0.008;entryPerimeter=0;" parent="R4NwN_F0OL4F4nNE0J32-1" source="R4NwN_F0OL4F4nNE0J32-48" target="R4NwN_F0OL4F4nNE0J32-6" edge="1">
            <mxGeometry width="100" height="100" relative="1" as="geometry">
              <Array as="points">
                <mxPoint x="655" y="204" />
                <mxPoint x="655" y="116" />
                <mxPoint x="363" y="116" />
              </Array>
            </mxGeometry>
          </mxCell>
        </UserObject>
        <mxCell id="R4NwN_F0OL4F4nNE0J32-83" value="Response" style="text;html=1;resizable=0;labelBackgroundColor=#ffffff;align=center;verticalAlign=middle;fontColor=#000000;;fontSize=13;" parent="R4NwN_F0OL4F4nNE0J32-82" vertex="1">
          <mxGeometry x="-0.86588406674896" relative="1" as="geometry">
            <mxPoint y="-69.94" as="offset" />
          </mxGeometry>
        </mxCell>
        <UserObject label="" lucidchartObjectId="LC3sDzfph8qE" id="R4NwN_F0OL4F4nNE0J32-84">
          <mxCell style="html=1;jettySize=18;whiteSpace=wrap;fontSize=13;strokeColor=#0c7cba;strokeOpacity=100;strokeWidth=2.3;rounded=1;arcSize=24;edgeStyle=orthogonalEdgeStyle;startArrow=none;;endArrow=block;endFill=1;;exitX=1.001;exitY=0.5;exitPerimeter=0;entryX=-0.003;entryY=0.388;entryPerimeter=0;" parent="R4NwN_F0OL4F4nNE0J32-1" source="R4NwN_F0OL4F4nNE0J32-19" target="R4NwN_F0OL4F4nNE0J32-48" edge="1">
            <mxGeometry width="100" height="100" relative="1" as="geometry">
              <Array as="points" />
            </mxGeometry>
          </mxCell>
        </UserObject>
        <UserObject label="" lucidchartObjectId="8C3sfPG827it" id="R4NwN_F0OL4F4nNE0J32-85">
          <mxCell style="html=1;jettySize=18;whiteSpace=wrap;fontSize=13;strokeColor=#0c7cba;strokeOpacity=100;strokeWidth=2.3;rounded=1;arcSize=24;edgeStyle=orthogonalEdgeStyle;startArrow=none;;endArrow=block;endFill=1;;exitX=-0.003;exitY=0.366;exitPerimeter=0;entryX=0.5;entryY=-0.008;entryPerimeter=0;" parent="R4NwN_F0OL4F4nNE0J32-1" source="R4NwN_F0OL4F4nNE0J32-48" target="R4NwN_F0OL4F4nNE0J32-20" edge="1">
            <mxGeometry width="100" height="100" relative="1" as="geometry">
              <Array as="points">
                <mxPoint x="655" y="449" />
                <mxPoint x="655" y="356" />
                <mxPoint x="363" y="356" />
              </Array>
            </mxGeometry>
          </mxCell>
        </UserObject>
        <UserObject label="" lucidchartObjectId="nD3sTtLpvFG7" id="R4NwN_F0OL4F4nNE0J32-86">
          <mxCell style="html=1;jettySize=18;whiteSpace=wrap;fontSize=13;strokeColor=#0c7cba;strokeOpacity=100;strokeWidth=2.3;rounded=1;arcSize=24;edgeStyle=orthogonalEdgeStyle;startArrow=none;;endArrow=block;endFill=1;;exitX=-0.003;exitY=0.785;exitPerimeter=0;entryX=0.5;entryY=-0.008;entryPerimeter=0;" parent="R4NwN_F0OL4F4nNE0J32-1" source="R4NwN_F0OL4F4nNE0J32-48" target="R4NwN_F0OL4F4nNE0J32-34" edge="1">
            <mxGeometry width="100" height="100" relative="1" as="geometry">
              <Array as="points">
                <mxPoint x="655" y="814" />
                <mxPoint x="655" y="731" />
                <mxPoint x="363" y="731" />
              </Array>
            </mxGeometry>
          </mxCell>
        </UserObject>
        <mxCell id="R4NwN_F0OL4F4nNE0J32-87" value="Response" style="text;html=1;resizable=0;labelBackgroundColor=#ffffff;align=center;verticalAlign=middle;fontColor=#000000;;fontSize=13;" parent="R4NwN_F0OL4F4nNE0J32-86" vertex="1">
          <mxGeometry x="-0.8502755441688304" relative="1" as="geometry">
            <mxPoint y="-64.81000000000006" as="offset" />
          </mxGeometry>
        </mxCell>
        <UserObject label="" lucidchartObjectId="4D3sOnVHln28" id="R4NwN_F0OL4F4nNE0J32-88">
          <mxCell style="html=1;jettySize=18;whiteSpace=wrap;fontSize=13;strokeColor=#0c7cba;strokeOpacity=100;strokeWidth=2.3;rounded=1;arcSize=24;edgeStyle=orthogonalEdgeStyle;startArrow=none;;endArrow=block;endFill=1;;exitX=1.003;exitY=0.949;exitPerimeter=0;entryX=-0.003;entryY=0.89;entryPerimeter=0;" parent="R4NwN_F0OL4F4nNE0J32-1" source="R4NwN_F0OL4F4nNE0J32-48" target="R4NwN_F0OL4F4nNE0J32-69" edge="1">
            <mxGeometry width="100" height="100" relative="1" as="geometry">
              <Array as="points" />
            </mxGeometry>
          </mxCell>
        </UserObject>
        <UserObject label="" lucidchartObjectId="_D3srUn8XV5B" id="R4NwN_F0OL4F4nNE0J32-89">
          <mxCell style="html=1;jettySize=18;whiteSpace=wrap;fontSize=13;strokeColor=#0c7cba;strokeOpacity=100;strokeWidth=2.3;rounded=1;arcSize=24;edgeStyle=orthogonalEdgeStyle;startArrow=none;;endArrow=block;endFill=1;;exitX=-0.003;exitY=0.832;exitPerimeter=0;entryX=1.003;entryY=0.922;entryPerimeter=0;" parent="R4NwN_F0OL4F4nNE0J32-1" source="R4NwN_F0OL4F4nNE0J32-69" target="R4NwN_F0OL4F4nNE0J32-48" edge="1">
            <mxGeometry width="100" height="100" relative="1" as="geometry">
              <Array as="points" />
            </mxGeometry>
          </mxCell>
        </UserObject>
        <UserObject label="" lucidchartObjectId="pE3sSuoxfeZe" id="R4NwN_F0OL4F4nNE0J32-90">
          <mxCell style="html=1;jettySize=18;whiteSpace=wrap;fontSize=13;strokeColor=#0c7cba;strokeOpacity=100;strokeWidth=2.3;rounded=1;arcSize=24;edgeStyle=orthogonalEdgeStyle;startArrow=none;;endArrow=block;endFill=1;;exitX=1.003;exitY=0.612;exitPerimeter=0;entryX=-0.003;entryY=0.167;entryPerimeter=0;" parent="R4NwN_F0OL4F4nNE0J32-1" source="R4NwN_F0OL4F4nNE0J32-48" target="R4NwN_F0OL4F4nNE0J32-69" edge="1">
            <mxGeometry width="100" height="100" relative="1" as="geometry">
              <Array as="points" />
            </mxGeometry>
          </mxCell>
        </UserObject>
        <UserObject label="" lucidchartObjectId="sE3sgkFL4puL" id="R4NwN_F0OL4F4nNE0J32-91">
          <mxCell style="html=1;jettySize=18;whiteSpace=wrap;fontSize=13;strokeColor=#0c7cba;strokeOpacity=100;strokeWidth=2.3;rounded=1;arcSize=24;edgeStyle=orthogonalEdgeStyle;startArrow=none;;endArrow=block;endFill=1;;exitX=-0.003;exitY=0.113;exitPerimeter=0;entryX=1.003;entryY=0.587;entryPerimeter=0;" parent="R4NwN_F0OL4F4nNE0J32-1" source="R4NwN_F0OL4F4nNE0J32-69" target="R4NwN_F0OL4F4nNE0J32-48" edge="1">
            <mxGeometry width="100" height="100" relative="1" as="geometry">
              <Array as="points" />
            </mxGeometry>
          </mxCell>
        </UserObject>
        <UserObject label="" lucidchartObjectId="DF3sjtqLHW5A" id="R4NwN_F0OL4F4nNE0J32-92">
          <mxCell style="html=1;jettySize=18;whiteSpace=wrap;fontSize=13;strokeColor=#0c7cba;strokeOpacity=100;strokeWidth=2.3;rounded=1;arcSize=24;edgeStyle=orthogonalEdgeStyle;startArrow=none;;endArrow=block;endFill=1;;exitX=1.003;exitY=0.572;exitPerimeter=0;entryX=1.003;entryY=0.463;entryPerimeter=0;" parent="R4NwN_F0OL4F4nNE0J32-1" source="R4NwN_F0OL4F4nNE0J32-69" target="R4NwN_F0OL4F4nNE0J32-4" edge="1">
            <mxGeometry width="100" height="100" relative="1" as="geometry">
              <Array as="points">
                <mxPoint x="1833" y="799" />
                <mxPoint x="1833" y="452" />
              </Array>
            </mxGeometry>
          </mxCell>
        </UserObject>
        <UserObject label="" lucidchartObjectId="WF3scWvZ1a10" id="R4NwN_F0OL4F4nNE0J32-93">
          <mxCell style="html=1;jettySize=18;whiteSpace=wrap;fontSize=13;strokeColor=#0c7cba;strokeOpacity=100;strokeWidth=2.3;rounded=1;arcSize=24;edgeStyle=orthogonalEdgeStyle;startArrow=none;;endArrow=block;endFill=1;;exitX=1.003;exitY=0.59;exitPerimeter=0;entryX=1.003;entryY=0.5;entryPerimeter=0;" parent="R4NwN_F0OL4F4nNE0J32-1" source="R4NwN_F0OL4F4nNE0J32-4" target="R4NwN_F0OL4F4nNE0J32-69" edge="1">
            <mxGeometry width="100" height="100" relative="1" as="geometry">
              <Array as="points">
                <mxPoint x="1803" y="474" />
                <mxPoint x="1803" y="799" />
              </Array>
            </mxGeometry>
          </mxCell>
        </UserObject>
        <UserObject label="" lucidchartObjectId="ZH3srDkSCyKW" id="R4NwN_F0OL4F4nNE0J32-94">
          <mxCell style="html=1;jettySize=18;whiteSpace=wrap;fontSize=13;strokeColor=#666666;strokeOpacity=100;dashed=1;fixDash=1;dashPattern=6 5;strokeWidth=0.8;rounded=1;arcSize=24;edgeStyle=orthogonalEdgeStyle;startArrow=none;;endArrow=block;endFill=1;;exitX=-0.002;exitY=0.5;exitPerimeter=0;entryX=-0.004;entryY=0.403;entryPerimeter=0;" parent="R4NwN_F0OL4F4nNE0J32-1" source="R4NwN_F0OL4F4nNE0J32-29" target="R4NwN_F0OL4F4nNE0J32-65" edge="1">
            <mxGeometry width="100" height="100" relative="1" as="geometry">
              <Array as="points">
                <mxPoint x="250" y="486" />
                <mxPoint x="250" y="611" />
                <mxPoint x="745" y="611" />
                <mxPoint x="745" y="206" />
                <mxPoint x="1000" y="206" />
                <mxPoint x="1000" y="365" />
              </Array>
            </mxGeometry>
          </mxCell>
        </UserObject>
        <UserObject label="" lucidchartObjectId="IK3sf7vDoSvf" id="R4NwN_F0OL4F4nNE0J32-95">
          <mxCell style="html=1;jettySize=18;whiteSpace=wrap;fontSize=13;strokeColor=#0c7cba;strokeOpacity=100;dashed=1;fixDash=1;dashPattern=6 5;strokeWidth=0.8;rounded=1;arcSize=24;edgeStyle=orthogonalEdgeStyle;startArrow=none;;endArrow=block;endFill=1;;exitX=1.001;exitY=0.5;exitPerimeter=0;entryX=1.003;entryY=0.463;entryPerimeter=0;" parent="R4NwN_F0OL4F4nNE0J32-1" source="R4NwN_F0OL4F4nNE0J32-33" target="R4NwN_F0OL4F4nNE0J32-4" edge="1">
            <mxGeometry width="100" height="100" relative="1" as="geometry">
              <Array as="points">
                <mxPoint x="775" y="844" />
                <mxPoint x="775" y="956" />
                <mxPoint x="978" y="956" />
                <mxPoint x="978" y="829" />
                <mxPoint x="1833" y="829" />
                <mxPoint x="1833" y="442" />
              </Array>
            </mxGeometry>
          </mxCell>
        </UserObject>
        <UserObject label="" lucidchartObjectId="NM3sdhwIXTOv" id="R4NwN_F0OL4F4nNE0J32-96">
          <mxCell style="html=1;jettySize=18;whiteSpace=wrap;fontSize=13;strokeColor=#0c7cba;strokeOpacity=100;dashed=1;fixDash=1;dashPattern=6 5;strokeWidth=0.8;rounded=1;arcSize=24;edgeStyle=orthogonalEdgeStyle;startArrow=none;;endArrow=block;endFill=1;;exitX=1.003;exitY=0.59;exitPerimeter=0;entryX=0.5;entryY=-0.008;entryPerimeter=0;" parent="R4NwN_F0OL4F4nNE0J32-1" source="R4NwN_F0OL4F4nNE0J32-4" target="R4NwN_F0OL4F4nNE0J32-34" edge="1">
            <mxGeometry width="100" height="100" relative="1" as="geometry">
              <Array as="points">
                <mxPoint x="1803" y="474" />
                <mxPoint x="1803" y="799" />
                <mxPoint x="955" y="799" />
                <mxPoint x="955" y="934" />
                <mxPoint x="798" y="934" />
                <mxPoint x="798" y="814" />
                <mxPoint x="655" y="814" />
                <mxPoint x="655" y="731" />
                <mxPoint x="357" y="731" />
              </Array>
            </mxGeometry>
          </mxCell>
        </UserObject>
        <mxCell id="R4NwN_F0OL4F4nNE0J32-97" value="DB friction estimate; Comm, delay estimate" style="text;html=1;resizable=0;labelBackgroundColor=#ffffff;align=center;verticalAlign=middle;fontColor=#000000;;fontSize=13;" parent="R4NwN_F0OL4F4nNE0J32-96" vertex="1">
          <mxGeometry x="0.7531818801487964" relative="1" as="geometry">
            <mxPoint y="-298.04999999999995" as="offset" />
          </mxGeometry>
        </mxCell>
        <UserObject label="" lucidchartObjectId="iO3sk-mG47uz" id="R4NwN_F0OL4F4nNE0J32-98">
          <mxCell style="html=1;jettySize=18;whiteSpace=wrap;fontSize=13;strokeColor=#666666;strokeOpacity=100;strokeWidth=0.8;rounded=1;arcSize=24;edgeStyle=orthogonalEdgeStyle;startArrow=none;;endArrow=block;endFill=1;;exitX=1.003;exitY=0.388;exitPerimeter=0;entryX=-0.003;entryY=0.887;entryPerimeter=0;" parent="R4NwN_F0OL4F4nNE0J32-1" source="R4NwN_F0OL4F4nNE0J32-48" target="R4NwN_F0OL4F4nNE0J32-70" edge="1">
            <mxGeometry width="100" height="100" relative="1" as="geometry">
              <Array as="points" />
            </mxGeometry>
          </mxCell>
        </UserObject>
        <UserObject label="VEHICLE 2" lucidchartObjectId="lZ3sDZLhTgH5" id="R4NwN_F0OL4F4nNE0J32-99">
          <mxCell style="html=1;overflow=block;blockSpacing=1;whiteSpace=wrap;strokeColor=none;fillColor=none;whiteSpace=wrap;fontSize=13;fontColor=#000000;align=center;spacing=0;strokeWidth=1.5;" parent="R4NwN_F0OL4F4nNE0J32-1" vertex="1">
            <mxGeometry x="160" y="350" width="78" height="21" as="geometry" />
          </mxCell>
        </UserObject>
        <UserObject label="VEHICLE N" lucidchartObjectId="vZ3sWe.zdyna" id="R4NwN_F0OL4F4nNE0J32-100">
          <mxCell style="html=1;overflow=block;blockSpacing=1;whiteSpace=wrap;strokeColor=none;fillColor=none;whiteSpace=wrap;fontSize=13;fontColor=#000000;align=center;spacing=0;strokeWidth=1.5;" parent="R4NwN_F0OL4F4nNE0J32-1" vertex="1">
            <mxGeometry x="160" y="725" width="78" height="21" as="geometry" />
          </mxCell>
        </UserObject>
        <UserObject label="&lt;div style=&quot;display: flex; justify-content: flex-start; text-align: left; align-items: baseline; font-size: 0; line-height: 1.25;margin-top: -2px;&quot;&gt;&lt;span&gt;&lt;span style=&quot;font-size:13px;color:#000000;text-decoration: underline;&quot;&gt;Tools available&lt;/span&gt;&lt;span style=&quot;font-size:13px;color:#000000;&quot;&gt;: Allan variance;&#xa;&lt;/span&gt;&lt;/span&gt;&lt;/div&gt;&lt;div style=&quot;display: flex; justify-content: center; text-align: center; align-items: baseline; font-size: 0; line-height: 1.25;margin-top: -2px;&quot;&gt;&lt;span&gt;&lt;span style=&quot;font-size:13px;color:#000000;&quot;&gt;&lt;span style=&quot;font-size:13px;color:#000000;&quot;&gt;Multiple R-trees;&#xa;&lt;/span&gt;&lt;/span&gt;&lt;/span&gt;&lt;/div&gt;&lt;div style=&quot;display: flex; justify-content: flex-start; text-align: left; align-items: baseline; font-size: 0; line-height: 1.25;margin-top: -2px;&quot;&gt;&lt;span&gt;&lt;span style=&quot;font-size:13px;color:#000000;&quot;&gt;Clustering&#xa;&lt;/span&gt;&lt;/span&gt;&lt;/div&gt;&lt;div style=&quot;display: flex; justify-content: flex-start; text-align: left; align-items: baseline; font-size: 0; line-height: 1.25;margin-top: -2px;&quot;&gt;&lt;span&gt;&lt;/span&gt;&lt;/div&gt;" lucidchartObjectId="i03s2qZDI968" id="R4NwN_F0OL4F4nNE0J32-101">
          <mxCell style="html=1;overflow=block;blockSpacing=1;whiteSpace=wrap;strokeColor=none;fillColor=none;whiteSpace=wrap;fontSize=13;spacing=0;verticalAlign=top;strokeWidth=1.5;" parent="R4NwN_F0OL4F4nNE0J32-1" vertex="1">
            <mxGeometry x="1165" y="571" width="120" height="90" as="geometry" />
          </mxCell>
        </UserObject>
        <UserObject label="" lucidchartObjectId="4fct.LJcRFPf" id="R4NwN_F0OL4F4nNE0J32-102">
          <mxCell style="html=1;jettySize=18;whiteSpace=wrap;fontSize=13;strokeColor=#666666;strokeOpacity=100;dashed=1;fixDash=1;dashPattern=1 4;strokeWidth=1.5;rounded=1;arcSize=24;edgeStyle=orthogonalEdgeStyle;startArrow=none;;endArrow=block;endFill=1;;exitX=0.5;exitY=1.001;exitPerimeter=0;entryX=-0.003;entryY=0.749;entryPerimeter=0;" parent="R4NwN_F0OL4F4nNE0J32-1" source="R4NwN_F0OL4F4nNE0J32-4" target="R4NwN_F0OL4F4nNE0J32-49" edge="1">
            <mxGeometry width="100" height="100" relative="1" as="geometry">
              <Array as="points">
                <mxPoint x="1638" y="664" />
                <mxPoint x="1113" y="664" />
                <mxPoint x="1113" y="543" />
              </Array>
            </mxGeometry>
          </mxCell>
        </UserObject>
        <mxCell id="R4NwN_F0OL4F4nNE0J32-103" value="Maybe?" style="text;html=1;resizable=0;labelBackgroundColor=#ffffff;align=center;verticalAlign=middle;fontColor=#000000;;fontSize=13;" parent="R4NwN_F0OL4F4nNE0J32-102" vertex="1">
          <mxGeometry x="-0.05657230656643575" relative="1" as="geometry">
            <mxPoint y="-45.34100000000001" as="offset" />
          </mxGeometry>
        </mxCell>
        <mxCell id="lTdJrN69ERf81a2x9zdF-0" value="sss" style="text;html=1;resizable=0;autosize=1;align=center;verticalAlign=middle;points=[];fillColor=none;strokeColor=none;rounded=0;labelBackgroundColor=none;fontSize=8;fontColor=#66FF66;" parent="R4NwN_F0OL4F4nNE0J32-1" vertex="1">
          <mxGeometry x="926.2" y="1200" width="30" height="20" as="geometry" />
        </mxCell>
        <mxCell id="lTdJrN69ERf81a2x9zdF-1" value="" style="rounded=1;fillColor=#E0F4FF;labelBackgroundColor=#ffffff;arcSize=8;" parent="R4NwN_F0OL4F4nNE0J32-1" vertex="1">
          <mxGeometry x="715.98" y="1217" width="470" height="189" as="geometry" />
        </mxCell>
        <mxCell id="lTdJrN69ERf81a2x9zdF-2" value="Vehicle Model" style="text;resizable=0;autosize=1;align=center;verticalAlign=middle;points=[];fillColor=none;strokeColor=none;rounded=0;" parent="R4NwN_F0OL4F4nNE0J32-1" vertex="1">
          <mxGeometry x="891.77" y="1217" width="90" height="20" as="geometry" />
        </mxCell>
        <mxCell id="lTdJrN69ERf81a2x9zdF-3" value="DB trajectory query" style="rounded=1;align=left;verticalAlign=middle;fillColor=#D1FFEC;strokeColor=#A2C7E8;fontSize=10;fontStyle=0" parent="R4NwN_F0OL4F4nNE0J32-1" vertex="1">
          <mxGeometry x="715.98" y="1246" width="120" height="22.05" as="geometry" />
        </mxCell>
        <mxCell id="lTdJrN69ERf81a2x9zdF-4" value="DB road geometry  query" style="rounded=1;align=left;verticalAlign=middle;fillColor=#D1FFEC;strokeColor=#A2C7E8;fontSize=10;fontStyle=0" parent="R4NwN_F0OL4F4nNE0J32-1" vertex="1">
          <mxGeometry x="715.98" y="1276" width="120" height="22.05" as="geometry" />
        </mxCell>
        <mxCell id="lTdJrN69ERf81a2x9zdF-5" value="DB friction preview query" style="rounded=1;align=left;verticalAlign=middle;fillColor=#D1FFEC;strokeColor=#A2C7E8;fontSize=10;fontStyle=0" parent="R4NwN_F0OL4F4nNE0J32-1" vertex="1">
          <mxGeometry x="715.98" y="1306" width="120" height="22.05" as="geometry" />
        </mxCell>
        <mxCell id="lTdJrN69ERf81a2x9zdF-6" value="" style="edgeStyle=orthogonalEdgeStyle;rounded=0;orthogonalLoop=1;jettySize=auto;endArrow=blockThin;endFill=1;fontSize=8;fontColor=#2155FF;strokeColor=#3399FF;" parent="R4NwN_F0OL4F4nNE0J32-1" source="lTdJrN69ERf81a2x9zdF-8" target="lTdJrN69ERf81a2x9zdF-23" edge="1">
          <mxGeometry relative="1" as="geometry" />
        </mxCell>
        <mxCell id="lTdJrN69ERf81a2x9zdF-7" value="friction at tire patch" style="edgeLabel;align=left;verticalAlign=middle;resizable=0;points=[];fontSize=9;labelBackgroundColor=none;fontColor=#2155FF;" parent="lTdJrN69ERf81a2x9zdF-6" vertex="1" connectable="0">
          <mxGeometry x="-0.292" y="-1" relative="1" as="geometry">
            <mxPoint x="-16.799999999999997" y="-8" as="offset" />
          </mxGeometry>
        </mxCell>
        <mxCell id="lTdJrN69ERf81a2x9zdF-8" value="DB true friction query" style="rounded=1;align=left;verticalAlign=middle;fillColor=#D1FFEC;strokeColor=#A2C7E8;fontSize=10;fontStyle=0" parent="R4NwN_F0OL4F4nNE0J32-1" vertex="1">
          <mxGeometry x="715.98" y="1367" width="127" height="22.047199999999997" as="geometry" />
        </mxCell>
        <mxCell id="lTdJrN69ERf81a2x9zdF-9" value="" style="edgeStyle=orthogonalEdgeStyle;orthogonalLoop=1;jettySize=auto;endArrow=blockThin;endFill=1;fontSize=10;fontColor=#2155FF;rounded=0;" parent="R4NwN_F0OL4F4nNE0J32-1" source="lTdJrN69ERf81a2x9zdF-11" target="lTdJrN69ERf81a2x9zdF-23" edge="1">
          <mxGeometry relative="1" as="geometry">
            <Array as="points">
              <mxPoint x="979.98" y="1292" />
              <mxPoint x="979.98" y="1321" />
            </Array>
          </mxGeometry>
        </mxCell>
        <mxCell id="lTdJrN69ERf81a2x9zdF-10" value="control &#xa;command" style="edgeLabel;align=left;verticalAlign=middle;resizable=0;points=[];fontSize=9;fontColor=#2155FF;labelBackgroundColor=none;" parent="lTdJrN69ERf81a2x9zdF-9" vertex="1" connectable="0">
          <mxGeometry x="0.2969" relative="1" as="geometry">
            <mxPoint x="-32" y="-28.64" as="offset" />
          </mxGeometry>
        </mxCell>
        <mxCell id="lTdJrN69ERf81a2x9zdF-11" value="Driver &#xa;Model and &#xa;Controller" style="rounded=1;align=center;verticalAlign=middle;fontSize=10;fontStyle=0;fillColor=#F8CBAD;strokeColor=#578EC0;arcSize=10;" parent="R4NwN_F0OL4F4nNE0J32-1" vertex="1">
          <mxGeometry x="885.98" y="1246" width="60" height="92.05" as="geometry" />
        </mxCell>
        <mxCell id="lTdJrN69ERf81a2x9zdF-12" value="" style="endArrow=blockThin;strokeColor=#7030A0;fontSize=10;fontColor=#2155FF;endFill=1;entryX=0.001;entryY=0.121;entryDx=0;entryDy=0;entryPerimeter=0;exitX=1;exitY=0.5;exitDx=0;exitDy=0;" parent="R4NwN_F0OL4F4nNE0J32-1" source="lTdJrN69ERf81a2x9zdF-3" target="lTdJrN69ERf81a2x9zdF-11" edge="1">
          <mxGeometry relative="1" as="geometry">
            <mxPoint x="842.98" y="1256.8600000000001" as="sourcePoint" />
            <mxPoint x="895.98" y="1257" as="targetPoint" />
          </mxGeometry>
        </mxCell>
        <mxCell id="lTdJrN69ERf81a2x9zdF-13" value="vehicle &#xa;trajectory" style="edgeLabel;resizable=0;align=left;verticalAlign=middle;labelBackgroundColor=none;fontSize=9;fontColor=#2155FF;" parent="lTdJrN69ERf81a2x9zdF-12" connectable="0" vertex="1">
          <mxGeometry relative="1" as="geometry">
            <mxPoint x="-21.33" y="-13" as="offset" />
          </mxGeometry>
        </mxCell>
        <mxCell id="lTdJrN69ERf81a2x9zdF-14" value="" style="endArrow=blockThin;strokeColor=#7030A0;fontSize=10;endFill=1;entryX=0.006;entryY=0.772;entryDx=0;entryDy=0;entryPerimeter=0;fontColor=#2155FF;exitX=1;exitY=0.5;exitDx=0;exitDy=0;" parent="R4NwN_F0OL4F4nNE0J32-1" source="lTdJrN69ERf81a2x9zdF-5" target="lTdJrN69ERf81a2x9zdF-11" edge="1">
          <mxGeometry relative="1" as="geometry">
            <mxPoint x="842.98" y="1316.88" as="sourcePoint" />
            <mxPoint x="895.98" y="1317" as="targetPoint" />
          </mxGeometry>
        </mxCell>
        <mxCell id="lTdJrN69ERf81a2x9zdF-15" value="preview &#xa;friction" style="edgeLabel;resizable=0;align=left;verticalAlign=middle;labelBackgroundColor=none;fontSize=9;fontColor=#2155FF;" parent="lTdJrN69ERf81a2x9zdF-14" connectable="0" vertex="1">
          <mxGeometry relative="1" as="geometry">
            <mxPoint x="-21.33" y="-12" as="offset" />
          </mxGeometry>
        </mxCell>
        <mxCell id="lTdJrN69ERf81a2x9zdF-16" value="" style="endArrow=blockThin;strokeColor=#7030A0;fontSize=10;endFill=1;entryX=0.002;entryY=0.443;entryDx=0;entryDy=0;entryPerimeter=0;fontColor=#2155FF;exitX=1;exitY=0.5;exitDx=0;exitDy=0;" parent="R4NwN_F0OL4F4nNE0J32-1" source="lTdJrN69ERf81a2x9zdF-4" target="lTdJrN69ERf81a2x9zdF-11" edge="1">
          <mxGeometry relative="1" as="geometry">
            <mxPoint x="842.98" y="1286.88" as="sourcePoint" />
            <mxPoint x="895.98" y="1287" as="targetPoint" />
          </mxGeometry>
        </mxCell>
        <mxCell id="lTdJrN69ERf81a2x9zdF-17" value="road &#xa;geometry" style="edgeLabel;resizable=0;align=left;verticalAlign=middle;labelBackgroundColor=none;fontSize=9;fontColor=#2155FF;" parent="lTdJrN69ERf81a2x9zdF-16" connectable="0" vertex="1">
          <mxGeometry relative="1" as="geometry">
            <mxPoint x="-21.33" y="-13" as="offset" />
          </mxGeometry>
        </mxCell>
        <mxCell id="lTdJrN69ERf81a2x9zdF-18" value="" style="edgeStyle=orthogonalEdgeStyle;rounded=0;orthogonalLoop=1;jettySize=auto;entryX=0;entryY=0.25;entryDx=0;entryDy=0;endArrow=blockThin;endFill=1;fontSize=10;fontColor=#2155FF;strokeColor=#05B2F0;" parent="R4NwN_F0OL4F4nNE0J32-1" source="lTdJrN69ERf81a2x9zdF-20" target="lTdJrN69ERf81a2x9zdF-24" edge="1">
          <mxGeometry relative="1" as="geometry">
            <Array as="points">
              <mxPoint x="1099.98" y="1264" />
              <mxPoint x="1099.98" y="1282" />
            </Array>
          </mxGeometry>
        </mxCell>
        <mxCell id="lTdJrN69ERf81a2x9zdF-19" value="road friction &#xa;measurement " style="edgeLabel;align=left;verticalAlign=middle;resizable=0;points=[];fontSize=9;labelBackgroundColor=none;fontColor=#2155FF;" parent="lTdJrN69ERf81a2x9zdF-18" vertex="1" connectable="0">
          <mxGeometry x="0.2004" relative="1" as="geometry">
            <mxPoint x="-31" y="-22.94" as="offset" />
          </mxGeometry>
        </mxCell>
        <mxCell id="lTdJrN69ERf81a2x9zdF-20" value="Friction &#xa;Estimator" style="rounded=1;align=center;verticalAlign=middle;fontSize=10;fontStyle=0;fillColor=#92D050;strokeColor=#5890C3;" parent="R4NwN_F0OL4F4nNE0J32-1" vertex="1">
          <mxGeometry x="993.98" y="1246" width="72" height="35" as="geometry" />
        </mxCell>
        <mxCell id="lTdJrN69ERf81a2x9zdF-21" value="" style="edgeStyle=orthogonalEdgeStyle;rounded=0;orthogonalLoop=1;jettySize=auto;entryX=0;entryY=0.75;entryDx=0;entryDy=0;endArrow=blockThin;endFill=1;fontSize=10;fontColor=#2155FF;strokeColor=#ABD294;" parent="R4NwN_F0OL4F4nNE0J32-1" source="lTdJrN69ERf81a2x9zdF-23" target="lTdJrN69ERf81a2x9zdF-24" edge="1">
          <mxGeometry relative="1" as="geometry">
            <Array as="points">
              <mxPoint x="1105.98" y="1321" />
              <mxPoint x="1105.98" y="1302" />
            </Array>
          </mxGeometry>
        </mxCell>
        <mxCell id="lTdJrN69ERf81a2x9zdF-22" value="vehicle&#xa;states" style="edgeLabel;align=left;verticalAlign=middle;resizable=0;points=[];fontSize=9;labelBackgroundColor=none;fontColor=#2155FF;" parent="lTdJrN69ERf81a2x9zdF-21" vertex="1" connectable="0">
          <mxGeometry x="-0.2627" y="4" relative="1" as="geometry">
            <mxPoint x="-19.65" y="-16.599999999999998" as="offset" />
          </mxGeometry>
        </mxCell>
        <mxCell id="lTdJrN69ERf81a2x9zdF-23" value="Chassis&#xa;Dynamics" style="rounded=1;align=center;verticalAlign=middle;fontSize=10;fontStyle=0;strokeColor=#578EC0;fillColor=#C5E0B4;" parent="R4NwN_F0OL4F4nNE0J32-1" vertex="1">
          <mxGeometry x="993.98" y="1303.05" width="74.14" height="35" as="geometry" />
        </mxCell>
        <mxCell id="lTdJrN69ERf81a2x9zdF-24" value="DB friction&#xa;measurement&#xa;query" style="rounded=1;align=left;verticalAlign=middle;fillColor=#D1FFEC;strokeColor=#A2C7E8;fontSize=9;fontStyle=0;" parent="R4NwN_F0OL4F4nNE0J32-1" vertex="1">
          <mxGeometry x="1121.98" y="1271" width="64" height="42.05" as="geometry" />
        </mxCell>
        <mxCell id="lTdJrN69ERf81a2x9zdF-25" value="" style="shape=image;verticalLabelPosition=bottom;labelBackgroundColor=#ffffff;verticalAlign=top;aspect=fixed;imageAspect=0;image=data:image/png,iVBORw0KGgoAAAANSUhEUgAAACgAAAAOCAYAAABdC15GAAADb0lEQVRIDc2Uf2xTVRTHbylBBjEQIwnxnyVsS4wuaidqRCNRmAaMUxIXrV3wRybBzZmQYeJihlGIGTKIP4owgaktY4SgATYcurnYUib70co0G9v4YUdnu661Xbdu1LXvfQw174WudWX4jze5Oefcd77nfN59913B/3yI2fBJQLvZhPf06RuSdXknaRkcIxq7pry5MStAU4MN41ot3vJcrnpH03ZscU9S0ubngzY33/WO8NdULK1mesINA/7kGmHl8rXY3hFEdgncu/dOr6XG0WiU0Ogo3/R6KWoaouDIRe769Bfyje0ctfYyPOwnFArFpyTNvLtpAa8CR7u6efitdzFobuHKFg3yFwLn048Qk1WmBOdac0dnBx82OtDV9HCvsZvb37OhMXyNTv8Rhw6fxOGwY7FYsNvtCdrpwYyAv15y8mzFVrKfWIMuM4ftcwS+TVqonYczS4uv/ez0egnxx5ZBRFkT89/4lpwSM1WmFpyuYTVnPBzG7nCocSonJeDvo2GO9TnRl1eQM38BuXdk8uKChdQvFoyVzoGaDPx3CvqK9Sib6PF4MJvNBINBtU/VQQtLn6uict/3DFweUtcVx+UNUlt3RAlT2gTAs3/42GLppuiYjXVfnUC/+wD5hpd5bNFtVGoFLZmCSMlcMGYQyRecz1rM+NCVeOFAIEBzczPhcFht1OHow+7oVeO4I8Oku5WJgYO4Wz/hTHUx48ercX9ZSbAn+YskAF4IjLHV2s26ulMU1NTzzLZqVt//AKVCsO9WwW86DbEyLewQyMVzuTxP4Ny5LREgXSTDn81lePbn4duhI7w5m8HnF9J2n+BiXXWSOgFQeWq95KLG1snm1zeyQQj2ZAis2YLAGoG0SRBpNCAP/szE3l30P/UgEd+IIk1vZQjWbWTk/Vz8Fffg3rCM/sIlWPIEFw4Zk/QpAZWsKb8f25N3M/CQYKJQEH1FEG58m+tvs5DlR7w/nEKWldOoqP/dBna+hOfVpbhey6SvcAmdqzJoWCboMX2WJJoRMJ59fj+YBPLngsjxUmLS9Xj/1JOiUZgFoLN8FeceFXSt1GDNE5zMEuxZJOiovRlAxpCdRcR89eofm/Sas1zo3/4mbYblnFm/glb9ChpeeJwDBas519SUVCn9DiZJ/vtCTJKYiklEJTk+lQs/1SH5G4PrzdAgorNkAAAAAElFTkSuQmCC;" parent="R4NwN_F0OL4F4nNE0J32-1" vertex="1">
          <mxGeometry x="1133.98" y="1220" width="40" height="14" as="geometry" />
        </mxCell>
        <mxCell id="lTdJrN69ERf81a2x9zdF-26" value="" style="edgeStyle=orthogonalEdgeStyle;rounded=0;orthogonalLoop=1;jettySize=auto;entryX=0.5;entryY=1;entryDx=0;entryDy=0;endArrow=blockThin;endFill=1;fontSize=10;fontColor=#2155FF;strokeColor=#ABD294;" parent="R4NwN_F0OL4F4nNE0J32-1" target="lTdJrN69ERf81a2x9zdF-20" edge="1">
          <mxGeometry relative="1" as="geometry">
            <mxPoint x="1074.98" y="1321" as="sourcePoint" />
            <mxPoint x="1119.98" y="1312.5375" as="targetPoint" />
            <Array as="points">
              <mxPoint x="1029.98" y="1296" />
            </Array>
          </mxGeometry>
        </mxCell>
        <mxCell id="lTdJrN69ERf81a2x9zdF-27" value="" style="edgeStyle=orthogonalEdgeStyle;rounded=0;orthogonalLoop=1;jettySize=auto;entryX=0.007;entryY=0.925;entryDx=0;entryDy=0;endArrow=blockThin;endFill=1;fontSize=10;fontColor=#2155FF;strokeColor=#ABD294;entryPerimeter=0;" parent="R4NwN_F0OL4F4nNE0J32-1" target="lTdJrN69ERf81a2x9zdF-11" edge="1">
          <mxGeometry relative="1" as="geometry">
            <mxPoint x="1074.98" y="1320.0000000000002" as="sourcePoint" />
            <mxPoint x="1039.98" y="1291" as="targetPoint" />
            <Array as="points">
              <mxPoint x="1074.98" y="1356" />
              <mxPoint x="845.98" y="1356" />
              <mxPoint x="845.98" y="1331" />
              <mxPoint x="885.98" y="1331" />
            </Array>
          </mxGeometry>
        </mxCell>
      </root>
    </mxGraphModel>
  </diagram>
</mxfile>
